<?xml version="1.0" standalone="no"?>
<!DOCTYPE svg PUBLIC "-//W3C//DTD SVG 1.1//EN" "http://www.w3.org/Graphics/SVG/1.1/DTD/svg11.dtd" >
<svg xmlns="http://www.w3.org/2000/svg" xmlns:xlink="http://www.w3.org/1999/xlink" version="1.1">
<metadata>
Created by FontForge 20170731 at Fri Aug 14 18:28:24 2020
 By Aleksey,,,
Copyright (c) 2011 By Svetoslav Simov (c) Fontfabric, LLC. All rights reserved.
</metadata>
<defs>
<font id="Code-Pro-LC" horiz-adv-x="1421" >
  <font-face 
    font-family="Code Pro LC"
    font-weight="400"
    font-stretch="normal"
    units-per-em="2048"
    panose-1="2 0 0 0 0 0 0 0 0 0"
    ascent="1536"
    descent="-512"
    x-height="1108"
    cap-height="1434"
    bbox="-272 -512 3443 1898"
    underline-thickness="102"
    underline-position="-307"
    unicode-range="U+0020-FB04"
  />
<missing-glyph horiz-adv-x="1085" 
d="M31 0v1434h1024v-1434h-1024zM543 809l348 522h-696zM604 717l348 -522v1044zM133 195l348 522l-348 522v-1044zM195 102h696l-348 523z" />
    <glyph glyph-name="f_f" unicode="ff" horiz-adv-x="1374" 
d="M1087 942v-942h-200v942h-451v-942h-200v942h-170v170h170q0 196 113 278t337 64v-168q-54 7 -99.5 2t-79 -21.5t-52.5 -55.5t-19 -99h451q0 196 111 278t335 64v-168q-54 7 -99 2t-77.5 -21.5t-51 -55.5t-18.5 -99h226v-170h-226z" />
    <glyph glyph-name="fi" unicode="fi" horiz-adv-x="1257" 
d="M848 1356q0 54 39 85t86 31.5t86 -30.5t39 -86q0 -37 -18.5 -64.5t-46.5 -40t-60 -12.5t-60 12.5t-46.5 40t-18.5 64.5zM1073 0v1108h-637q0 60 19 99.5t52.5 56t79 22t99.5 -1.5v168q-224 18 -337 -65t-113 -279h-170v-166h170v-942h200v942h436v-942h201z" />
    <glyph glyph-name="fl" unicode="fl" horiz-adv-x="1269" 
d="M680 1108v-166h-244v-942h-200v942h-170v166h170q0 196 113 279t337 65v-168q-54 7 -99.5 1.5t-79 -22t-52.5 -56t-19 -99.5h244zM887 0v1434h200v-1434h-200z" />
    <glyph glyph-name="f_f_i" unicode="ffi" horiz-adv-x="1771" 
d="M1010 1108q0 60 19 99.5t52.5 56t79 22t99.5 -1.5v168q-224 18 -337.5 -65t-113.5 -279h-373q0 60 19 99.5t52.5 56t79 22t99.5 -1.5v168q-224 18 -337 -65t-113 -279h-170v-166h170v-942h200v942h373v-942h201v942h376v-942h201v1108h-577zM1362 1356q0 54 39 85
t86 31.5t86 -30.5t39 -86q0 -37 -18.5 -64.5t-46.5 -40t-60 -12.5t-60 12.5t-46.5 40t-18.5 64.5z" />
    <glyph glyph-name="f_f_l" unicode="ffl" horiz-adv-x="1771" 
d="M1386 0v1434h201v-1434h-201zM1262 1108v-166h-252v-942h-201v942h-373v-942h-200v942h-170v166h170q0 196 113 279t337 65v-168q-54 7 -99.5 1.5t-79 -22t-52.5 -56t-19 -99.5h373q0 196 113.5 279t337.5 65v-168q-54 7 -99.5 1.5t-79 -22t-52.5 -56t-19 -99.5h252z" />
    <glyph glyph-name="f_j" unicode="fj" horiz-adv-x="1155" 
d="M772 1354q0 54 39 85t86 31.5t86 -30.5t39 -86q0 -37 -18.5 -64.5t-46.5 -40t-60 -12.5t-60 12.5t-46.5 40t-18.5 64.5zM436 0v942h361v-932q0 -199 -250 -176v-176q102 -11 183 3t141.5 56t93 119t32.5 187v1085h-561q0 60 19 99.5t52.5 56t79 22t99.5 -1.5v168
q-224 18 -337 -65t-113 -279h-170v-166h170v-942h200z" />
    <glyph glyph-name=".notdef" horiz-adv-x="1085" 
d="M31 0v1434h1024v-1434h-1024zM543 809l348 522h-696zM604 717l348 -522v1044zM133 195l348 522l-348 522v-1044zM195 102h696l-348 523z" />
    <glyph glyph-name=".null" horiz-adv-x="0" 
 />
    <glyph glyph-name="nonmarkingreturn" horiz-adv-x="682" 
 />
    <glyph glyph-name="space" unicode=" " horiz-adv-x="509" 
 />
    <glyph glyph-name="exclam" unicode="!" horiz-adv-x="522" 
d="M123 1434h215v-1119h-215v1119zM225 236q59 0 95 -36t36 -94q0 -47 -37 -82.5t-94 -35.5q-50 0 -86.5 36t-36.5 82q0 57 35.5 93.5t87.5 36.5z" />
    <glyph glyph-name="quotedbl" unicode="&#x22;" horiz-adv-x="630" 
d="M45 1432h199v-508h-199v508zM332 1432h198v-508h-198v508z" />
    <glyph glyph-name="numbersign" unicode="#" horiz-adv-x="1159" 
d="M1065 1055l-4 -195h-182q-5 -34 -17.5 -108t-19.5 -119h155l-4 -193h-180l-68 -438h-188l66 438h-199l-72 -438h-190l67 438h-174l4 193h201q6 40 15.5 115t15.5 112h-170l4 195h197l61 397h195l-60 -397h199l61 397h189l-58 -397h156zM686 860h-199q-6 -41 -16.5 -116
t-15.5 -111h200q6 40 15.5 115t15.5 112z" />
    <glyph glyph-name="dollar" unicode="$" horiz-adv-x="1167" 
d="M440 1450v147h205v-147q72 -12 134.5 -38t116.5 -67.5t90 -105t46 -141.5l-203 -21q-15 64 -67 109.5t-117 54.5v-426q86 -3 160 -27t134.5 -69t95 -119t34.5 -170q0 -84 -23.5 -151.5t-62 -112.5t-95.5 -79t-114.5 -53t-128.5 -32v-125h-205v125q-158 27 -277.5 125.5
t-137.5 251.5v14l206 2l2 -2q15 -63 75.5 -119t131.5 -75v422q-80 -8 -152.5 17.5t-124 74.5t-85.5 117t-43 141t10 151.5t68 145.5q117 150 327 182zM645 608v-409q127 -4 188.5 103t9 211t-197.5 95zM274 1149h-2q-31 -49 -32 -106.5t22.5 -104.5t71 -78.5t106.5 -30.5
v414q-116 -28 -166 -94z" />
    <glyph glyph-name="percent" unicode="%" horiz-adv-x="1581" 
d="M705 1098q0 -144 -104 -245t-249 -101q-143 0 -246.5 101t-103.5 245q0 145 103 246.5t247 101.5q146 0 249.5 -101.5t103.5 -246.5zM1110 1417h236l-934 -1435h-234zM514 1098q0 71 -47 121.5t-115 50.5q-67 0 -113 -50.5t-46 -121.5t46 -120.5t113 -49.5
q69 0 115.5 49.5t46.5 120.5zM1544 336q0 -144 -103.5 -245t-248.5 -101t-247.5 101t-102.5 245q0 146 102.5 247t247.5 101t248.5 -101t103.5 -247zM1354 336q0 71 -47 121.5t-115 50.5q-67 0 -114.5 -50.5t-47.5 -121.5t47.5 -120.5t114.5 -49.5q69 0 115.5 49.5
t46.5 120.5z" />
    <glyph glyph-name="ampersand" unicode="&#x26;" horiz-adv-x="1312" 
d="M1337 82v-80h-213l-163 182q-84 -99 -180 -149.5t-224 -50.5q-94 0 -179.5 29t-151.5 81t-105 132t-39 175q0 59 18 112t44 91.5t68.5 78t78 65t86.5 57.5q-131 156 -131 297q0 157 112.5 251.5t268.5 94.5q140 0 244 -93t104 -235q0 -67 -20.5 -122.5t-60 -98.5
t-81 -73.5t-98.5 -61.5l233 -244l94 162l179 -92l-136 -230zM831 334l-317 332q-225 -136 -225 -260q0 -99 86.5 -160.5t197.5 -61.5q137 0 258 150zM621 1255q-67 0 -114.5 -43.5t-47.5 -105.5q0 -91 112 -215q40 22 69.5 42t62 49t50 63t17.5 71q0 60 -43 99.5t-106 39.5z
" />
    <glyph glyph-name="quotesingle" unicode="'" horiz-adv-x="366" 
d="M55 1434h199v-508h-199v508z" />
    <glyph glyph-name="parenleft" unicode="(" horiz-adv-x="731" 
d="M684 1509l-14 -22q-191 -121 -294.5 -329t-103.5 -443q0 -234 106 -446t306 -343v-235q-201 110 -343 275.5t-210 353.5t-68 387q0 197 67 384t209 356t345 286v-224z" />
    <glyph glyph-name="parenright" unicode=")" horiz-adv-x="759" 
d="M418 711q0 146 -50 296.5t-147.5 281.5t-224.5 208v234q187 -98 331 -262t221 -361t77 -397q0 -199 -77 -395.5t-221 -361t-331 -263.5v225q190 115 306 342.5t116 452.5z" />
    <glyph glyph-name="asterisk" unicode="*" horiz-adv-x="831" 
d="M764 1114l-244 -74l156 -204l-135 -99l-150 215l-147 -215l-135 99l151 204q-182 58 -240 74l50 156l239 -80q0 40 -1 127t-1 127h170l-4 -254q22 7 109.5 37t130.5 43z" />
    <glyph glyph-name="plus" unicode="+" horiz-adv-x="1118" 
d="M66 623v184h362v383h199v-383h370v-184h-370v-435h-199v435h-362z" />
    <glyph glyph-name="comma" unicode="," horiz-adv-x="497" 
d="M211 -205h-182l149 377h223z" />
    <glyph glyph-name="hyphen" unicode="-" horiz-adv-x="897" 
d="M143 551v170h553v-170h-553z" />
    <glyph glyph-name="period" unicode="." horiz-adv-x="428" 
d="M205 246q57 0 93 -35t36 -92q0 -48 -37 -86.5t-92 -38.5q-50 0 -86.5 39t-36.5 86q0 56 35.5 91.5t87.5 35.5z" />
    <glyph glyph-name="slash" unicode="/" horiz-adv-x="858" 
d="M807 1593l-588 -1726h-201l590 1726h199z" />
    <glyph glyph-name="zero" unicode="0" horiz-adv-x="1298" 
d="M618 1243q-111 0 -187.5 -74t-110 -190t-33.5 -264q0 -104 19.5 -196.5t58.5 -167.5t104 -119t149 -44t149.5 44t105.5 119t60.5 167.5t20.5 196.5q0 109 -20.5 203t-60.5 167.5t-105.5 115.5t-149.5 42zM618 -14q-107 0 -197.5 41t-153.5 110.5t-108 163t-66 198.5
t-21 216q0 112 21 217.5t66 199t108 164t153.5 111.5t197.5 41q106 0 196.5 -41t154.5 -111.5t109.5 -164t67 -199t21.5 -217.5q0 -111 -21.5 -216t-67 -198.5t-109.5 -163t-154.5 -110.5t-196.5 -41z" />
    <glyph glyph-name="one" unicode="1" horiz-adv-x="780" 
d="M602 0h-205v1065l-215 -283l-133 107l387 545h166v-1434z" />
    <glyph glyph-name="two" unicode="2" horiz-adv-x="1247" 
d="M301 981l-207 16q14 98 52 181t99 147t150.5 100.5t198.5 36.5q131 0 237 -45.5t169.5 -118.5t93 -167.5t18.5 -189.5t-66 -187t-149 -158l-463 -397h658v-199h-1006v160l674 594h-2q55 39 89 93t43.5 109t-5 109t-50 96t-98 68t-143.5 26q-127 0 -200 -74t-93 -200z" />
    <glyph glyph-name="three" unicode="3" horiz-adv-x="1222" 
d="M401 662v188h215q100 0 148.5 55.5t48.5 134.5q0 56 -23 98t-63 65.5t-86.5 34.5t-99.5 11q-86 0 -156.5 -46t-89.5 -126l-186 45q19 79 62 142t102 102t127.5 59.5t140.5 20.5q90 0 172 -23t151.5 -70t111 -127.5t42.5 -185.5q0 -92 -29 -159.5t-102 -116.5
q92 -54 139 -154.5t45 -212.5q-1 -80 -34.5 -154.5t-95.5 -136t-163 -98.5t-225 -37q-111 0 -200 30.5t-146 83.5t-91.5 118.5t-47.5 142.5l192 35q15 -93 90 -155t203 -62q82 0 146 22.5t101.5 60t57 81.5t19.5 90q0 40 -15 81.5t-45 78.5t-82.5 60.5t-118.5 23.5h-215z
" />
    <glyph glyph-name="four" unicode="4" horiz-adv-x="1249" 
d="M68 469l759 979h160v-924h117v-200h-117v-324h-205v324h-714v145zM338 520h448v570z" />
    <glyph glyph-name="five" unicode="5" horiz-adv-x="1247" 
d="M80 326l190 77q44 -91 120 -142.5t179 -51.5q151 0 234.5 86t81.5 205q0 78 -43.5 148t-122.5 104q-249 103 -504 -47l-117 53v690h914v-201h-705v-295q257 83 486 -8q145 -60 222 -179.5t79 -264.5q1 -95 -33 -183.5t-97.5 -160t-166 -114t-228.5 -42.5q-360 0 -489 326
z" />
    <glyph glyph-name="six" unicode="6" horiz-adv-x="1269" 
d="M596 778q-149 0 -232 -85t-83 -201q0 -55 20 -105t58 -90t99.5 -64t137.5 -24q151 0 233 83.5t82 199.5q0 117 -82.5 201.5t-232.5 84.5zM162 778l479 674h254l-363 -512q78 28 176.5 22t172.5 -47q115 -65 176 -179.5t61 -243.5q0 -94 -33.5 -181t-96.5 -157
t-164.5 -112t-227.5 -42q-125 0 -226.5 42t-165 112t-97 157t-33.5 181q0 152 88 286z" />
    <glyph glyph-name="seven" unicode="7" horiz-adv-x="1236" 
d="M106 1448h1010v-141l-706 -1307h-238l672 1245h-738v203z" />
    <glyph glyph-name="eight" unicode="8" horiz-adv-x="1255" 
d="M590 172q76 0 137.5 21.5t98.5 56t57 76t20 84.5q0 93 -82.5 163t-230.5 70q-146 0 -228.5 -70t-82.5 -163q0 -92 83 -165t228 -73zM590 1274q-98 0 -175 -60t-77 -157q0 -83 67 -153t185 -70q81 0 141 36t86.5 86t26.5 103q0 97 -78 156t-176 59zM1049 1053
q0 -54 -20 -112.5t-62.5 -112t-98.5 -78.5q118 -45 180 -139.5t62 -198.5q0 -82 -33.5 -158.5t-96 -138t-164 -98.5t-226.5 -37q-124 0 -224 35.5t-163 95.5t-96 137.5t-33 163.5q0 100 65.5 193.5t182.5 144.5q-55 22 -94.5 61.5t-59 84.5t-27.5 84t-8 75q1 98 41 176.5
t106.5 126.5t146 73t163.5 25q110 0 199.5 -34t145 -91.5t85 -128.5t29.5 -149z" />
    <glyph glyph-name="nine" unicode="9" horiz-adv-x="1261" 
d="M594 662q102 0 176 43t107.5 107t33.5 138q0 118 -83 202.5t-234 84.5t-234.5 -84.5t-83.5 -202.5q0 -74 34 -138t108 -107t176 -43zM1034 662l-471 -662h-256l352 500q-81 -30 -179.5 -24.5t-170.5 46.5q-117 67 -179 182.5t-62 245.5q0 76 20.5 148t64 135.5t104.5 111
t148 75.5t189 28q127 0 229.5 -42.5t166.5 -113t98 -158.5t34 -184q0 -150 -88 -288z" />
    <glyph glyph-name="colon" unicode=":" horiz-adv-x="346" 
d="M129 229q54 0 87.5 -32t33.5 -86q0 -45 -34.5 -81t-86.5 -36q-46 0 -80.5 36.5t-34.5 80.5q0 53 33 85.5t82 32.5zM129 844q54 0 87.5 -32.5t33.5 -86.5q0 -46 -34.5 -81.5t-86.5 -35.5q-46 0 -80.5 36t-34.5 81q0 53 33.5 86t81.5 33z" />
    <glyph glyph-name="semicolon" unicode=";" horiz-adv-x="331" 
d="M150 848q54 0 87 -32.5t33 -86.5q0 -46 -34 -81.5t-86 -35.5q-46 0 -80.5 36t-34.5 81q0 53 33.5 86t81.5 33zM-72 -260h185l178 377h-225z" />
    <glyph glyph-name="less" unicode="&#x3c;" horiz-adv-x="962" 
d="M868 1233v-227l-579 -287l579 -291v-217l-835 434v141z" />
    <glyph glyph-name="equal" unicode="=" horiz-adv-x="1036" 
d="M39 664v194h899v-194h-899zM39 319v195h899v-195h-899z" />
    <glyph glyph-name="greater" unicode="&#x3e;" horiz-adv-x="972" 
d="M43 983v229l838 -446v-141l-838 -435v224l580 286z" />
    <glyph glyph-name="question" unicode="?" horiz-adv-x="1122" 
d="M598 465l2 -166h-201v168q0 52 13.5 94t31.5 69t53 54t61 41.5t73 38.5q4 2 6.5 3.5t5.5 2.5h-2q29 16 46 26t40.5 29.5t36.5 39t23.5 49t11.5 65.5q3 103 -79 181.5t-222 78.5q-103 0 -187 -60.5t-135 -164.5l-160 94q71 151 193.5 243.5t288.5 92.5q121 0 221.5 -39
t165 -105t100 -150.5t33.5 -176.5q-2 -67 -19 -122.5t-43 -92.5t-63 -68.5t-71.5 -52.5t-76.5 -43q-11 -5 -16 -8q-79 -42 -99 -60q-32 -28 -32 -61zM498 238q60 0 97.5 -38t37.5 -98q0 -50 -38.5 -90.5t-96.5 -40.5q-52 0 -90.5 41t-38.5 90q0 59 37 97.5t92 38.5z" />
    <glyph glyph-name="at" unicode="@" horiz-adv-x="1626" 
d="M1227 1077q-65 83 -172.5 127.5t-231.5 44.5q-117 0 -216.5 -42t-169 -113.5t-115 -160.5t-64.5 -190q-32 -174 12.5 -306.5t168.5 -209.5t315 -77q94 0 215 47l84 -164q-165 -64 -299 -64q-132 0 -242.5 28.5t-190.5 81t-138.5 126.5t-86.5 164.5t-35 195.5t17 219
q23 126 83.5 241t152.5 206.5t223 146t282 54.5q143 0 270 -47t217 -127t142.5 -192.5t52.5 -238.5q0 -149 -42 -266.5t-112 -187t-153.5 -105t-173.5 -35.5q-124 0 -129 146q-42 -63 -103.5 -94t-125.5 -31q-103 0 -176 58.5t-99.5 155.5t-1.5 210q21 95 58.5 175.5
t93.5 145t136 101.5t175 37q59 0 118.5 -40.5t59.5 -103.5l47 78l148 -16l-150 -551v4l-2 -6q-1 -2 -2 -5q-23 -63 -9 -70q2 -1 5 -1q49 -1 95 30.5t79.5 84.5t53.5 123t22.5 141t-19.5 144t-67 128zM575 666q-8 -37 -9.5 -71.5t5.5 -72t34 -60t73 -22.5q71 0 135.5 60.5
t99.5 143.5t35 157q0 70 -27.5 109.5t-80.5 39.5q-54 1 -100 -22.5t-78 -65.5t-54 -91.5t-33 -104.5z" />
    <glyph glyph-name="A" unicode="A" horiz-adv-x="1298" 
d="M645 1122l-215 -565h430zM1073 0l-137 362h-582l-139 -362h-223l575 1452h152l575 -1452h-221z" />
    <glyph glyph-name="B" unicode="B" horiz-adv-x="1314" 
d="M381 1251v-389h387q46 0 83.5 21.5t57.5 56t30.5 76t2.5 82.5t-26.5 75.5t-56.5 56t-87 21.5h-391zM176 1448h596q89 0 165 -34.5t125 -89.5t74.5 -127t22.5 -144t-39 -143t-104 -122q78 -33 130 -93.5t72.5 -125.5t20.5 -137q0 -82 -27 -158.5t-77.5 -138t-131.5 -98.5
t-180 -37h-647v1448zM381 657v-456h442q98 0 153.5 68.5t55.5 160.5t-55.5 159.5t-153.5 67.5h-442z" />
    <glyph glyph-name="C" unicode="C" horiz-adv-x="1544" 
d="M80 713q0 148 54 280.5t149 233.5q97 100 230 159.5t275 59.5q245 0 425.5 -145.5t242.5 -389.5h-205q-56 159 -179 244.5t-284 85.5q-100 0 -196.5 -43.5t-165.5 -116.5q-145 -151 -145 -368q0 -106 37.5 -201t105.5 -166t164.5 -111t199.5 -40q165 0 293 90.5
t183 251.5h202q-62 -247 -246 -397t-432 -150q-144 0 -274 55.5t-225 155.5q-96 102 -152.5 235t-56.5 277z" />
    <glyph glyph-name="D" unicode="D" horiz-adv-x="1484" 
d="M383 207h307q120 0 217.5 43.5t158 115.5t92.5 162t32 187t-32 189t-92.5 167.5t-158 121.5t-217.5 46h-307v-1032zM176 1446h514q136 0 252.5 -41.5t198.5 -112.5t140 -165t86 -198.5t28 -213.5q0 -137 -45 -263t-130.5 -228t-222.5 -163t-307 -61h-514v1446z" />
    <glyph glyph-name="E" unicode="E" horiz-adv-x="1142" 
d="M385 629v-422h666v-207h-875v1448h873v-207h-664v-403h649v-209h-649z" />
    <glyph glyph-name="F" unicode="F" horiz-adv-x="1075" 
d="M383 629v-629h-207v1446h854v-201h-647v-424h573v-192h-573z" />
    <glyph glyph-name="G" unicode="G" horiz-adv-x="1619" 
d="M1501 930h-225q-21 85 -71.5 148.5t-117.5 98.5t-137.5 51.5t-144.5 16.5q-142 0 -258 -68t-183 -189.5t-67 -272.5q0 -231 146 -384t362 -153q93 0 179.5 32.5t162.5 104t117 174.5h-541v211h788q-16 -192 -41 -254v3q-74 -205 -267.5 -339.5t-397.5 -134.5
q-203 0 -367 94.5t-258 264t-94 381.5q0 159 56 297.5t152 235.5t229 152.5t282 55.5q88 0 173 -17t170.5 -56.5t155 -98.5t122 -150t75.5 -204z" />
    <glyph glyph-name="H" unicode="H" horiz-adv-x="1374" 
d="M383 1446v-582h606v582h209v-1446h-209v659h-606v-659h-207v1446h207z" />
    <glyph glyph-name="I" unicode="I" horiz-adv-x="1089" 
d="M915 1446v-191h-266v-1062h266v-193h-739v193h266v1062h-266v191h739z" />
    <glyph glyph-name="J" unicode="J" horiz-adv-x="931" 
d="M774 1444v-823q0 -163 -41.5 -281t-131 -199.5t-235 -118.5t-350.5 -30v194q156 -8 265 17.5t171 85t88.5 140t26.5 192.5v634h-387v189h594z" />
    <glyph glyph-name="K" unicode="K" horiz-adv-x="1220" 
d="M176 1434h205v-1434h-205v1434zM420 664v104l500 666h256l-547 -713l604 -721h-266z" />
    <glyph glyph-name="L" unicode="L" horiz-adv-x="1067" 
d="M383 1434v-1227h674v-207h-881v1434h207z" />
    <glyph glyph-name="M" unicode="M" horiz-adv-x="1628" 
d="M383 1010v-1010h-207v1434h168l473 -697l473 697h164v-1434h-205v1010l-375 -557h-116z" />
    <glyph glyph-name="N" unicode="N" horiz-adv-x="1415" 
d="M383 0h-207v1434h160l698 -1010v1010h205v-1434h-164l-692 1001v-1001z" />
    <glyph glyph-name="O" unicode="O" horiz-adv-x="1646" 
d="M285 717q0 -145 70.5 -267.5t192.5 -193t267 -70.5q109 0 207.5 42t170 112.5t113.5 169t42 207.5q0 145 -71 267.5t-194 193.5t-268 71t-267 -71t-192.5 -193.5t-70.5 -267.5zM72 717q0 153 58.5 291t157.5 237.5t236.5 158t290.5 58.5t291 -58.5t237.5 -158
t158.5 -237.5t59 -291t-59 -290.5t-158.5 -237t-237.5 -158t-291 -58.5t-290.5 58.5t-236.5 158t-157.5 237t-58.5 290.5z" />
    <glyph glyph-name="P" unicode="P" horiz-adv-x="1216" 
d="M176 1434h524q112 0 202.5 -41t146.5 -109.5t86 -153t30 -176.5t-30 -176t-86 -152t-146.5 -108.5t-202.5 -40.5h-315v-477h-209v1434zM385 682h315q123 0 192 80t69 190q0 111 -69 192t-192 81h-315v-543z" />
    <glyph glyph-name="Q" unicode="Q" horiz-adv-x="1550" 
d="M745 618v-32v32zM745 586v32h250l244 -221q47 64 72.5 148.5t25.5 171.5q0 106 -41 201.5t-112 168.5q-72 73 -168 114.5t-201 41.5q-104 0 -200 -41.5t-169 -114.5q-71 -73 -112 -168.5t-41 -201.5t41 -203.5t112 -169.5q134 -134 315 -156t345 76zM1622 45v-45h-225
l-129 121q-240 -157 -519.5 -133.5t-449.5 211.5q-213 233 -213 518q0 148 56.5 281.5t156.5 236.5q100 102 234 159.5t282 57.5q149 0 282.5 -57.5t235.5 -159.5q100 -103 156.5 -236.5t56.5 -281.5q0 -247 -155 -449z" />
    <glyph glyph-name="R" unicode="R" horiz-adv-x="1220" 
d="M457 629v98h241q123 0 191.5 74t68.5 176q0 47 -16.5 93.5t-47.5 85.5t-82 63t-114 24h-317v-1243h-205v1452h522q112 0 203.5 -42t147.5 -111t86 -152t30 -170q0 -104 -40 -194t-125.5 -156.5t-204.5 -87.5l452 -539h-268z" />
    <glyph glyph-name="S" unicode="S" horiz-adv-x="1218" 
d="M1098 1071l-205 -8q-14 61 -61 104t-106.5 61t-125.5 17q-78 -2 -149 -29t-111 -79q-42 -53 -35 -133q2 -36 16 -63.5t40 -46t52 -31t68 -20.5t72 -12t78 -8q57 -7 102 -15.5t101 -23.5t99 -37.5t83.5 -53t68.5 -75.5t41 -100q11 -57 11 -94q0 -100 -47 -184t-123 -138
t-170.5 -84t-192.5 -30q-67 0 -135.5 15.5t-133.5 47.5t-117 77t-87 109t-43 138l-2 39l209 4l2 -31v8q10 -93 104.5 -147.5t204.5 -54.5q124 0 223 64.5t99 168.5q0 22 -6 49q-6 26 -21.5 47t-41 35t-50.5 24t-64 17t-67 10.5t-72 7.5q-56 6 -98 12t-95.5 19t-93.5 30.5
t-81 45.5t-68.5 63.5t-47 87t-24.5 113.5v-2q-13 153 78 272q70 91 187.5 141t246.5 50q85 0 164.5 -22.5t148 -67t115.5 -118.5t60 -169z" />
    <glyph glyph-name="T" unicode="T" horiz-adv-x="1099" 
d="M653 0h-207v1251h-434v197h1073v-197h-432v-1251z" />
    <glyph glyph-name="U" unicode="U" horiz-adv-x="1374" 
d="M688 -14q-97 0 -189.5 29t-169.5 82.5t-124 140t-47 192.5v1018h209v-1020q0 -75 49.5 -130t120.5 -80t151 -25q79 0 150 25.5t120.5 81t49.5 130.5v1018h209v-1020q0 -105 -47.5 -191t-125 -139.5t-170 -82.5t-186.5 -29z" />
    <glyph glyph-name="V" unicode="V" horiz-adv-x="1296" 
d="M655 360l437 1088h221l-582 -1452h-151l-582 1452h225z" />
    <glyph glyph-name="W" unicode="W" horiz-adv-x="1748" 
d="M1130 -8l-251 690q-34 -97 -120.5 -334t-127.5 -356h-146l-487 1456h215l348 -1051l236 670h166l233 -668q309 935 346 1049h217l-483 -1456h-146z" />
    <glyph glyph-name="X" unicode="X" horiz-adv-x="1337" 
d="M16 1448h254l398 -541l403 541h252l-530 -719l518 -729h-252l-391 563l-389 -563h-254l518 729z" />
    <glyph glyph-name="Y" unicode="Y" horiz-adv-x="1234" 
d="M-31 1460h244l403 -657l408 657h246l-549 -876v-584h-209v584z" />
    <glyph glyph-name="Z" unicode="Z" horiz-adv-x="1212" 
d="M1120 1448v-162l-798 -1102h808v-184h-1048v170l795 1094h-795v184h1038z" />
    <glyph glyph-name="bracketleft" unicode="[" horiz-adv-x="555" 
d="M504 1636v-176h-170q0 -238 -1 -741.5t-1 -741.5h170v-170h-377l2 1829h377z" />
    <glyph glyph-name="backslash" unicode="\" horiz-adv-x="862" 
d="M582 -129l-578 1702h213l580 -1702h-215z" />
    <glyph glyph-name="bracketright" unicode="]" horiz-adv-x="585" 
d="M16 1454v178h377l2 -1829h-377v177h170q0 239 -1 737.5t-1 736.5h-170z" />
    <glyph glyph-name="asciicircum" unicode="^" horiz-adv-x="1107" 
d="M18 662l426 778h136l424 -778h-226l-268 505l-270 -505h-222z" />
    <glyph glyph-name="underscore" unicode="_" horiz-adv-x="1163" 
d="M29 0h1046v-180h-1046v180z" />
    <glyph glyph-name="grave" unicode="`" horiz-adv-x="544" 
d="M426 1257h-178l-215 220h262z" />
    <glyph glyph-name="a" unicode="a" horiz-adv-x="1437" 
d="M1104 1108h201v-1108h-201v150q-38 -57 -108 -96t-141.5 -55t-145.5 -17q-141 0 -256 47t-188 127.5t-112.5 183.5t-39.5 219q0 113 40.5 215t114 180.5t187 125t250.5 46.5q279 0 401 -165zM1104 555q0 96 -36.5 173.5t-95.5 125t-129.5 72.5t-142.5 24
q-177 -3 -282 -113.5t-105 -277.5q0 -168 110.5 -285.5t293.5 -113.5q70 2 137.5 27.5t124 73t91 124t34.5 170.5z" />
    <glyph glyph-name="b" unicode="b" horiz-adv-x="1394" 
d="M360 1434v-469q118 161 373 161q136 0 246.5 -46.5t180 -125.5t106.5 -180t37 -215q0 -117 -36 -219.5t-105 -183t-180.5 -127.5t-252.5 -47q-114 2 -213.5 42.5t-155.5 125.5v-150h-200v1434h200zM360 555q0 -94 30.5 -170t82 -124t115 -73.5t133.5 -27.5
q92 -2 166.5 31t120.5 90t70.5 128.5t23.5 149.5q-1 75 -24.5 143t-67.5 123.5t-114.5 89.5t-158.5 35q-72 1 -138.5 -24t-120.5 -72.5t-86 -125t-32 -173.5z" />
    <glyph glyph-name="c" unicode="c" horiz-adv-x="1341" 
d="M1032 422h207q-26 -141 -112.5 -242t-200 -148t-242.5 -48q-111 -2 -213 34t-185 105t-132.5 181t-49.5 251t49 250t131 180t183.5 105t212.5 36q96 0 186 -28t167 -81t131.5 -138.5t74.5 -192.5h-207q-35 126 -132.5 194t-217.5 68q-71 0 -137.5 -25t-120.5 -72
t-86.5 -124t-32.5 -172q0 -96 32 -173.5t86.5 -124.5t121 -72t139.5 -25q120 0 216.5 67.5t131.5 194.5z" />
    <glyph glyph-name="d" unicode="d" horiz-adv-x="1400" 
d="M1042 965v469h201v-1434h-201v150q-56 -85 -155.5 -125.5t-214.5 -42.5q-142 0 -255 43.5t-185.5 121.5t-111 182.5t-38.5 229.5q0 119 39.5 222.5t113 180t186 120.5t249.5 44q254 0 372 -161zM1042 555q0 96 -32 173.5t-85.5 125t-120 72.5t-138.5 24
q-88 -1 -161.5 -35t-120.5 -89t-73.5 -124t-27.5 -143q-2 -180 104.5 -291.5t292.5 -107.5q70 2 134 27.5t115.5 73.5t82 124t30.5 170z" />
    <glyph glyph-name="e" unicode="e" horiz-adv-x="1351" 
d="M1241 602q6 -48 -4 -96h-938q0 -103 59.5 -185t143.5 -122.5t170 -40.5q107 0 194 46.5t135 137.5h207q-41 -117 -126 -200.5t-190.5 -122.5t-221.5 -39q-109 0 -210 37t-182.5 106t-130.5 180.5t-49 249.5t48.5 249t130 180t183.5 105.5t214 36.5q105 0 201.5 -33.5
t176 -96.5t130.5 -164.5t59 -227.5zM307 672h723q-14 72 -49 126.5t-84 86.5t-105 47.5t-118 15.5q-63 0 -120.5 -16t-108 -48t-87 -86.5t-51.5 -125.5z" />
    <glyph glyph-name="f" unicode="f" horiz-adv-x="718" 
d="M436 942v-942h-200v942h-170v174h170q0 195 112.5 274.5t337.5 61.5v-168q-54 7 -99.5 3t-79 -19.5t-52.5 -53.5t-19 -98h226v-174h-226z" />
    <glyph glyph-name="g" unicode="g" 
d="M1264 41q0 -100 -33 -181.5t-88.5 -135.5t-130 -91t-154 -53t-164.5 -16q-108 0 -202.5 21.5t-170.5 64.5t-120.5 114t-44.5 162h198q0 -50 32 -88t83.5 -58t108 -29.5t114.5 -8.5q69 1 132.5 18.5t118.5 51.5t87.5 93.5t32.5 135.5v117q-118 -156 -373 -156
q-136 0 -248.5 43.5t-186 118.5t-113.5 174.5t-40 212.5q0 116 39 219t111.5 183.5t186.5 127t255 45.5q112 0 212.5 -40.5t158.5 -124.5v147h199v-1067zM688 178q120 0 207 59t127.5 149t40.5 196q0 75 -23 140t-67 115.5t-113.5 80.5t-157.5 32q-122 3 -215 -56
t-138.5 -149.5t-45.5 -193.5q2 -154 106 -263.5t279 -109.5z" />
    <glyph glyph-name="h" unicode="h" horiz-adv-x="1327" 
d="M346 1434v-463q60 84 143.5 118.5t196.5 34.5q245 0 364 -140t119 -388v-596h-200v594q0 83 -12.5 142.5t-43 108.5t-89 74.5t-144.5 26.5q-156 3 -245 -94.5t-89 -249.5v-602h-199v1434h199z" />
    <glyph glyph-name="i" unicode="i" horiz-adv-x="550" 
d="M367 0v1120h-201v-1120h201zM141 1393q0 54 39 85t86 31.5t86 -30.5t39 -86q0 -32 -14 -57.5t-36 -38.5t-48.5 -19t-53 0t-48.5 19t-36 38.5t-14 57.5z" />
    <glyph glyph-name="j" unicode="j" horiz-adv-x="538" 
d="M156 1399q0 54 39 85t86 31.5t86 -30.5t39 -86q0 -32 -14 -57.5t-36 -38.5t-48.5 -19t-53 0t-48.5 19t-36 38.5t-14 57.5zM180 1120v-1110q0 -199 -250 -176v-176q102 -11 183 3t142 56t93.5 119t32.5 187v1097h-201z" />
    <glyph glyph-name="k" unicode="k" horiz-adv-x="1140" 
d="M365 1434v-856l170 202l307 328h241l-446 -477l475 -613v-18h-231l-373 492l-143 -154v-338h-201v1434h201z" />
    <glyph glyph-name="l" unicode="l" horiz-adv-x="507" 
d="M354 1434v-1434h-200v1434h200z" />
    <glyph glyph-name="m" unicode="m" horiz-adv-x="2017" 
d="M180 1126h201v-155q106 155 311 155q131 0 225.5 -41.5t151.5 -150.5q51 92 141.5 141t212.5 51q111 0 196.5 -37.5t138 -105t78.5 -156t26 -196.5v-631h-201v629q0 51 -5.5 92.5t-20.5 83.5t-40 70.5t-67 46.5t-98 18q-143 0 -219 -87t-76 -228v-625h-201v623
q0 62 -12.5 116t-40 100.5t-76.5 73.5t-115 27q-136 0 -222.5 -90t-86.5 -248v-602h-201v1126z" />
    <glyph glyph-name="n" unicode="n" horiz-adv-x="1327" 
d="M154 1108h200v-137q58 84 142.5 118.5t197.5 34.5q245 0 363.5 -140t118.5 -388v-596h-199v594q0 83 -12.5 142.5t-43 108.5t-89 74.5t-144.5 26.5q-156 3 -245 -94.5t-89 -249.5v-602h-200v1108z" />
    <glyph glyph-name="o" unicode="o" 
d="M1300 553q0 -112 -33.5 -206.5t-91 -161t-134.5 -113.5t-163 -69.5t-178 -22.5q-90 0 -175.5 22.5t-161.5 70t-133 114t-90.5 161t-33.5 205.5q0 112 33.5 206.5t91 161t134.5 113.5t163.5 69.5t178.5 22.5q91 0 176.5 -22.5t161.5 -70t132.5 -114t89.5 -161t33 -205.5z
M307 553q0 -94 33.5 -170t89.5 -123.5t125.5 -73t144.5 -26.5q77 -1 148 24t128 72.5t91.5 124.5t34.5 172t-34 172t-90 124.5t-126 73t-145 25.5q-77 0 -147.5 -25t-127.5 -72.5t-91 -125t-34 -172.5z" />
    <glyph glyph-name="p" unicode="p" horiz-adv-x="1411" 
d="M352 145v-469h-200v1432h200v-147q56 84 156.5 124.5t214.5 40.5q113 1 208 -29.5t161.5 -84t113 -126.5t68.5 -157.5t22 -177.5q0 -114 -37 -216t-107 -181t-180.5 -125.5t-246.5 -46.5q-251 0 -373 163zM352 555q0 -96 32 -173.5t86 -125t120.5 -72.5t138.5 -24
q88 1 159 35t115.5 89t68.5 124t24 143q1 78 -23.5 149.5t-70.5 128.5t-120.5 90t-166.5 31q-70 -2 -134 -28t-115.5 -73.5t-82.5 -124t-31 -169.5z" />
    <glyph glyph-name="q" unicode="q" horiz-adv-x="1415" 
d="M1059 -324v469q-119 -163 -373 -163q-137 0 -251 46.5t-189 125t-116.5 181.5t-41.5 216q0 115 40 218.5t114 183.5t189.5 127t256.5 46q114 0 214.5 -40.5t156.5 -124.5v147h201v-1432h-201zM1059 555q0 93 -31 169.5t-82.5 124t-115.5 73.5t-134 28q-92 2 -170.5 -31.5
t-129.5 -90t-79.5 -128.5t-27.5 -149q2 -154 110.5 -271t282.5 -120q72 -1 138.5 24t120.5 72.5t86 125t32 173.5z" />
    <glyph glyph-name="r" unicode="r" horiz-adv-x="860" 
d="M154 1106h198v-135q52 73 123.5 113t151.5 44.5t170 -14.5v-176q-111 33 -214.5 -3t-167 -127t-63.5 -208v-600h-198v1106z" />
    <glyph glyph-name="s" unicode="s" horiz-adv-x="1067" 
d="M293 788q0 -20 5 -37.5t12 -30t20.5 -23t24.5 -17.5t31 -12.5t31.5 -8.5t35 -5.5t33.5 -3t34 -2t31 -1.5q446 -30 446 -332q0 -74 -28.5 -133t-74 -96t-107 -61t-123.5 -33.5t-129 -9.5q-90 0 -167 19.5t-141.5 60.5t-104 112t-44.5 166h201q6 -90 81 -138t185 -46
q42 1 82 8.5t80.5 24.5t65 50t24.5 78q1 44 -26 75t-73 46t-85.5 21t-84.5 8q-65 3 -122 12t-116 31.5t-101 56.5t-68.5 89.5t-26.5 127.5q0 74 25.5 134t68 99t100.5 65t120 37t129 11q85 0 158 -19t132.5 -56.5t96 -101.5t41.5 -148h-199q-7 70 -73.5 107.5t-162.5 37.5
q-101 0 -169 -40.5t-68 -121.5z" />
    <glyph glyph-name="t" unicode="t" horiz-adv-x="704" 
d="M215 1315l201 39v-246h243v-160h-243v-624q0 -60 18.5 -96.5t51.5 -50t79 -16t101 4.5v-168q-81 -5 -150 -2t-124.5 24t-95 58t-60.5 99.5t-21 148.5v622h-166v160h166v207z" />
    <glyph glyph-name="u" unicode="u" horiz-adv-x="1318" 
d="M1161 0h-190v145q-109 -161 -350 -161q-124 0 -217 37.5t-150.5 108t-86 166t-28.5 216.5v606h201v-606q0 -83 12 -142t42.5 -107.5t88.5 -74t144 -26.5q158 -3 246 94t88 250v612h200v-1118z" />
    <glyph glyph-name="v" unicode="v" horiz-adv-x="1124" 
d="M561 268l135 385l181 455h213l-449 -1116h-160l-450 1116h213l182 -451z" />
    <glyph glyph-name="w" unicode="w" horiz-adv-x="1605" 
d="M57 1108h211l92 -303l134 -475l221 778h178l223 -778l131 475l94 303h211l-362 -1116h-154l-135 434l-96 334l-96 -334l-138 -434h-151z" />
    <glyph glyph-name="x" unicode="x" horiz-adv-x="1079" 
d="M55 1108v16h209l277 -397l276 397h215v-6l-383 -551l375 -563v-6h-213l-270 418l-269 -418h-209v12l369 557z" />
    <glyph glyph-name="y" unicode="y" horiz-adv-x="1150" 
d="M580 270l129 361l190 493h213l-582 -1466h-213l156 399l-432 1067h213l201 -491z" />
    <glyph glyph-name="z" unicode="z" horiz-adv-x="960" 
d="M72 938v176h827v-139l-614 -801h608v-88v-86h-846v158l606 780h-581z" />
    <glyph glyph-name="braceleft" unicode="{" horiz-adv-x="614" 
d="M528 1647v-181h-51q-52 2 -72 -10.5t-20 -66.5v-388q0 -211 -96 -294q96 -80 96 -293v-377q0 -55 20.5 -68.5t71.5 -11.5h51v-180h-102q-113 0 -175.5 67.5t-62.5 180.5v352q0 237 -131 237v187q131 0 131 237v359q0 115 62 182.5t176 67.5h102z" />
    <glyph glyph-name="bar" unicode="|" horiz-adv-x="540" 
d="M133 -313v1912h199v-1912h-199z" />
    <glyph glyph-name="braceright" unicode="}" horiz-adv-x="610" 
d="M25 1462v180h104q112 0 174 -67.5t62 -181.5v-355q0 -237 133 -237v-187q-37 0 -64 -20t-41.5 -54.5t-21 -74.5t-6.5 -88v-334q0 -113 -62 -180.5t-174 -67.5h-104v180h51q51 -2 71.5 11.5t20.5 68.5v359q0 213 96 293q-96 83 -96 294v383q0 54 -20.5 67t-71.5 11h-51z
" />
    <glyph glyph-name="asciitilde" unicode="~" horiz-adv-x="1077" 
d="M901 811l115 -109q-129 -219 -326 -200q-114 12 -223 96q-66 54 -122 62.5t-105 -23t-103 -105.5l-112 115q148 227 335 209q106 -9 236 -111q60 -49 108.5 -55.5t92 22t104.5 99.5z" />
    <glyph glyph-name="uni00A0" unicode="&#xa0;" horiz-adv-x="526" 
 />
    <glyph glyph-name="exclamdown" unicode="&#xa1;" horiz-adv-x="507" 
d="M96 -401h215v1118h-215v-1118zM209 797q-59 0 -95 35.5t-36 93.5q0 47 37 82.5t94 35.5q50 0 86.5 -36t36.5 -82q0 -57 -35.5 -93t-87.5 -36z" />
    <glyph glyph-name="cent" unicode="&#xa2;" horiz-adv-x="1495" 
d="M635 1434v188h194v-190q209 -28 360 -166.5t206 -354.5h-205q-46 131 -140.5 211.5t-220.5 102.5v-1022q130 25 229 112.5t144 221.5h203q-56 -221 -209.5 -365.5t-366.5 -173.5v-205h-194v203q-238 30 -404 207q-95 101 -149.5 233t-54.5 277q0 148 54.5 280t149.5 234
q164 172 404 207zM375 1081q-148 -155 -148 -368q0 -210 148 -365q109 -115 260 -145v1022q-149 -30 -260 -144z" />
    <glyph glyph-name="sterling" unicode="&#xa3;" horiz-adv-x="1150" 
d="M1049 1079h-195q0 112 -97 167q-87 50 -196 28q-115 -24 -170 -114q-32 -53 -35 -120v-231h435v-168h-435v-461h688v-180h-1007v147l113 31v463h-117v168h117v231q0 157 92.5 264t224.5 132.5t264.5 4t225 -120t92.5 -241.5z" />
    <glyph glyph-name="yen" unicode="&#xa5;" horiz-adv-x="1277" 
d="M193 330v168h303v100l-7 10h-296v168h190l-418 656h244l391 -633l391 633h246l-422 -656h193v-168h-297l-6 -10v-100h303v-168h-303v-330h-209v330h-303z" />
    <glyph glyph-name="brokenbar" unicode="&#xa6;" horiz-adv-x="430" 
d="M90 -272v829h203v-829h-203zM293 1591v-874h-203v874h203z" />
    <glyph glyph-name="section" unicode="&#xa7;" horiz-adv-x="1019" 
d="M483 604q58 -7 133 -33q70 36 70 115q-1 30 -22 55.5t-54.5 41.5t-66.5 25.5t-68 14.5q-47 8 -117 27q-74 -41 -71 -119q0 -30 18 -52.5t52.5 -37t60.5 -22t65 -15.5zM78 731q0 59 33.5 110.5t91.5 82.5q-90 74 -90 198q0 74 34.5 135.5t91.5 101t130 61.5t151 22
q93 0 186 -33t164 -100l-125 -140q-64 51 -118 72t-113 23q-76 2 -132.5 -36.5t-55.5 -105.5q0 -91 194 -121q373 -69 373 -315q0 -141 -127 -190q94 -81 94 -203q0 -64 -26 -118t-68.5 -90t-98 -61t-112.5 -36t-113 -11q-121 0 -225.5 46t-175.5 135l139 127
q120 -133 262 -133q78 -2 140 35t61 106q0 38 -35.5 68t-78 44.5t-91.5 22.5q-360 57 -360 303z" />
    <glyph glyph-name="dieresis" unicode="&#xa8;" horiz-adv-x="782" 
d="M176 1753q52 0 84.5 -32t32.5 -83q0 -43 -33.5 -77.5t-83.5 -34.5q-45 0 -77.5 35t-32.5 77q0 50 32 82.5t78 32.5zM565 1753q52 0 84.5 -32t32.5 -83q0 -43 -33.5 -77.5t-83.5 -34.5q-45 0 -77.5 35t-32.5 77q0 50 32 82.5t78 32.5z" />
    <glyph glyph-name="copyright" unicode="&#xa9;" horiz-adv-x="1660" 
d="M61 709q0 153 57.5 291.5t155.5 238.5t233.5 158.5t285.5 58.5q202 0 371.5 -99.5t267.5 -271t98 -376.5q0 -153 -58 -291.5t-156.5 -238t-235 -158t-287.5 -58.5q-150 0 -285.5 58.5t-233.5 158t-155.5 238t-57.5 291.5zM270 709q0 -154 68.5 -282t189 -201.5
t265.5 -73.5q147 0 269 73.5t191.5 201.5t69.5 282t-69.5 282t-191.5 201.5t-269 73.5q-145 0 -265.5 -73.5t-189 -201.5t-68.5 -282zM397 707q0 -175 117 -294.5t289 -119.5q143 0 248.5 94t144.5 248h-164q-29 -88 -89.5 -136t-139.5 -48q-103 0 -173.5 68t-70.5 188
q0 111 69.5 185.5t174.5 74.5q162 0 223 -174h166q-38 153 -142.5 242t-246.5 89q-169 0 -287.5 -118t-118.5 -299z" />
    <glyph glyph-name="ordfeminine" unicode="&#xaa;" horiz-adv-x="1320" 
d="M633 1122l-180 -506h356zM1061 0l-172 422h-514q-125 -298 -172 -422h-223l575 1452h152l575 -1452h-221zM-18 -252v174h1300v-174h-1300z" />
    <glyph glyph-name="guillemotleft" unicode="&#xab;" horiz-adv-x="1013" 
d="M367 662l340 425h231l-338 -425q50 -64 168 -210.5t170 -213.5h-231zM362 238l-339 424l339 425h232l-338 -425q50 -64 168 -210.5t170 -213.5h-232z" />
    <glyph glyph-name="logicalnot" unicode="&#xac;" horiz-adv-x="1155" 
d="M37 676v186h987v-565h-193v379h-794z" />
    <glyph glyph-name="uni00AD" unicode="&#xad;" horiz-adv-x="790" 
d="M53 584v202h623v-202h-623z" />
    <glyph glyph-name="registered" unicode="&#xae;" horiz-adv-x="1617" 
d="M45 713q0 153 57.5 291.5t154.5 238.5t231.5 158.5t283.5 58.5q201 0 369.5 -99.5t266 -271t97.5 -376.5q0 -153 -57.5 -292t-155.5 -238.5t-234 -158.5t-286 -59q-149 0 -283.5 59t-231.5 158.5t-154.5 238.5t-57.5 292zM252 709q0 -154 68.5 -282t188.5 -201.5
t265 -73.5q147 0 269 73.5t192 201.5t70 282t-70 282t-192 201.5t-269 73.5q-145 0 -265 -73.5t-188.5 -201.5t-68.5 -282zM668 963v-695h-170v860h321q139 0 217 -84t78 -198q0 -91 -49 -162.5t-145 -99.5l198 -236l-147 -92l-271 338v135h119q58 0 90.5 35t32.5 82
t-32.5 82t-90.5 35h-151z" />
    <glyph glyph-name="macron" unicode="&#xaf;" horiz-adv-x="700" 
d="M55 1436v174h549v-174h-549z" />
    <glyph glyph-name="degree" unicode="&#xb0;" horiz-adv-x="731" 
d="M330 899q-118 0 -201.5 81.5t-83.5 197.5q0 113 83.5 194.5t201.5 81.5q119 0 203.5 -81.5t84.5 -194.5q0 -116 -84 -197.5t-204 -81.5zM330 1055q51 0 85 36t34 87q0 52 -34 87t-85 35q-50 0 -83.5 -35t-33.5 -87q0 -51 34 -87t83 -36z" />
    <glyph glyph-name="plusminus" unicode="&#xb1;" horiz-adv-x="1153" 
d="M25 186h1026v-186h-1026v186zM47 682v195h412v401h203v-401h393v-195h-393v-406h-203v406h-412z" />
    <glyph glyph-name="twosuperior" unicode="&#xb2;" horiz-adv-x="796" 
d="M201 1192l-170 6q0 136 91.5 225.5t239.5 89.5q158 0 249 -85t91 -207q0 -70 -36.5 -137t-106.5 -117h2l-155 -123l-82 -64h381v-159h-678v124l411 340q40 27 61 64.5t21 75.5q0 55 -41.5 91t-116.5 36q-72 0 -116.5 -42t-44.5 -118z" />
    <glyph glyph-name="threesuperior" unicode="&#xb3;" horiz-adv-x="839" 
d="M246 995v144h137q76 0 111 57q32 52 5 103q-36 67 -145 69q-49 0 -89 -30.5t-50 -84.5l-172 15q14 124 107 192t204 68q63 0 123 -16.5t109.5 -48.5t80 -85.5t31.5 -120.5q0 -53 -28 -101.5t-80 -76.5q81 -36 112 -86.5t29 -120.5q-2 -113 -97.5 -195.5t-268.5 -82.5
q-157 0 -238.5 73t-97.5 195l172 31q7 -41 30 -71t53.5 -44.5t66 -20.5t70 2t62.5 22.5t45.5 40t18.5 55.5q2 47 -35.5 82.5t-110.5 35.5h-155z" />
    <glyph glyph-name="acute" unicode="&#xb4;" horiz-adv-x="557" 
d="M246 1315h-178l147 219h262z" />
    <glyph glyph-name="_181" unicode="&#xb5;" horiz-adv-x="1474" 
d="M272 1010v-1010h-206v1434h167l474 -697l473 697h163v-1434h-204v1010l-375 -557h-117z" />
    <glyph glyph-name="paragraph" unicode="&#xb6;" horiz-adv-x="1277" 
d="M457 -158v703q-188 24 -300 150t-112 284q0 86 31 165t89.5 143t153.5 102t213 38h588v-1585h-202v1409h-256v-1409h-205z" />
    <glyph glyph-name="periodcentered" unicode="&#xb7;" horiz-adv-x="462" 
d="M190 838q57 0 93 -35t36 -92q0 -48 -37 -86.5t-92 -38.5q-50 0 -86 39t-36 86q0 56 35 91.5t87 35.5z" />
    <glyph glyph-name="cedilla" unicode="&#xb8;" horiz-adv-x="618" 
d="M213 68h154l-35 -88q93 -6 143.5 -62.5t42.5 -130.5q-6 -58 -41 -104.5t-84.5 -73t-109.5 -34t-115.5 5t-102 51.5t-69.5 100l129 61q29 -39 67 -54.5t69.5 -9.5t55.5 24t29 40q4 14 -0.5 28.5t-18.5 28.5t-39.5 23t-63.5 12.5t-91 -2.5z" />
    <glyph glyph-name="onesuperior" unicode="&#xb9;" horiz-adv-x="579" 
d="M438 664h-196v573l-88 -102l-125 118l243 285h166v-874z" />
    <glyph glyph-name="ordmasculine" unicode="&#xba;" horiz-adv-x="831" 
d="M393 762q-153 0 -254.5 97t-101.5 249q0 145 102 241.5t252 96.5t253.5 -96.5t103.5 -241.5q0 -152 -102.5 -249t-252.5 -97zM393 922q70 0 119 52.5t49 133.5q0 77 -49 127.5t-119 50.5q-73 0 -122.5 -50.5t-49.5 -127.5q0 -81 49.5 -133.5t122.5 -52.5zM49 492v182h680
v-182h-680z" />
    <glyph glyph-name="guillemotright" unicode="&#xbb;" horiz-adv-x="1024" 
d="M377 272l340 424l-340 426h231l340 -426l-340 -424h-231zM25 272l340 424l-355 426h246l338 -426l-338 -424h-231z" />
    <glyph glyph-name="onequarter" unicode="&#xbc;" horiz-adv-x="1732" 
d="M483 -63h-227l801 1642h239zM258 664h197v874h-174l-244 -285l125 -108l96 102v-583zM1516 328v604h-189l-504 -670l95 -112h407v-150h191v150h83v178h-83zM1319 328h-234l240 321z" />
    <glyph glyph-name="onehalf" unicode="&#xbd;" horiz-adv-x="1773" 
d="M453 -63h-228l832 1642h239zM258 664h188v874h-165l-244 -285l125 -106l96 102v-585zM958 575l181 -6q3 102 88 137q70 29 145 -2q69 -28 80 -84q2 -9 2 -18q0 -84 -82 -139l-411 -340v-125h677v160h-381l82 63l156 123h-2q70 50 106.5 117t36.5 137q0 122 -91.5 207.5
t-248.5 85.5q-149 0 -243.5 -90.5t-94.5 -225.5z" />
    <glyph glyph-name="threequarters" unicode="&#xbe;" horiz-adv-x="1964" 
d="M713 -63h-228l811 1642h240zM1745 328v604h-189l-503 -670l94 -112h407v-150h191v150h84v178h-84zM1548 328h-233l239 321zM270 973v157h138q76 0 111 56q32 50 5 100q-35 65 -145 66q-49 0 -89 -29.5t-50 -83.5l-172 14q9 87 60 149.5t116 89t135 26.5q64 0 123 -16.5
t109 -48.5t80.5 -86.5t31.5 -123.5q0 -55 -25.5 -102.5t-76.5 -75.5q80 -36 108.5 -85.5t26.5 -121.5q-2 -112 -98 -195t-269 -83q-157 0 -238.5 73t-97.5 195l172 31q10 -57 48.5 -91t87.5 -39t96.5 5t80 40t33.5 68q2 47 -35 79t-110 32h-156z" />
    <glyph glyph-name="questiondown" unicode="&#xbf;" horiz-adv-x="1189" 
d="M504 760l2 -166q0 -20 -8.5 -36.5t-32.5 -33.5t-36 -24t-50 -27q-110 -60 -151 -93q-130 -103 -138 -283v-11q-2 -92 33.5 -176.5t100 -150.5t165 -105t221.5 -39q166 0 288.5 92.5t193.5 243.5l-168 96q-51 -104 -131 -161.5t-183 -57.5q-141 0 -222.5 75.5t-78.5 178.5
q1 36 11.5 65.5t23 48t37.5 37.5t40 28t46 26h-2q112 57 151 89q97 79 97 216v168h-209zM610 821q-60 0 -97.5 37.5t-37.5 97.5q0 56 39.5 91.5t97.5 35.5q52 0 89.5 -34.5t37.5 -92.5q0 -59 -37 -97t-92 -38z" />
    <glyph glyph-name="Agrave" unicode="&#xc0;" horiz-adv-x="1325" 
d="M637 1122l-215 -565h430zM1065 0l-137 362h-582l-139 -362h-223l575 1452h152l575 -1452h-221zM725 1561h-178l-215 219h262z" />
    <glyph glyph-name="Aacute" unicode="&#xc1;" horiz-adv-x="1325" 
d="M637 1122l-215 -565h430zM1065 0l-137 362h-582l-139 -362h-223l575 1452h152l575 -1452h-221zM723 1577h-178l147 219h262z" />
    <glyph glyph-name="Acircumflex" unicode="&#xc2;" horiz-adv-x="1325" 
d="M637 1122l-215 -565h430zM1065 0l-137 362h-582l-139 -362h-223l575 1452h152l575 -1452h-221zM528 1565h-225l248 223h176l244 -223h-221l-117 96z" />
    <glyph glyph-name="Atilde" unicode="&#xc3;" horiz-adv-x="1325" 
d="M862 1821l107 -78q-33 -75 -90.5 -115.5t-126.5 -40.5q-38 1 -76.5 20t-73 38t-63.5 20q-28 0 -61 -18.5t-60 -55.5l-117 72q42 76 104 117t130 41q39 -1 80.5 -20.5t75.5 -39t57 -20.5q62 0 114 80zM637 1122l-215 -565h430zM1065 0l-137 362h-582l-139 -362h-223
l575 1452h152l575 -1452h-221z" />
    <glyph glyph-name="Adieresis" unicode="&#xc4;" horiz-adv-x="1325" 
d="M637 1122l-215 -565h430zM1065 0l-137 362h-582l-139 -362h-223l575 1452h152l575 -1452h-221zM438 1739q52 0 84.5 -32t32.5 -83q0 -43 -33.5 -78t-83.5 -35q-45 0 -77.5 35t-32.5 78q0 50 32 82.5t78 32.5zM827 1739q52 0 84.5 -32t32.5 -83q0 -43 -33.5 -78t-83.5 -35
q-45 0 -77.5 35t-32.5 78q0 50 32 82.5t78 32.5z" />
    <glyph glyph-name="Aring" unicode="&#xc5;" horiz-adv-x="1325" 
d="M637 1122l-215 -565h430zM1065 0l-137 362h-582l-139 -362h-223l575 1452h152l575 -1452h-221zM629 1430q-80 0 -136.5 46.5t-56.5 122.5q0 77 57 125t136 48q78 0 135 -48t57 -125q0 -75 -57 -122t-135 -47zM629 1524q34 0 56 21t22 54q0 36 -22 58t-56 22
q-35 0 -56.5 -21.5t-21.5 -58.5q0 -34 21.5 -54.5t56.5 -20.5z" />
    <glyph glyph-name="AE" unicode="&#xc6;" horiz-adv-x="1792" 
d="M385 315l-170 -315h-233l786 1446h911v-207h-663v-434h649v-201h-649v-397h667v-207h-874l6 315h-430zM817 510l12 643l-340 -643h328z" />
    <glyph glyph-name="Ccedilla" unicode="&#xc7;" horiz-adv-x="1517" 
d="M49 713q0 148 54.5 280t150.5 234q96 99 224.5 156t271.5 57q246 0 425.5 -143t241.5 -386h-205q-56 158 -178 241t-284 83q-101 0 -192.5 -41t-160.5 -113q-147 -154 -147 -368q0 -211 147 -365q69 -72 160.5 -112.5t192.5 -40.5q165 0 292.5 90.5t182.5 251.5h202
q-59 -232 -225 -379t-393 -164l-25 -64q93 -6 144 -62t43 -130q-6 -58 -41 -104.5t-84.5 -73t-109.5 -34t-115.5 5t-102 51.5t-69.5 100l129 61q29 -39 67 -54.5t69.5 -9.5t55.5 24t29 40q4 14 -0.5 28.5t-18.5 28.5t-39.5 23t-63.5 12.5t-91 -2.5l69 162q-235 30 -401 207
q-95 102 -150 233.5t-55 276.5z" />
    <glyph glyph-name="Egrave" unicode="&#xc8;" horiz-adv-x="1019" 
d="M254 207v405h649v209h-649v418h664v207h-873v-1446h875v207h-666zM653 1589h-178l-215 219h262z" />
    <glyph glyph-name="Eacute" unicode="&#xc9;" horiz-adv-x="1019" 
d="M254 612v-405h666v-207h-875v1446h873v-207h-664v-418h649v-209h-649zM559 1593h-178l147 219h263z" />
    <glyph glyph-name="Ecircumflex" unicode="&#xca;" horiz-adv-x="1019" 
d="M254 612v-405h666v-207h-875v1448h873v-207h-664v-420h649v-209h-649zM403 1597h-225l248 224h176l244 -224h-221l-117 97z" />
    <glyph glyph-name="Edieresis" unicode="&#xcb;" horiz-adv-x="1019" 
d="M254 207v428h649v209h-649v395h664v207h-873v-1446h875v207h-666zM311 1804q52 0 84.5 -31.5t32.5 -82.5q0 -43 -33.5 -78t-83.5 -35q-45 0 -77.5 35t-32.5 78q0 50 31.5 82t78.5 32zM700 1804q52 0 84.5 -31.5t32.5 -82.5q0 -43 -33.5 -78t-83.5 -35q-45 0 -77.5 35
t-32.5 78q0 50 31.5 82t78.5 32z" />
    <glyph glyph-name="Igrave" unicode="&#xcc;" horiz-adv-x="837" 
d="M748 1241v205h-740v-205h266v-1034h-266v-207h740v207h-267v1034h267zM496 1610h-179l-215 219h263z" />
    <glyph glyph-name="Iacute" unicode="&#xcd;" horiz-adv-x="835" 
d="M756 1446v-197h-267v-1050h267v-199h-740v199h267v1050h-267v197h740zM461 1602h-178l147 219h262z" />
    <glyph glyph-name="Icircumflex" unicode="&#xce;" horiz-adv-x="835" 
d="M756 1446v-197h-267v-1050h267v-199h-740v199h267v1050h-267v197h740zM279 1599h-226l248 224h176l244 -224h-221l-117 97z" />
    <glyph glyph-name="Idieresis" unicode="&#xcf;" horiz-adv-x="835" 
d="M756 1249v197h-740v-197h267v-1050h-267v-199h740v199h-267v1050h267zM190 1808q52 0 84.5 -31.5t32.5 -82.5q0 -43 -33.5 -78t-83.5 -35q-45 0 -77.5 35t-32.5 78q0 50 31.5 82t78.5 32zM580 1808q52 0 84 -31.5t32 -82.5q0 -44 -33 -78.5t-83 -34.5q-45 0 -78 35.5
t-33 77.5q0 50 32 82t79 32z" />
    <glyph glyph-name="Eth" unicode="&#xd0;" 
d="M0 641v186h102v619h514q136 0 252.5 -41.5t198.5 -112.5t140 -165t86 -198.5t28 -213.5q0 -137 -45 -263t-130.5 -228t-222.5 -163t-307 -61h-514v641h-102zM309 207h307q120 0 217.5 43.5t158 115.5t92.5 162t32 187t-32 189t-92.5 167.5t-158 121.5t-217.5 46h-307
v-412h271v-186h-271v-434z" />
    <glyph glyph-name="Ntilde" unicode="&#xd1;" horiz-adv-x="1271" 
d="M827 1827l109 -76q-32 -75 -89 -115.5t-126 -40.5q-48 0 -115.5 37.5t-99.5 38.5q-28 0 -60.5 -19t-58.5 -57l-119 72q40 77 102 118.5t130 41.5q50 -1 120 -39.5t95 -38.5q63 0 112 78zM287 0h-207v1434h160l698 -1010v1010h205v-1434h-164l-692 1001v-1001z" />
    <glyph glyph-name="Ograve" unicode="&#xd2;" horiz-adv-x="1624" 
d="M1298 717q0 -108 -40 -203t-111 -168q-73 -73 -170 -114.5t-201 -41.5t-199 41.5t-167 114.5q-72 72 -113 168.5t-41 202.5t41 202t113 168q72 73 167 114.5t199 41.5t201 -41.5t170 -114.5q151 -154 151 -370zM47 717q0 -148 56.5 -281.5t156.5 -236.5t233.5 -160
t282.5 -57q150 0 283 57t235 160q100 103 156.5 236.5t56.5 281.5t-56.5 281.5t-156.5 236.5q-102 102 -235.5 159.5t-282.5 57.5q-148 0 -282 -57.5t-234 -159.5q-100 -103 -156.5 -236.5t-56.5 -281.5zM905 1595h-178l-215 220h262z" />
    <glyph glyph-name="Oacute" unicode="&#xd3;" horiz-adv-x="1624" 
d="M1298 717q0 216 -151 370q-73 73 -170 114.5t-201 41.5t-199 -41.5t-167 -114.5q-72 -72 -113 -168t-41 -202t41 -202.5t113 -168.5q72 -73 167 -114.5t199 -41.5t201 41.5t170 114.5q71 73 111 168t40 203zM47 717q0 148 56.5 281.5t156.5 236.5q100 102 234 159.5
t282 57.5q149 0 282.5 -57.5t235.5 -159.5q100 -103 156.5 -236.5t56.5 -281.5t-56.5 -281.5t-156.5 -236.5q-102 -103 -235 -160t-283 -57q-149 0 -282.5 57t-233.5 160t-156.5 236.5t-56.5 281.5zM846 1597h-178l147 220h262z" />
    <glyph glyph-name="Ocircumflex" unicode="&#xd4;" horiz-adv-x="1624" 
d="M1298 717q0 216 -151 370q-73 73 -170 114.5t-201 41.5t-199 -41.5t-167 -114.5q-72 -72 -113 -168t-41 -202t41 -202.5t113 -168.5q72 -73 167 -114.5t199 -41.5t201 41.5t170 114.5q71 73 111 168t40 203zM47 717q0 148 56.5 281.5t156.5 236.5q100 102 234 159.5
t282 57.5q149 0 282.5 -57.5t235.5 -159.5q100 -103 156.5 -236.5t56.5 -281.5t-56.5 -281.5t-156.5 -236.5q-102 -103 -235 -160t-283 -57q-149 0 -282.5 57t-233.5 160t-156.5 236.5t-56.5 281.5zM670 1608h-226l248 223h176l244 -223h-221l-117 96z" />
    <glyph glyph-name="Otilde" unicode="&#xd5;" horiz-adv-x="1624" 
d="M1018 1878l112 -80q-32 -75 -89 -115.5t-126 -42.5q-47 0 -115 37t-100 37q-64 0 -118 -76l-121 74q41 77 103.5 119.5t129.5 42.5q39 0 80.5 -18.5t76.5 -37.5t58 -20q57 0 109 80zM1298 717q0 216 -151 370q-73 73 -170 114.5t-201 41.5t-199 -41.5t-167 -114.5
q-72 -72 -113 -168t-41 -202t41 -202.5t113 -168.5q72 -73 167 -114.5t199 -41.5t201 41.5t170 114.5q71 73 111 168t40 203zM47 717q0 148 56.5 281.5t156.5 236.5q100 102 234 159.5t282 57.5q149 0 282.5 -57.5t235.5 -159.5q100 -103 156.5 -236.5t56.5 -281.5
t-56.5 -281.5t-156.5 -236.5q-102 -103 -235 -160t-283 -57q-149 0 -282.5 57t-233.5 160t-156.5 236.5t-56.5 281.5z" />
    <glyph glyph-name="Odieresis" unicode="&#xd6;" horiz-adv-x="1624" 
d="M1298 717q0 -108 -40 -203t-111 -168q-73 -73 -170 -114.5t-201 -41.5t-199 41.5t-167 114.5q-72 72 -113 168.5t-41 202.5t41 202t113 168q72 73 167 114.5t199 41.5t201 -41.5t170 -114.5q151 -154 151 -370zM47 717q0 -148 56.5 -281.5t156.5 -236.5t233.5 -160
t282.5 -57q150 0 283 57t235 160q100 103 156.5 236.5t56.5 281.5t-56.5 281.5t-156.5 236.5q-102 102 -235.5 159.5t-282.5 57.5q-148 0 -282 -57.5t-234 -159.5q-100 -103 -156.5 -236.5t-56.5 -281.5zM578 1812q52 0 84 -31.5t32 -82.5q0 -44 -33 -78.5t-83 -34.5
q-45 0 -78 35.5t-33 77.5q0 50 32 82t79 32zM967 1812q52 0 84 -31.5t32 -82.5q0 -44 -33 -78.5t-83 -34.5q-45 0 -78 35.5t-33 77.5q0 50 32 82t79 32z" />
    <glyph glyph-name="multiply" unicode="&#xd7;" horiz-adv-x="972" 
d="M37 932l139 139l293 -293l283 285l139 -137l-287 -283l283 -283l-139 -137l-281 279l-287 -287l-139 137l289 287z" />
    <glyph glyph-name="Oslash" unicode="&#xd8;" horiz-adv-x="1624" 
d="M47 717q0 148 56.5 281.5t156.5 236.5q100 102 234 159.5t282 57.5q161 0 311 -72l127 199h218l-191 -297q27 -21 53 -47q100 -103 156.5 -236.5t56.5 -281.5t-56.5 -281.5t-156.5 -236.5q-102 -103 -235 -160t-283 -57q-170 0 -319 73l-117 -182h-219l182 285
q-22 16 -43 41q-100 103 -156.5 236.5t-56.5 281.5zM1298 717q0 216 -151 370l-19 17l-557 -871q100 -43 205 -43q104 0 201 41.5t170 114.5q71 73 111 168t40 203zM776 1243q-104 0 -199 -41.5t-167 -114.5q-72 -72 -113 -168t-41 -202t41 -202.5t113 -168.5l8 -10l555 866
q-93 41 -197 41z" />
    <glyph glyph-name="Ugrave" unicode="&#xd9;" horiz-adv-x="1247" 
d="M588 -14q94 0 186.5 29t169.5 82.5t124.5 139.5t47.5 191v1026h-209v-1024q0 -75 -49.5 -130.5t-120.5 -81t-149 -25.5q-59 0 -115 15t-103 43t-75.5 74t-28.5 103v1026h-209v-1024q0 -85 31 -158.5t83.5 -125t121 -88.5t143.5 -54.5t152 -17.5zM733 1581h-178l-215 219
h262z" />
    <glyph glyph-name="Uacute" unicode="&#xda;" horiz-adv-x="1247" 
d="M588 -14q-77 0 -152 17.5t-143.5 54.5t-121 88.5t-83.5 125t-31 158.5v1036h209v-1038q0 -57 28.5 -103t75.5 -74t103 -43t115 -15q78 0 149 25.5t120.5 81t49.5 130.5v1036h209v-1038q0 -105 -47.5 -191t-124.5 -139.5t-169.5 -82.5t-186.5 -29zM645 1597h-178l147 220
h263z" />
    <glyph glyph-name="Ucircumflex" unicode="&#xdb;" horiz-adv-x="1247" 
d="M588 -14q-77 0 -152 17.5t-143.5 54.5t-121 88.5t-83.5 125t-31 158.5v1032h209v-1034q0 -57 28.5 -103t75.5 -74t103 -43t115 -15q78 0 149 25.5t120.5 81t49.5 130.5v1032h209v-1034q0 -105 -47.5 -191t-124.5 -139.5t-169.5 -82.5t-186.5 -29zM479 1581h-225l248 223
h176l244 -223h-222l-116 96z" />
    <glyph glyph-name="Udieresis" unicode="&#xdc;" horiz-adv-x="1247" 
d="M588 -14q94 0 186.5 29t169.5 82.5t124.5 139.5t47.5 191v1026h-209v-1024q0 -75 -49.5 -130.5t-120.5 -81t-149 -25.5q-59 0 -115 15t-103 43t-75.5 74t-28.5 103v1026h-209v-1024q0 -85 31 -158.5t83.5 -125t121 -88.5t143.5 -54.5t152 -17.5zM397 1806
q52 0 84.5 -31.5t32.5 -82.5q0 -43 -33.5 -78t-83.5 -35q-45 0 -77.5 35t-32.5 78q0 50 31.5 82t78.5 32zM786 1806q52 0 84.5 -31.5t32.5 -82.5q0 -43 -33.5 -78t-83.5 -35q-45 0 -77.5 35t-32.5 78q0 50 31.5 82t78.5 32z" />
    <glyph glyph-name="Yacute" unicode="&#xdd;" horiz-adv-x="1290" 
d="M-35 1448h244l399 -645l400 645h245l-540 -864v-584h-209v584zM647 1589h-178l147 219h263z" />
    <glyph glyph-name="Thorn" unicode="&#xde;" horiz-adv-x="1132" 
d="M49 0v1448h209v-231h315q112 0 202.5 -41t146.5 -109.5t86 -153t30 -176.5t-30 -176t-86 -152t-146.5 -108.5t-202.5 -40.5h-315v-260h-209zM258 465h315q123 0 192 80t69 190q0 111 -69 192t-192 81h-315v-543z" />
    <glyph glyph-name="germandbls" unicode="&#xdf;" horiz-adv-x="1282" 
d="M387 1067v-1067h-221v1067q0 87 37.5 159.5t100 120.5t144 74.5t170.5 26.5q120 0 220 -43t162.5 -129.5t62.5 -200.5q0 -82 -39.5 -163.5t-116.5 -135.5q122 -52 186 -149.5t62 -210.5q2 -105 -37.5 -189t-109.5 -135.5t-158 -78.5t-188 -27q-106 0 -234 41v200
q109 -61 205 -61q141 0 222 74.5t81 175.5q0 102 -81 176t-222 74h-150v190h150q103 0 163 69t54 152t-74 133t-160 50q-89 0 -159 -54.5t-70 -138.5z" />
    <glyph glyph-name="agrave" unicode="&#xe0;" horiz-adv-x="1404" 
d="M1071 1108h201v-1108h-201v150q-38 -57 -108 -96t-141.5 -55t-145.5 -17q-141 0 -256 47t-188 127.5t-112.5 183.5t-39.5 219q0 113 40.5 215t114 180.5t187 125t250.5 46.5q279 0 401 -165zM1071 555q0 96 -36 173.5t-95 125t-129.5 72.5t-142.5 24q-177 -3 -282 -113.5
t-105 -277.5q0 -168 110 -285.5t293 -113.5q70 2 137.5 27.5t124 73t91 124t34.5 170.5zM834 1317h-179l-215 219h262z" />
    <glyph glyph-name="aacute" unicode="&#xe1;" horiz-adv-x="1404" 
d="M1071 1108h201v-1108h-201v150q-38 -57 -108 -96t-141.5 -55t-145.5 -17q-141 0 -256 47t-188 127.5t-112.5 183.5t-39.5 219q0 113 40.5 215t114 180.5t187 125t250.5 46.5q279 0 401 -165zM1071 555q0 96 -36 173.5t-95 125t-129.5 72.5t-142.5 24q-177 -3 -282 -113.5
t-105 -277.5q0 -168 110 -285.5t293 -113.5q70 2 137.5 27.5t124 73t91 124t34.5 170.5zM727 1331h-178l147 219h262z" />
    <glyph glyph-name="acircumflex" unicode="&#xe2;" horiz-adv-x="1404" 
d="M1071 1108h201v-1108h-201v150q-38 -57 -108 -96t-141.5 -55t-145.5 -17q-141 0 -256 47t-188 127.5t-112.5 183.5t-39.5 219q0 113 40.5 215t114 180.5t187 125t250.5 46.5q279 0 401 -165zM1071 555q0 96 -36 173.5t-95 125t-129.5 72.5t-142.5 24q-177 -3 -282 -113.5
t-105 -277.5q0 -168 110 -285.5t293 -113.5q70 2 137.5 27.5t124 73t91 124t34.5 170.5zM618 1331h-225l248 223h176l244 -223h-221l-117 96z" />
    <glyph glyph-name="atilde" unicode="&#xe3;" horiz-adv-x="1404" 
d="M1071 1108h201v-1108h-201v150q-38 -57 -108 -96t-141.5 -55t-145.5 -17q-141 0 -256 47t-188 127.5t-112.5 183.5t-39.5 219q0 113 40.5 215t114 180.5t187 125t250.5 46.5q279 0 401 -165zM1071 555q0 96 -36 173.5t-95 125t-129.5 72.5t-142.5 24q-177 -3 -282 -113.5
t-105 -277.5q0 -168 110 -285.5t293 -113.5q70 2 137.5 27.5t124 73t91 124t34.5 170.5zM983 1561l104 -82q-36 -74 -95 -111.5t-128 -34.5q-38 2 -76 22.5t-72 41t-63 22.5q-28 2 -61 -15t-62 -54l-114 77q45 75 108 113t131 35q39 -3 80 -24t74.5 -41.5t56.5 -22.5
q62 -3 117 74z" />
    <glyph glyph-name="adieresis" unicode="&#xe4;" horiz-adv-x="1404" 
d="M1071 1108h201v-1108h-201v150q-38 -57 -108 -96t-141.5 -55t-145.5 -17q-141 0 -256 47t-188 127.5t-112.5 183.5t-39.5 219q0 113 40.5 215t114 180.5t187 125t250.5 46.5q279 0 401 -165zM1071 555q0 96 -36 173.5t-95 125t-129.5 72.5t-142.5 24q-177 -3 -282 -113.5
t-105 -277.5q0 -168 110 -285.5t293 -113.5q70 2 137.5 27.5t124 73t91 124t34.5 170.5zM530 1563q52 0 84.5 -32t32.5 -83q0 -43 -33.5 -78t-83.5 -35q-45 0 -77.5 35t-32.5 78q0 50 32 82.5t78 32.5zM920 1563q52 0 84 -32t32 -83q0 -44 -33 -78.5t-83 -34.5
q-45 0 -78 35.5t-33 77.5q0 50 32 82.5t79 32.5z" />
    <glyph glyph-name="aring" unicode="&#xe5;" horiz-adv-x="1404" 
d="M702 1266q-79 0 -135.5 47t-56.5 123q0 77 56.5 124.5t135.5 47.5q78 0 135.5 -47.5t57.5 -124.5q0 -75 -57.5 -122.5t-135.5 -47.5zM702 1360q34 0 56 21t22 55q0 36 -22 58t-56 22q-35 0 -56 -21.5t-21 -58.5q0 -34 21 -55t56 -21zM1071 1108h201v-1108h-201v150
q-38 -57 -108 -96t-141.5 -55t-145.5 -17q-141 0 -256 47t-188 127.5t-112.5 183.5t-39.5 219q0 113 40.5 215t114 180.5t187 125t250.5 46.5q279 0 401 -165zM1071 555q0 96 -36 173.5t-95 125t-129.5 72.5t-142.5 24q-177 -3 -282 -113.5t-105 -277.5q0 -168 110 -285.5
t293 -113.5q70 2 137.5 27.5t124 73t91 124t34.5 170.5z" />
    <glyph glyph-name="ae" unicode="&#xe6;" horiz-adv-x="2277" 
d="M1049 1108h172l2 -156q73 78 174.5 120t207 46.5t209.5 -31t185 -103t131.5 -180t50.5 -251.5q0 -30 -4 -80h-928q24 -151 126 -233t235 -82q107 0 194 46.5t135 137.5h207q-41 -117 -126 -200.5t-190.5 -122.5t-221.5 -39q-73 0 -139.5 15t-133.5 57t-108 108v-160h-178
v150q-56 -84 -162.5 -125t-222.5 -43q-141 0 -256 47t-188 127.5t-112.5 183.5t-39.5 219q0 113 40.5 215t114 180.5t186.5 125t250 46.5q270 0 392 -165zM1053 555q0 96 -35.5 173.5t-93.5 125t-127.5 72.5t-141.5 24q-173 -3 -279 -119.5t-108 -271.5q-1 -103 46 -194.5
t141.5 -149.5t216.5 -55q56 1 109.5 17t103 49t87 78.5t59.5 110.5t22 140zM1249 641h723q-18 99 -74 170t-129.5 104t-158 33t-158 -33t-129.5 -104t-74 -170z" />
    <glyph glyph-name="ccedilla" unicode="&#xe7;" horiz-adv-x="1341" 
d="M1034 428h207q-19 -97 -65.5 -176.5t-112 -133t-143 -86.5t-162.5 -44l-25 -60q92 -6 141 -60t41 -126q-9 -93 -88.5 -150t-181.5 -57q-80 0 -146.5 39t-95.5 115l127 59q46 -63 113 -63q40 -2 70.5 15t34.5 48q2 18 -6.5 35t-30.5 32t-66.5 21t-105.5 0l65 152
q-100 11 -191 52.5t-165 110t-118 173.5t-44 231q0 111 34 205.5t91 160.5t133 113t160.5 69.5t171.5 22.5q97 0 188 -28t168 -82t132.5 -140t76.5 -194h-207q-35 128 -134.5 198t-221.5 70q-71 0 -139.5 -25.5t-125.5 -73t-91.5 -125t-34.5 -171.5q0 -96 35 -173.5
t92.5 -125t126.5 -72.5t141 -24q120 2 218.5 71.5t133.5 196.5z" />
    <glyph glyph-name="egrave" unicode="&#xe8;" horiz-adv-x="1351" 
d="M1241 602q6 -48 -4 -96h-938q0 -103 59.5 -185t143.5 -122.5t170 -40.5q107 0 194 46.5t135 137.5h207q-41 -117 -126 -200.5t-190.5 -122.5t-221.5 -39q-109 0 -210 37t-182.5 106t-130.5 180.5t-49 249.5t48.5 249t130 180t183.5 105.5t214 36.5q105 0 201.5 -33.5
t176 -96.5t130.5 -164.5t59 -227.5zM307 672h723q-14 72 -49 126.5t-84 86.5t-105 47.5t-118 15.5q-63 0 -120.5 -16t-108 -48t-87 -86.5t-51.5 -125.5zM829 1323h-178l-215 219h262z" />
    <glyph glyph-name="eacute" unicode="&#xe9;" horiz-adv-x="1351" 
d="M1241 602q6 -48 -4 -96h-938q0 -103 59.5 -185t143.5 -122.5t170 -40.5q107 0 194 46.5t135 137.5h207q-41 -117 -126 -200.5t-190.5 -122.5t-221.5 -39q-109 0 -210 37t-182.5 106t-130.5 180.5t-49 249.5t48.5 249t130 180t183.5 105.5t214 36.5q105 0 201.5 -33.5
t176 -96.5t130.5 -164.5t59 -227.5zM307 672h723q-14 72 -49 126.5t-84 86.5t-105 47.5t-118 15.5q-63 0 -120.5 -16t-108 -48t-87 -86.5t-51.5 -125.5zM731 1315h-178l147 219h263z" />
    <glyph glyph-name="ecircumflex" unicode="&#xea;" horiz-adv-x="1351" 
d="M1241 602q6 -48 -4 -96h-938q0 -103 59.5 -185t143.5 -122.5t170 -40.5q107 0 194 46.5t135 137.5h207q-41 -117 -126 -200.5t-190.5 -122.5t-221.5 -39q-109 0 -210 37t-182.5 106t-130.5 180.5t-49 249.5t48.5 249t130 180t183.5 105.5t214 36.5q105 0 201.5 -33.5
t176 -96.5t130.5 -164.5t59 -227.5zM307 672h723q-14 72 -49 126.5t-84 86.5t-105 47.5t-118 15.5q-63 0 -120.5 -16t-108 -48t-87 -86.5t-51.5 -125.5zM592 1284h-225l247 223h177l243 -223h-221l-117 96z" />
    <glyph glyph-name="edieresis" unicode="&#xeb;" horiz-adv-x="1351" 
d="M1241 602q6 -48 -4 -96h-938q0 -103 59.5 -185t143.5 -122.5t170 -40.5q107 0 194 46.5t135 137.5h207q-41 -117 -126 -200.5t-190.5 -122.5t-221.5 -39q-109 0 -210 37t-182.5 106t-130.5 180.5t-49 249.5t48.5 249t130 180t183.5 105.5t214 36.5q105 0 201.5 -33.5
t176 -96.5t130.5 -164.5t59 -227.5zM307 672h723q-14 72 -49 126.5t-84 86.5t-105 47.5t-118 15.5q-63 0 -120.5 -16t-108 -48t-87 -86.5t-51.5 -125.5zM479 1575q52 0 84.5 -32t32.5 -83q0 -43 -33.5 -77.5t-83.5 -34.5q-45 0 -77.5 35t-32.5 77q0 50 32 82.5t78 32.5z
M868 1575q52 0 84.5 -32t32.5 -83q0 -43 -33.5 -77.5t-83.5 -34.5q-45 0 -77.5 35t-32.5 77q0 50 32 82.5t78 32.5z" />
    <glyph glyph-name="igrave" unicode="&#xec;" horiz-adv-x="550" 
d="M367 1128v-1128h-201v1128h201zM401 1319h-178l-215 219h262z" />
    <glyph glyph-name="iacute" unicode="&#xed;" horiz-adv-x="550" 
d="M367 1128v-1128h-201v1128h201zM322 1315h-179l148 219h262z" />
    <glyph glyph-name="icircumflex" unicode="&#xee;" horiz-adv-x="550" 
d="M367 1128v-1128h-201v1128h201zM158 1315h-226l248 223h176l244 -223h-221l-117 96z" />
    <glyph glyph-name="idieresis" unicode="&#xef;" horiz-adv-x="550" 
d="M70 1563q52 0 84 -32t32 -83q0 -44 -33 -78.5t-83 -34.5q-45 0 -78 35.5t-33 77.5q0 50 32 82.5t79 32.5zM459 1563q52 0 84 -32t32 -83q0 -44 -33 -78.5t-83 -34.5q-45 0 -78 35.5t-33 77.5q0 50 32 82.5t79 32.5zM367 1128v-1128h-201v1128h201z" />
    <glyph glyph-name="eth" unicode="&#xf0;" horiz-adv-x="1345" 
d="M1251 553q0 -112 -32.5 -207t-88 -162t-129.5 -114t-157.5 -69t-171.5 -21q-109 1 -209 38t-180.5 106.5t-128.5 180.5t-48 248q0 107 32 198t86.5 155t127.5 108.5t154.5 66t167.5 21.5q46 0 92 -6l-100 149l-275 -47v121l193 33l-105 141h242l72 -102l247 45v-119
l-172 -33l279 -389l12 -16q38 -51 65 -143t27 -183zM303 553q0 -95 32 -171.5t85.5 -124t119 -73t136.5 -26.5t137 24t120 73t86 125.5t32 172.5q0 94 -31 169t-83.5 121t-117 70t-135.5 25q-72 1 -139 -22.5t-121.5 -69t-87.5 -121.5t-33 -172z" />
    <glyph glyph-name="ntilde" unicode="&#xf1;" horiz-adv-x="1327" 
d="M154 1108h200v-137q58 84 142.5 118.5t197.5 34.5q245 0 363.5 -140t118.5 -388v-596h-199v594q0 83 -12.5 142.5t-43 108.5t-89 74.5t-144.5 26.5q-156 3 -245 -94.5t-89 -249.5v-602h-200v1108zM918 1524l104 -82q-36 -74 -95 -111.5t-128 -34.5q-38 2 -76 22.5t-72 41
t-63 22.5q-28 2 -61 -15t-62 -54l-115 78q45 75 108.5 112.5t131.5 34.5q39 -3 80 -24t74.5 -41.5t56.5 -22.5q62 -3 117 74z" />
    <glyph glyph-name="ograve" unicode="&#xf2;" 
d="M1300 553q0 -112 -33.5 -206.5t-91 -161t-134.5 -113.5t-163 -69.5t-178 -22.5q-90 0 -175.5 22.5t-161.5 70t-133 114t-90.5 161t-33.5 205.5q0 112 33.5 206.5t91 161t134.5 113.5t163.5 69.5t178.5 22.5q91 0 176.5 -22.5t161.5 -70t132.5 -114t89.5 -161t33 -205.5z
M307 553q0 -94 33.5 -170t89.5 -123.5t125.5 -73t144.5 -26.5q77 -1 148 24t128 72.5t91.5 124.5t34.5 172t-34 172t-90 124.5t-126 73t-145 25.5q-77 0 -147.5 -25t-127.5 -72.5t-91 -125t-34 -172.5zM881 1321h-179l-215 219h263z" />
    <glyph glyph-name="oacute" unicode="&#xf3;" 
d="M1300 553q0 -112 -33.5 -206.5t-91 -161t-134.5 -113.5t-163 -69.5t-178 -22.5q-90 0 -175.5 22.5t-161.5 70t-133 114t-90.5 161t-33.5 205.5q0 112 33.5 206.5t91 161t134.5 113.5t163.5 69.5t178.5 22.5q91 0 176.5 -22.5t161.5 -70t132.5 -114t89.5 -161t33 -205.5z
M307 553q0 -94 33.5 -170t89.5 -123.5t125.5 -73t144.5 -26.5q77 -1 148 24t128 72.5t91.5 124.5t34.5 172t-34 172t-90 124.5t-126 73t-145 25.5q-77 0 -147.5 -25t-127.5 -72.5t-91 -125t-34 -172.5zM764 1315h-178l147 219h262z" />
    <glyph glyph-name="ocircumflex" unicode="&#xf4;" 
d="M1300 553q0 -112 -33.5 -206.5t-91 -161t-134.5 -113.5t-163 -69.5t-178 -22.5q-90 0 -175.5 22.5t-161.5 70t-133 114t-90.5 161t-33.5 205.5q0 112 33.5 206.5t91 161t134.5 113.5t163.5 69.5t178.5 22.5q91 0 176.5 -22.5t161.5 -70t132.5 -114t89.5 -161t33 -205.5z
M307 553q0 -94 33.5 -170t89.5 -123.5t125.5 -73t144.5 -26.5q77 -1 148 24t128 72.5t91.5 124.5t34.5 172t-34 172t-90 124.5t-126 73t-145 25.5q-77 0 -147.5 -25t-127.5 -72.5t-91 -125t-34 -172.5zM602 1313h-225l248 223h176l243 -223h-221l-116 96z" />
    <glyph glyph-name="otilde" unicode="&#xf5;" 
d="M1300 553q0 -112 -33.5 -206.5t-91 -161t-134.5 -113.5t-163 -69.5t-178 -22.5q-90 0 -175.5 22.5t-161.5 70t-133 114t-90.5 161t-33.5 205.5q0 112 33.5 206.5t91 161t134.5 113.5t163.5 69.5t178.5 22.5q91 0 176.5 -22.5t161.5 -70t132.5 -114t89.5 -161t33 -205.5z
M307 553q0 -94 33.5 -170t89.5 -123.5t125.5 -73t144.5 -26.5q77 -1 148 24t128 72.5t91.5 124.5t34.5 172t-34 172t-90 124.5t-126 73t-145 25.5q-77 0 -147.5 -25t-127.5 -72.5t-91 -125t-34 -172.5zM956 1552l105 -82q-36 -74 -95 -111t-128 -34q-38 2 -76 22.5t-72 41
t-63 22.5q-27 2 -60.5 -15.5t-62.5 -54.5l-115 78q45 75 108.5 113t131.5 35q39 -3 80 -24t74.5 -41.5t56.5 -22.5q62 -3 116 73z" />
    <glyph glyph-name="odieresis" unicode="&#xf6;" 
d="M1300 553q0 -112 -33.5 -206.5t-91 -161t-134.5 -113.5t-163 -69.5t-178 -22.5q-90 0 -175.5 22.5t-161.5 70t-133 114t-90.5 161t-33.5 205.5q0 112 33.5 206.5t91 161t134.5 113.5t163.5 69.5t178.5 22.5q91 0 176.5 -22.5t161.5 -70t132.5 -114t89.5 -161t33 -205.5z
M307 553q0 -94 33.5 -170t89.5 -123.5t125.5 -73t144.5 -26.5q77 -1 148 24t128 72.5t91.5 124.5t34.5 172t-34 172t-90 124.5t-126 73t-145 25.5q-77 0 -147.5 -25t-127.5 -72.5t-91 -125t-34 -172.5zM520 1556q52 0 84.5 -31.5t32.5 -82.5q0 -43 -33.5 -78t-83.5 -35
q-45 0 -77.5 35t-32.5 78q0 50 31.5 82t78.5 32zM909 1556q52 0 84.5 -31.5t32.5 -82.5q0 -43 -33.5 -78t-83.5 -35q-45 0 -77.5 35t-32.5 78q0 50 31.5 82t78.5 32z" />
    <glyph glyph-name="divide" unicode="&#xf7;" horiz-adv-x="1103" 
d="M39 604v193h967v-193h-967zM506 465q57 0 93 -35t36 -92q0 -48 -37 -86.5t-92 -38.5q-50 0 -86.5 39t-36.5 86q0 56 35.5 91.5t87.5 35.5zM506 1196q57 0 93 -35t36 -92q0 -48 -37 -86.5t-92 -38.5q-50 0 -86.5 39t-36.5 86q0 56 35.5 91.5t87.5 35.5z" />
    <glyph glyph-name="oslash" unicode="&#xf8;" 
d="M1298 553q0 -112 -33.5 -206.5t-91 -161t-134.5 -113.5t-163 -69.5t-178 -22.5q-127 0 -245 47l-103 -170h-192l151 249q-205 163 -205 447q0 112 33.5 206.5t91 161t134.5 113.5t163.5 69.5t178.5 22.5q112 0 204 -32l88 143h191l-131 -213q111 -74 176 -193.5
t65 -277.5zM1100 553q0 197 -142 309l-409 -676q76 -26 149 -26q77 -1 148 24t128 72.5t91.5 124.5t34.5 172zM305 553q0 -172 107 -279l401 660q-65 14 -108 14q-77 0 -147.5 -25t-127.5 -72.5t-91 -125t-34 -172.5z" />
    <glyph glyph-name="ugrave" unicode="&#xf9;" horiz-adv-x="1318" 
d="M1161 0h-190v145q-109 -161 -350 -161q-124 0 -217 37.5t-150.5 108t-86 166t-28.5 216.5v596h201v-596q0 -83 12 -142t42.5 -107.5t88.5 -74t144 -26.5q158 -3 246 94t88 250v602h200v-1108zM805 1309h-178l-215 219h262z" />
    <glyph glyph-name="uacute" unicode="&#xfa;" horiz-adv-x="1318" 
d="M1161 0h-190v145q-109 -161 -350 -161q-124 0 -217 37.5t-150.5 108t-86 166t-28.5 216.5v596h201v-596q0 -83 12 -142t42.5 -107.5t88.5 -74t144 -26.5q158 -3 246 94t88 250v602h200v-1108zM707 1305h-179l148 219h262z" />
    <glyph glyph-name="ucircumflex" unicode="&#xfb;" horiz-adv-x="1318" 
d="M537 1309h-222l248 223h176l244 -223h-217l-121 96zM1161 0h-190v145q-109 -161 -350 -161q-124 0 -217 37.5t-150.5 108t-86 166t-28.5 216.5v596h201v-596q0 -83 12 -142t42.5 -107.5t88.5 -74t144 -26.5q158 -3 246 94t88 250v602h200v-1108z" />
    <glyph glyph-name="udieresis" unicode="&#xfc;" horiz-adv-x="1318" 
d="M1161 0h-190v145q-109 -161 -350 -161q-124 0 -217 37.5t-150.5 108t-86 166t-28.5 216.5v596h201v-596q0 -83 12 -142t42.5 -107.5t88.5 -74t144 -26.5q158 -3 246 94t88 250v602h200v-1108zM457 1550q52 0 84 -31.5t32 -82.5q0 -44 -33 -78.5t-83 -34.5q-45 0 -78 35.5
t-33 77.5q0 50 32 82t79 32zM846 1550q52 0 84.5 -31.5t32.5 -82.5q0 -43 -33.5 -78t-83.5 -35q-45 0 -78 35.5t-33 77.5q0 50 32 82t79 32z" />
    <glyph glyph-name="yacute" unicode="&#xfd;" horiz-adv-x="1150" 
d="M580 270l129 361l182 477h213l-569 -1432h-213l151 381l-422 1051h213l191 -475zM649 1307h-178l147 219h263z" />
    <glyph glyph-name="thorn" unicode="&#xfe;" horiz-adv-x="1394" 
d="M352 145v-469h-200v1766h200v-481q56 84 156.5 124.5t214.5 40.5q113 1 207.5 -29.5t161 -84t112.5 -126.5t68 -157.5t22 -177.5q0 -114 -37 -216t-106.5 -181t-179.5 -125.5t-246 -46.5q-251 0 -373 163zM352 555q0 -96 32 -173.5t86 -125t120.5 -72.5t138.5 -24
q88 1 159 35t115 89t67.5 124t23.5 143q1 78 -23 149t-70 128.5t-120 90.5t-166 31q-70 -2 -134 -28t-115.5 -73.5t-82.5 -124t-31 -169.5z" />
    <glyph glyph-name="ydieresis" unicode="&#xff;" horiz-adv-x="1150" 
d="M580 270l129 361l182 477h213l-569 -1432h-213l151 381l-422 1051h213l191 -475zM383 1552q52 0 84.5 -31.5t32.5 -82.5q0 -43 -33.5 -78t-83.5 -35q-45 0 -78 35.5t-33 77.5q0 50 32 82t79 32zM772 1552q52 0 84.5 -31.5t32.5 -82.5q0 -43 -33.5 -78t-83.5 -35
q-45 0 -77.5 35t-32.5 78q0 50 31.5 82t78.5 32z" />
    <glyph glyph-name="Amacron" unicode="&#x100;" horiz-adv-x="1331" 
d="M377 1538v170h502v-170h-502zM637 1122l-215 -565h430zM1065 0l-137 362h-582l-139 -362h-223l575 1452h152l575 -1452h-221z" />
    <glyph glyph-name="amacron" unicode="&#x101;" horiz-adv-x="1437" 
d="M1104 1108h201v-1108h-201v150q-38 -57 -108 -96t-141.5 -55t-145.5 -17q-141 0 -256 47t-188 127.5t-112.5 183.5t-39.5 219q0 113 40.5 215t114 180.5t187 125t250.5 46.5q279 0 401 -165zM1104 555q0 96 -36.5 173.5t-95.5 125t-129.5 72.5t-142.5 24
q-177 -3 -282 -113.5t-105 -277.5q0 -168 110.5 -285.5t293.5 -113.5q70 2 137.5 27.5t124 73t91 124t34.5 170.5zM494 1364v170h501v-170h-501z" />
    <glyph glyph-name="Abreve" unicode="&#x102;" horiz-adv-x="1323" 
d="M733 1735h164q0 -56 -21.5 -99t-58.5 -67.5t-82 -36.5t-98 -12q-52 0 -96.5 11.5t-82 36t-58.5 67.5t-21 100h153q0 -53 50 -75t100.5 0t50.5 75zM637 1122l-215 -565h430zM1065 0l-137 362h-582l-139 -362h-223l575 1452h152l575 -1452h-221z" />
    <glyph glyph-name="abreve" unicode="&#x103;" horiz-adv-x="1437" 
d="M854 1542h164q0 -110 -74.5 -164.5t-185.5 -54.5q-110 0 -184 54t-74 165h153q0 -53 50.5 -75t100.5 0t50 75zM1104 1108h201v-1108h-201v150q-38 -57 -108 -96t-141.5 -55t-145.5 -17q-141 0 -256 47t-188 127.5t-112.5 183.5t-39.5 219q0 113 40.5 215t114 180.5
t187 125t250.5 46.5q279 0 401 -165zM1104 555q0 96 -36.5 173.5t-95.5 125t-129.5 72.5t-142.5 24q-177 -3 -282 -113.5t-105 -277.5q0 -168 110.5 -285.5t293.5 -113.5q70 2 137.5 27.5t124 73t91 124t34.5 170.5z" />
    <glyph glyph-name="Aogonek" unicode="&#x104;" horiz-adv-x="1323" 
d="M932 -219q-6 40 2.5 74t31.5 61t44.5 44.5t54.5 39.5l-137 362h-582l-139 -362h-223l575 1452h152l573 -1450l2 -2h-8q-70 -18 -112 -62.5t-46.5 -90t33.5 -83.5t113 -45l-113 -100h-11t-28 3t-40.5 8t-44 17t-43 28.5t-34 44t-20.5 61.5zM637 1122l-215 -565h430z" />
    <glyph glyph-name="aogonek" unicode="&#x105;" horiz-adv-x="1437" 
d="M1104 1108h201v-1106l2 -2h-9q-63 -20 -103.5 -55t-49.5 -72.5t4.5 -71.5t59.5 -57.5t114 -26.5l-113 -100q-62 -4 -113.5 17.5t-81.5 57t-42.5 81.5t-3.5 89.5t43.5 82.5t91.5 59v146q-38 -57 -108 -96t-141.5 -55t-145.5 -17q-141 0 -256 47t-188 127.5t-112.5 183.5
t-39.5 219q0 113 40.5 215t114 180.5t187 125t250.5 46.5q279 0 401 -165zM1104 555q0 96 -36.5 173.5t-95.5 125t-129.5 72.5t-142.5 24q-177 -3 -282 -113.5t-105 -277.5q0 -168 110.5 -285.5t293.5 -113.5q70 2 137.5 27.5t124 73t91 124t34.5 170.5z" />
    <glyph glyph-name="Cacute" unicode="&#x106;" horiz-adv-x="1495" 
d="M27 713q0 149 55 286t149 238q96 99 224.5 156t271.5 57q246 0 426 -142.5t242 -385.5h-205q-56 158 -178.5 240.5t-284.5 82.5q-101 0 -192 -40.5t-160 -112.5t-108.5 -171.5t-39.5 -207.5q0 -210 148 -365q69 -72 160 -112.5t192 -40.5q165 0 292.5 90.5t182.5 251.5
h203q-62 -247 -246 -397t-432 -150q-144 0 -272 56.5t-224 156.5q-95 101 -149.5 233t-54.5 277zM803 1563h-178l147 219h262z" />
    <glyph glyph-name="cacute" unicode="&#x107;" horiz-adv-x="1341" 
d="M743 1286h-178l148 219h262zM1032 428h207q-27 -144 -115 -247t-203.5 -150.5t-246.5 -46.5q-87 1 -169 23.5t-155 69t-127.5 113t-86.5 160.5t-32 205q0 139 49.5 250.5t131.5 180.5t184 105t213 35q96 -1 186 -29.5t166 -82t130.5 -139.5t74.5 -193h-207
q-35 128 -133.5 198t-220.5 70q-71 0 -137 -25.5t-119 -73t-85 -124.5t-32 -172t32 -172.5t85 -125t119 -72.5t137 -25q122 0 220.5 70t133.5 198z" />
    <glyph glyph-name="Ccircumflex" unicode="&#x108;" horiz-adv-x="1495" 
d="M635 1567h-225l247 223h177l243 -223h-221l-117 96zM27 713q0 149 55 286t149 238q96 99 224.5 156t271.5 57q246 0 426 -142.5t242 -385.5h-205q-56 158 -178.5 240.5t-284.5 82.5q-101 0 -192 -40.5t-160 -112.5t-108.5 -171.5t-39.5 -207.5q0 -210 148 -365
q69 -72 160 -112.5t192 -40.5q165 0 292.5 90.5t182.5 251.5h203q-62 -247 -246 -397t-432 -150q-144 0 -272 56.5t-224 156.5q-95 101 -149.5 233t-54.5 277z" />
    <glyph glyph-name="ccircumflex" unicode="&#x109;" horiz-adv-x="1343" 
d="M584 1311h-226l248 223h176l244 -223h-221l-111 96zM1032 428h207q-27 -142 -114 -244.5t-201 -150.5t-244 -49q-110 -1 -211.5 35.5t-183.5 105t-131.5 180.5t-49.5 250q0 139 49.5 251.5t131.5 182.5t184.5 107.5t212.5 36.5q130 -1 244 -49.5t200.5 -151t112.5 -244.5
h-207q-35 127 -132.5 196.5t-217.5 71.5q-72 1 -138.5 -25t-120 -75t-86 -127t-32.5 -174q0 -97 33 -175t87.5 -125.5t121.5 -72t139 -22.5q119 3 215.5 73t130.5 195z" />
    <glyph glyph-name="Cdotaccent" unicode="&#x10a;" horiz-adv-x="1495" 
d="M621 1716q0 58 38 90.5t89 32.5q50 0 87 -32.5t37 -90.5q0 -57 -39 -89t-90 -32q-50 0 -86 31.5t-36 89.5zM27 713q0 149 55 286t149 238q96 99 224.5 156t271.5 57q246 0 426 -142.5t242 -385.5h-205q-56 158 -178.5 240.5t-284.5 82.5q-101 0 -192 -40.5t-160 -112.5
t-108.5 -171.5t-39.5 -207.5q0 -210 148 -365q69 -72 160 -112.5t192 -40.5q165 0 292.5 90.5t182.5 251.5h203q-62 -247 -246 -397t-432 -150q-144 0 -272 56.5t-224 156.5q-95 101 -149.5 233t-54.5 277z" />
    <glyph glyph-name="cdotaccent" unicode="&#x10b;" horiz-adv-x="1359" 
d="M575 1413q0 58 38 90.5t89 32.5t88 -32t37 -91q0 -55 -36 -87t-86 -34q-52 -2 -91 30t-39 91zM1051 428h206q-27 -142 -114 -244.5t-201 -150.5t-244 -49q-87 -1 -172 21t-161.5 69t-134.5 113.5t-92 161.5t-34 206q0 138 52 251t138 183t190.5 107.5t215.5 36.5
q130 -1 244 -49.5t200.5 -151t112.5 -244.5h-206q-35 127 -133 196.5t-218 71.5q-72 1 -141.5 -25t-126.5 -75t-92 -127.5t-35 -173.5q0 -96 36 -174.5t94 -125.5t128 -72t142 -23q119 3 215.5 73t130.5 195z" />
    <glyph glyph-name="Ccaron" unicode="&#x10c;" horiz-adv-x="1495" 
d="M850 1782h225l-248 -223h-176l-243 223h221l116 -96zM27 713q0 149 55 286t149 238q96 99 224.5 156t271.5 57q246 0 426 -142.5t242 -385.5h-205q-56 158 -178.5 240.5t-284.5 82.5q-101 0 -192 -40.5t-160 -112.5t-108.5 -171.5t-39.5 -207.5q0 -210 148 -365
q69 -72 160 -112.5t192 -40.5q165 0 292.5 90.5t182.5 251.5h203q-62 -247 -246 -397t-432 -150q-144 0 -272 56.5t-224 156.5q-95 101 -149.5 233t-54.5 277z" />
    <glyph glyph-name="ccaron" unicode="&#x10d;" horiz-adv-x="1341" 
d="M786 1513h226l-248 -223h-176l-244 223h221l117 -96zM1032 422h207q-26 -141 -112.5 -242t-200 -148t-242.5 -48q-111 -2 -213 34t-185 105t-132.5 181t-49.5 251t49 250t131 180t183.5 105t212.5 36q96 0 186 -28t167 -81t131.5 -138.5t74.5 -192.5h-207
q-35 126 -132.5 194t-217.5 68q-71 0 -137.5 -25t-120.5 -72t-86.5 -124t-32.5 -172q0 -96 32 -173.5t86.5 -124.5t121 -72t139.5 -25q120 0 216.5 67.5t131.5 194.5z" />
    <glyph glyph-name="Dcaron" unicode="&#x10e;" horiz-adv-x="1484" 
d="M383 207h307q120 0 217.5 43.5t158 115.5t92.5 162t32 187t-32 189t-92.5 167.5t-158 121.5t-217.5 46h-307v-1032zM176 1446h514q136 0 252.5 -41.5t198.5 -112.5t140 -165t86 -198.5t28 -213.5q0 -137 -45 -263t-130.5 -228t-222.5 -163t-307 -61h-514v1446zM805 1778
h225l-248 -224h-176l-244 224h222l116 -97z" />
    <glyph glyph-name="dcaron" unicode="&#x10f;" horiz-adv-x="1583" 
d="M1042 1434v-469q-118 161 -372 161q-136 0 -246.5 -46.5t-180 -125.5t-106.5 -180t-37 -215q0 -117 35.5 -219.5t104.5 -183t180 -127.5t252 -47q115 2 214.5 42.5t155.5 125.5v-150h201v1434h-201zM1042 555q0 -94 -30.5 -170t-82 -124t-115.5 -73.5t-134 -27.5
q-92 -2 -166 31t-120 90.5t-70 128.5t-23 149q1 75 24.5 143t67.5 123.5t114.5 89.5t158.5 35q72 1 138.5 -24t120 -72.5t85.5 -125t32 -173.5zM1343 1126l70 310h213l-117 -310h-166z" />
    <glyph glyph-name="Dcroat" unicode="&#x110;" horiz-adv-x="1523" 
d="M39 616v187h176v643h514q136 0 252.5 -41.5t198.5 -112.5t140 -165t86 -198.5t28 -213.5q0 -137 -45 -263t-130.5 -228t-222.5 -163t-307 -61h-514v616h-176zM422 207h307q120 0 217.5 43.5t158 115.5t92.5 162t32 187t-32 189t-92.5 167.5t-158 121.5t-217.5 46h-307
v-436h270v-187h-270v-409z" />
    <glyph glyph-name="dcroat" unicode="&#x111;" horiz-adv-x="1400" 
d="M885 1182v137h157v115h201v-115h137v-137h-137v-1182h-201v150q-56 -85 -155.5 -125.5t-214.5 -42.5q-141 0 -252 47t-180 127.5t-104.5 183t-35.5 219.5q0 114 37 215t106.5 180t180 125.5t246.5 46.5q254 0 372 -161v217h-157zM1042 555q0 96 -32 173.5t-85.5 125
t-120 72.5t-138.5 24q-88 -1 -158.5 -35t-114.5 -89.5t-67.5 -123.5t-24.5 -143q-1 -78 23 -149t70 -128.5t120 -90.5t166 -31q70 2 134 27.5t115.5 73.5t82 124t30.5 170z" />
    <glyph glyph-name="Emacron" unicode="&#x112;" horiz-adv-x="1142" 
d="M401 1612v160h517v-160h-517zM385 629v-422h666v-207h-875v1448h873v-207h-664v-403h649v-209h-649z" />
    <glyph glyph-name="emacron" unicode="&#x113;" horiz-adv-x="1351" 
d="M1241 602q6 -48 -4 -96h-938q0 -103 59.5 -185t143.5 -122.5t170 -40.5q107 0 194 46.5t135 137.5h207q-41 -117 -126 -200.5t-190.5 -122.5t-221.5 -39q-109 0 -210 37t-182.5 106t-130.5 180.5t-49 249.5t48.5 249t130 180t183.5 105.5t214 36.5q105 0 201.5 -33.5
t176 -96.5t130.5 -164.5t59 -227.5zM307 672h723q-14 72 -49 126.5t-84 86.5t-105 47.5t-118 15.5q-63 0 -120.5 -16t-108 -48t-87 -86.5t-51.5 -125.5zM428 1372v160h516v-160h-516z" />
    <glyph glyph-name="Ebreve" unicode="&#x114;" horiz-adv-x="1142" 
d="M737 1786h164q0 -56 -21.5 -99t-58.5 -67.5t-82 -36.5t-98 -12q-52 0 -96.5 11.5t-82 36t-58.5 67.5t-21 100h154q0 -53 50 -75t100 0t50 75zM385 629v-422h666v-207h-875v1448h873v-207h-664v-403h649v-209h-649z" />
    <glyph glyph-name="ebreve" unicode="&#x115;" horiz-adv-x="1351" 
d="M1241 602q6 -48 -4 -96h-938q0 -103 59.5 -185t143.5 -122.5t170 -40.5q107 0 194 46.5t135 137.5h207q-41 -117 -126 -200.5t-190.5 -122.5t-221.5 -39q-109 0 -210 37t-182.5 106t-130.5 180.5t-49 249.5t48.5 249t130 180t183.5 105.5t214 36.5q105 0 201.5 -33.5
t176 -96.5t130.5 -164.5t59 -227.5zM307 672h723q-14 72 -49 126.5t-84 86.5t-105 47.5t-118 15.5q-63 0 -120.5 -16t-108 -48t-87 -86.5t-51.5 -125.5zM786 1536h164q0 -56 -21.5 -99t-58.5 -67.5t-82 -36.5t-98 -12q-52 0 -96.5 11.5t-82 36t-58.5 67.5t-21 100h154
q0 -53 50 -75t100 0t50 75z" />
    <glyph glyph-name="Edotaccent" unicode="&#x116;" horiz-adv-x="1142" 
d="M518 1729q0 58 38 90t89 32q52 0 88.5 -31.5t36.5 -90.5q0 -57 -39 -89t-90 -32q-50 0 -86.5 31.5t-36.5 89.5zM385 629v-422h666v-207h-875v1448h873v-207h-664v-403h649v-209h-649z" />
    <glyph glyph-name="edotaccent" unicode="&#x117;" horiz-adv-x="1351" 
d="M1241 602q6 -48 -4 -96h-938q0 -103 59.5 -185t143.5 -122.5t170 -40.5q107 0 194 46.5t135 137.5h207q-41 -117 -126 -200.5t-190.5 -122.5t-221.5 -39q-109 0 -210 37t-182.5 106t-130.5 180.5t-49 249.5t48.5 249t130 180t183.5 105.5t214 36.5q105 0 201.5 -33.5
t176 -96.5t130.5 -164.5t59 -227.5zM307 672h723q-14 72 -49 126.5t-84 86.5t-105 47.5t-118 15.5q-63 0 -120.5 -16t-108 -48t-87 -86.5t-51.5 -125.5zM555 1427q0 58 38 90.5t89 32.5t88 -32t37 -91q0 -56 -38.5 -88t-90.5 -32q-50 0 -86.5 31t-36.5 89z" />
    <glyph glyph-name="Eogonek" unicode="&#x118;" horiz-adv-x="1155" 
d="M385 629v-422h666v-207q-57 -27 -91.5 -68.5t-38.5 -81.5t32 -74t110 -46l-92 -113q-8 0 -22.5 0.5t-52 9t-67.5 24t-57.5 49.5t-34.5 81q-9 67 24 125.5t101 93.5h-686v1448h873v-207h-664v-403h649v-209h-649z" />
    <glyph glyph-name="eogonek" unicode="&#x119;" horiz-adv-x="1339" 
d="M1241 602q6 -48 -4 -96h-938q0 -103 59.5 -185t143.5 -122.5t170 -40.5q107 0 194 46.5t135 137.5h207q-62 -179 -225 -279q-57 -27 -93.5 -71.5t-41 -86.5t33.5 -72.5t117 -31.5l-90 -112q-1 1 -12 -0.5t-30.5 2t-42 7t-47.5 15t-45.5 27t-36.5 43t-21 61.5
q-12 82 47 138q-8 0 -25 -1t-26 -1q-109 0 -210 37t-182.5 106t-130.5 180.5t-49 249.5t48.5 249t130 180t183.5 105.5t214 36.5q105 0 201.5 -33.5t176 -96.5t130.5 -164.5t59 -227.5zM307 672h723q-14 72 -49 126.5t-84 86.5t-105 47.5t-118 15.5q-63 0 -120.5 -16
t-108 -48t-87 -86.5t-51.5 -125.5z" />
    <glyph glyph-name="Ecaron" unicode="&#x11a;" horiz-adv-x="1142" 
d="M762 1776h225l-248 -220h-176l-244 220h222l116 -97zM385 629v-422h666v-207h-875v1448h873v-207h-664v-403h649v-209h-649z" />
    <glyph glyph-name="ecaron" unicode="&#x11b;" horiz-adv-x="1351" 
d="M1241 602q6 -48 -4 -96h-938q0 -103 59.5 -185t143.5 -122.5t170 -40.5q107 0 194 46.5t135 137.5h207q-41 -117 -126 -200.5t-190.5 -122.5t-221.5 -39q-109 0 -210 37t-182.5 106t-130.5 180.5t-49 249.5t48.5 249t130 180t183.5 105.5t214 36.5q105 0 201.5 -33.5
t176 -96.5t130.5 -164.5t59 -227.5zM307 672h723q-14 72 -49 126.5t-84 86.5t-105 47.5t-118 15.5q-63 0 -120.5 -16t-108 -48t-87 -86.5t-51.5 -125.5zM805 1536h225l-248 -219h-176l-244 219h222l116 -96z" />
    <glyph glyph-name="Gcircumflex" unicode="&#x11c;" horiz-adv-x="1619" 
d="M1501 930h-225q-21 85 -71.5 148.5t-117.5 98.5t-137.5 51.5t-144.5 16.5q-142 0 -258 -68t-183 -189.5t-67 -272.5q0 -231 146 -384t362 -153q93 0 179.5 32.5t162.5 104t117 174.5h-541v211h788q-16 -192 -41 -254v3q-74 -205 -267.5 -339.5t-397.5 -134.5
q-203 0 -367 94.5t-258 264t-94 381.5q0 159 56 297.5t152 235.5t229 152.5t282 55.5q88 0 173 -17t170.5 -56.5t155 -98.5t122 -150t75.5 -204zM725 1591h-225l248 224h176l243 -224h-221l-117 97z" />
    <glyph glyph-name="gcircumflex" unicode="&#x11d;" 
d="M1264 41q0 -100 -33 -181.5t-88.5 -135.5t-130 -91t-154 -53t-164.5 -16q-108 0 -202.5 21.5t-170.5 64.5t-120.5 114t-44.5 162h198q0 -50 32 -88t83.5 -58t108 -29.5t114.5 -8.5q69 1 132.5 18.5t118.5 51.5t87.5 93.5t32.5 135.5v117q-118 -156 -373 -156
q-136 0 -248.5 43.5t-186 118.5t-113.5 174.5t-40 212.5q0 116 39 219t111.5 183.5t186.5 127t255 45.5q112 0 212.5 -40.5t158.5 -124.5v147h199v-1067zM688 178q120 0 207 59t127.5 149t40.5 196q0 75 -23 140t-67 115.5t-113.5 80.5t-157.5 32q-122 3 -215 -56
t-138.5 -149.5t-45.5 -193.5q2 -154 106 -263.5t279 -109.5zM623 1321h-226l248 223h176l244 -223h-221l-117 96z" />
    <glyph glyph-name="Gbreve" unicode="&#x11e;" horiz-adv-x="1619" 
d="M1501 930h-225q-21 85 -71.5 148.5t-117.5 98.5t-137.5 51.5t-144.5 16.5q-142 0 -258 -68t-183 -189.5t-67 -272.5q0 -231 146 -384t362 -153q93 0 179.5 32.5t162.5 104t117 174.5h-541v211h788q-16 -192 -41 -254v3q-74 -205 -267.5 -339.5t-397.5 -134.5
q-203 0 -367 94.5t-258 264t-94 381.5q0 159 56 297.5t152 235.5t229 152.5t282 55.5q88 0 173 -17t170.5 -56.5t155 -98.5t122 -150t75.5 -204zM913 1804h164q2 -82 -51.5 -139t-130.5 -70.5t-154 -0.5t-130.5 70t-51.5 140h154q0 -39 31.5 -61t68.5 -22t68.5 22t31.5 61z
" />
    <glyph glyph-name="gbreve" unicode="&#x11f;" 
d="M1264 41q0 -100 -33 -181.5t-88.5 -135.5t-130 -91t-154 -53t-164.5 -16q-108 0 -202.5 21.5t-170.5 64.5t-120.5 114t-44.5 162h198q0 -50 32 -88t83.5 -58t108 -29.5t114.5 -8.5q69 1 132.5 18.5t118.5 51.5t87.5 93.5t32.5 135.5v117q-118 -156 -373 -156
q-136 0 -248.5 43.5t-186 118.5t-113.5 174.5t-40 212.5q0 116 39 219t111.5 183.5t186.5 127t255 45.5q112 0 212.5 -40.5t158.5 -124.5v147h199v-1067zM688 178q120 0 207 59t127.5 149t40.5 196q0 75 -23 140t-67 115.5t-113.5 80.5t-157.5 32q-122 3 -215 -56
t-138.5 -149.5t-45.5 -193.5q2 -154 106 -263.5t279 -109.5zM823 1536h164q2 -82 -51.5 -139t-130.5 -70.5t-154 -0.5t-130.5 70t-51.5 140h154q0 -39 31.5 -61t68.5 -22t68.5 22t31.5 61z" />
    <glyph glyph-name="Gdotaccent" unicode="&#x120;" horiz-adv-x="1619" 
d="M1501 930h-225q-21 85 -71.5 148.5t-117.5 98.5t-137.5 51.5t-144.5 16.5q-142 0 -258 -68t-183 -189.5t-67 -272.5q0 -231 146 -384t362 -153q93 0 179.5 32.5t162.5 104t117 174.5h-541v211h788q-16 -192 -41 -254v3q-74 -205 -267.5 -339.5t-397.5 -134.5
q-203 0 -367 94.5t-258 264t-94 381.5q0 159 56 297.5t152 235.5t229 152.5t282 55.5q88 0 173 -17t170.5 -56.5t155 -98.5t122 -150t75.5 -204zM819 1845q41 0 71 -18t44 -45.5t14.5 -59.5t-13 -59.5t-44 -45.5t-72.5 -18q-47 0 -79.5 25.5t-40.5 61.5t-1 72t40 61.5
t81 25.5z" />
    <glyph glyph-name="gdotaccent" unicode="&#x121;" 
d="M1264 41q0 -100 -33 -181.5t-88.5 -135.5t-130 -91t-154 -53t-164.5 -16q-108 0 -202.5 21.5t-170.5 64.5t-120.5 114t-44.5 162h198q0 -50 32 -88t83.5 -58t108 -29.5t114.5 -8.5q69 1 132.5 18.5t118.5 51.5t87.5 93.5t32.5 135.5v117q-118 -156 -373 -156
q-136 0 -248.5 43.5t-186 118.5t-113.5 174.5t-40 212.5q0 116 39 219t111.5 183.5t186.5 127t255 45.5q112 0 212.5 -40.5t158.5 -124.5v147h199v-1067zM688 178q120 0 207 59t127.5 149t40.5 196q0 75 -23 140t-67 115.5t-113.5 80.5t-157.5 32q-122 3 -215 -56
t-138.5 -149.5t-45.5 -193.5q2 -154 106 -263.5t279 -109.5zM721 1544q41 0 71 -18t44 -45.5t14.5 -59.5t-13 -59.5t-44 -45.5t-72.5 -18q-47 0 -79.5 25.5t-40.5 61.5t-1 72t40 61.5t81 25.5z" />
    <glyph glyph-name="Gcommaaccent" unicode="&#x122;" horiz-adv-x="1619" 
d="M1501 930h-225q-21 85 -71.5 148.5t-117.5 98.5t-137.5 51.5t-144.5 16.5q-142 0 -258 -68t-183 -189.5t-67 -272.5q0 -231 146 -384t362 -153q93 0 179.5 32.5t162.5 104t117 174.5h-541v211h788q-16 -192 -41 -254v3q-74 -205 -267.5 -339.5t-397.5 -134.5
q-203 0 -367 94.5t-258 264t-94 381.5q0 159 56 297.5t152 235.5t229 152.5t282 55.5q88 0 173 -17t170.5 -56.5t155 -98.5t122 -150t75.5 -204zM721 -193h215q56 -189 -55 -319l-176 2q24 69 33.5 111t7 95.5t-24.5 110.5z" />
    <glyph glyph-name="gcommaaccent" unicode="&#x123;" 
d="M1264 41q0 -100 -33 -181.5t-88.5 -135.5t-130 -91t-154 -53t-164.5 -16q-108 0 -202.5 21.5t-170.5 64.5t-120.5 114t-44.5 162h198q0 -50 32 -88t83.5 -58t108 -29.5t114.5 -8.5q69 1 132.5 18.5t118.5 51.5t87.5 93.5t32.5 135.5v117q-118 -156 -373 -156
q-136 0 -248.5 43.5t-186 118.5t-113.5 174.5t-40 212.5q0 116 39 219t111.5 183.5t186.5 127t255 45.5q112 0 212.5 -40.5t158.5 -124.5v147h199v-1067zM688 178q120 0 207 59t127.5 149t40.5 196q0 75 -23 140t-67 115.5t-113.5 80.5t-157.5 32q-122 3 -215 -56
t-138.5 -149.5t-45.5 -193.5q2 -154 106 -263.5t279 -109.5zM829 1286h-208q-53 182 55 309l170 -2q-23 -68 -32 -107.5t-7.5 -92t22.5 -107.5z" />
    <glyph glyph-name="Hcircumflex" unicode="&#x124;" horiz-adv-x="1193" 
d="M258 1434v-607h606v607h209v-1434h-209v623h-606v-623h-207v1434h207zM440 1538h-225l248 223h176l244 -223h-221l-117 96z" />
    <glyph glyph-name="hcircumflex" unicode="&#x125;" horiz-adv-x="1327" 
d="M164 1530h-225l247 223h176l244 -223h-221l-117 96zM346 1434v-463q60 84 143.5 118.5t196.5 34.5q245 0 364 -140t119 -388v-596h-200v594q0 83 -12.5 142.5t-43 108.5t-89 74.5t-144.5 26.5q-156 3 -245 -94.5t-89 -249.5v-602h-199v1434h199z" />
    <glyph glyph-name="Hbar" unicode="&#x126;" horiz-adv-x="1265" 
d="M-20 1042v177h100v215h207v-215h606v215h209v-215h110v-177h-110v-1042h-209v623h-606v-623h-207v1042h-100zM287 1042v-215h606v215h-606z" />
    <glyph glyph-name="hbar" unicode="&#x127;" horiz-adv-x="1327" 
d="M18 1192v135h129v107h199v-107h166v-135h-166v-221q60 84 143.5 118.5t196.5 34.5q245 0 364 -140t119 -388v-596h-200v594q0 83 -12.5 142.5t-43 108.5t-89 74.5t-144.5 26.5q-156 3 -245 -94.5t-89 -249.5v-602h-199v1192h-129z" />
    <glyph glyph-name="Itilde" unicode="&#x128;" horiz-adv-x="835" 
d="M756 1446v-195h-267v-1044h267v-207h-740v207h267v1044h-267v195h740zM625 1825l102 -84q-38 -72 -98 -109.5t-127 -32.5q-38 3 -75.5 24t-71 43t-62.5 24q-28 2 -62 -15t-63 -53l-113 80q46 73 110.5 109.5t131.5 33.5q39 -3 79.5 -25.5t73.5 -43.5t56 -23q65 -3 119 72
z" />
    <glyph glyph-name="itilde" unicode="&#x129;" horiz-adv-x="550" 
d="M453 1542l86 -84q-31 -70 -81 -103t-108 -28q-40 3 -94.5 41t-81.5 41q-22 2 -50.5 -15t-53.5 -53l-95 80q38 69 96 102.5t117 30.5q33 -3 64 -21.5t56 -36t44 -19.5q60 -4 101 65zM367 1120v-1120h-201v1120h201z" />
    <glyph glyph-name="Imacron" unicode="&#x12a;" horiz-adv-x="835" 
d="M129 1604v165h522v-165h-522zM756 1446v-195h-267v-1044h267v-207h-740v207h267v1044h-267v195h740z" />
    <glyph glyph-name="imacron" unicode="&#x12b;" horiz-adv-x="550" 
d="M18 1294v158h506v-158h-506zM367 0v1120h-201v-1120h201z" />
    <glyph glyph-name="Ibreve" unicode="&#x12c;" horiz-adv-x="835" 
d="M481 1800h164q0 -56 -21.5 -99t-58.5 -67.5t-82 -36.5t-98 -12q-52 0 -96.5 11.5t-82 36t-58.5 67.5t-21 100h154q0 -53 50 -75t100 0t50 75zM756 1446v-195h-267v-1044h267v-207h-740v207h267v1044h-267v195h740z" />
    <glyph glyph-name="ibreve" unicode="&#x12d;" horiz-adv-x="550" 
d="M358 1452h164q0 -56 -21.5 -99t-58.5 -67.5t-82 -36.5t-98 -12q-52 0 -96.5 11.5t-82 36t-58.5 67.5t-21 100h154q0 -53 50 -75t100 0t50 75zM367 0v1120h-201v-1120h201z" />
    <glyph glyph-name="Iogonek" unicode="&#x12e;" horiz-adv-x="835" 
d="M756 1458v-205h-267v-1046h267v-207h-242q-127 -65 -111 -174q4 -31 40 -56t70 -34l34 -10l-98 -107q-9 0 -23.5 1t-52.5 10t-68.5 25t-58.5 50.5t-35 81.5q-9 61 17 119.5t87 93.5h-299v207h267v1046h-267v205h740z" />
    <glyph glyph-name="iogonek" unicode="&#x12f;" horiz-adv-x="550" 
d="M367 1120v-1120h-7q-120 -64 -104 -172q4 -31 40 -56t70 -34l33 -10l-98 -107q-9 0 -23.5 1t-53.5 10t-70 25t-59.5 50.5t-35.5 81.5q-9 61 18.5 119t88.5 94v1118h201z" />
    <glyph glyph-name="Idotaccent" unicode="&#x130;" horiz-adv-x="835" 
d="M756 1243v205h-740v-205h267v-1036h-267v-207h740v207h-267v1036h267zM383 1829q58 0 92 -37t34.5 -82t-33 -82t-93.5 -37q-57 0 -90 37t-33.5 82t32 82t91.5 37z" />
    <glyph glyph-name="dotlessi" unicode="&#x131;" horiz-adv-x="550" 
d="M367 1128v-1128h-201v1128h201z" />
    <glyph glyph-name="IJ" unicode="&#x132;" horiz-adv-x="1585" 
d="M756 1446v-189h-267v-1060h267v-197h-740v197h267v1060h-267v189h740zM874 0v201q92 0 162 20t115 56t73.5 89.5t40 115t11.5 139.5v636h-387v189h594v-825q0 -148 -33 -260t-104 -194.5t-189.5 -124.5t-282.5 -42z" />
    <glyph glyph-name="ij" unicode="&#x133;" horiz-adv-x="1007" 
d="M367 0v1141h-201v-1141h201zM623 1352q0 54 38 84t89 30q50 0 86 -29.5t36 -84.5t-38 -86t-89 -31q-50 0 -86 31t-36 86zM647 1139v-1131q0 -199 -250 -176v-176q211 -23 331 63.5t120 300.5v1119h-201zM147 1352q0 54 39 85t86 31.5t86 -30.5t39 -86q0 -32 -14 -57.5
t-36 -38.5t-48.5 -19t-53 0t-48.5 19t-36 38.5t-14 57.5z" />
    <glyph glyph-name="Jcircumflex" unicode="&#x134;" horiz-adv-x="960" 
d="M774 1446v-825q0 -217 -74.5 -351.5t-241.5 -202t-442 -67.5v195q158 0 265 26t170 81t89.5 131.5t26.5 187.5v636h-387v189h594zM360 1583h-225l248 223h176l244 -223h-221l-117 96z" />
    <glyph glyph-name="jcircumflex" unicode="&#x135;" horiz-adv-x="704" 
d="M184 1241h-196l217 229h153l213 -229h-192l-103 98zM180 1120h201v-1161q0 -110 -32.5 -187t-93.5 -119t-142 -56t-183 -3v177q250 -23 250 176v1173z" />
    <glyph glyph-name="Kcommaaccent" unicode="&#x136;" horiz-adv-x="1224" 
d="M176 1432h205v-1432h-205v1432zM420 664v104l500 664h260l-547 -711l604 -721h-270zM547 -90h207q54 -181 -64 -320l-160 2q24 69 33.5 111t7.5 96t-24 111z" />
    <glyph glyph-name="kcommaaccent" unicode="&#x137;" horiz-adv-x="1140" 
d="M494 -113h206q56 -189 -55 -319l-168 2q24 69 33.5 110.5t7.5 95.5t-24 111zM365 1444v-866l170 202l307 328h241l-446 -477l475 -613v-18h-231l-373 492l-143 -154v-338h-201v1444h201z" />
    <glyph glyph-name="kgreenlandic" unicode="&#x138;" horiz-adv-x="1140" 
d="M365 1139v-561l170 202l329 357h230l-457 -506l475 -613v-18h-231l-373 492l-143 -154v-338h-201v1139h201z" />
    <glyph glyph-name="Lacute" unicode="&#x139;" horiz-adv-x="1067" 
d="M383 1448v-1241h674v-207h-881v1448h207zM371 1556h-178l147 220h262z" />
    <glyph glyph-name="lacute" unicode="&#x13a;" horiz-adv-x="507" 
d="M330 1573h-178l116 219h248zM354 1434v-1434h-200v1434h200z" />
    <glyph glyph-name="Lcommaaccent" unicode="&#x13b;" horiz-adv-x="1067" 
d="M383 1456v-1249h674v-207h-881v1456h207zM514 -152h207q54 -181 -64 -319l-159 2q24 69 33.5 111t7 95.5t-24.5 110.5z" />
    <glyph glyph-name="lcommaaccent" unicode="&#x13c;" horiz-adv-x="507" 
d="M150 -154h206q54 -182 -63 -319l-160 2q24 69 33.5 110.5t7.5 95.5t-24 111zM354 1436v-1436h-200v1436h200z" />
    <glyph glyph-name="Lcaron" unicode="&#x13d;" horiz-adv-x="1153" 
d="M383 1448v-1241h674v-207h-881v1448h207zM825 1432h207q54 -182 -63 -320l-160 2q24 68 33.5 110.5t7 96.5t-24.5 111z" />
    <glyph glyph-name="lcaron" unicode="&#x13e;" horiz-adv-x="765" 
d="M524 1432h195q27 -80 13.5 -172.5t-70.5 -159.5l-148 2q64 156 10 330zM354 1434v-1434h-200v1434h200z" />
    <glyph glyph-name="Ldot" unicode="&#x13f;" horiz-adv-x="1067" 
d="M383 1446v-1239h674v-207h-881v1446h207zM639 766q0 39 18.5 67.5t46.5 42t61 14t61 -12.5t46.5 -42t18.5 -69q0 -45 -26 -76.5t-63 -39t-74 -1t-63 38t-26 78.5z" />
    <glyph glyph-name="ldot" unicode="&#x140;" horiz-adv-x="864" 
d="M553 786q0 58 38 90.5t89 32.5t88 -32t37 -91q0 -55 -37.5 -86.5t-87.5 -33.5q-51 -2 -89 30t-38 90zM354 1434v-1434h-200v1434h200z" />
    <glyph glyph-name="Lslash" unicode="&#x141;" horiz-adv-x="1079" 
d="M395 668v-461h674v-207h-881v549l-135 -78v205l135 80v692h207v-574l223 130v-209z" />
    <glyph glyph-name="lslash" unicode="&#x142;" horiz-adv-x="507" 
d="M354 702v-702h-200v590l-125 -70v195l125 69v662h200v-547l146 84v-199z" />
    <glyph glyph-name="Nacute" unicode="&#x143;" horiz-adv-x="1415" 
d="M383 0h-207v1434h160l698 -1010v1010h205v-1434h-164l-692 1001v-1001zM719 1606h-172l135 219h250z" />
    <glyph glyph-name="nacute" unicode="&#x144;" horiz-adv-x="1327" 
d="M698 1317h-172l136 219h249zM154 1108h200v-137q58 84 142.5 118.5t197.5 34.5q245 0 363.5 -140t118.5 -388v-596h-199v594q0 83 -12.5 142.5t-43 108.5t-89 74.5t-144.5 26.5q-156 3 -245 -94.5t-89 -249.5v-602h-200v1108z" />
    <glyph glyph-name="Ncommaaccent" unicode="&#x145;" horiz-adv-x="1415" 
d="M383 0h-207v1434h160l698 -1010v1010h205v-1434h-164l-692 1001v-1001zM633 -139h207q54 -181 -64 -320l-160 2q24 69 33.5 111t7.5 96t-24 111z" />
    <glyph glyph-name="ncommaaccent" unicode="&#x146;" horiz-adv-x="1327" 
d="M571 -121h207q54 -182 -63 -319l-160 2q24 69 33.5 111t7 95.5t-24.5 110.5zM154 1108h200v-137q58 84 142.5 118.5t197.5 34.5q245 0 363.5 -140t118.5 -388v-596h-199v594q0 83 -12.5 142.5t-43 108.5t-89 74.5t-144.5 26.5q-156 3 -245 -94.5t-89 -249.5v-602h-200
v1108z" />
    <glyph glyph-name="Ncaron" unicode="&#x147;" horiz-adv-x="1415" 
d="M383 0h-207v1434h160l698 -1010v1010h205v-1434h-164l-692 1001v-1001zM799 1796h221l-248 -223h-176l-244 223h217l121 -100z" />
    <glyph glyph-name="ncaron" unicode="&#x148;" horiz-adv-x="1327" 
d="M776 1534h221l-247 -223h-177l-243 223h217l121 -100zM154 1108h200v-137q58 84 142.5 118.5t197.5 34.5q245 0 363.5 -140t118.5 -388v-596h-199v594q0 83 -12.5 142.5t-43 108.5t-89 74.5t-144.5 26.5q-156 3 -245 -94.5t-89 -249.5v-602h-200v1108z" />
    <glyph glyph-name="napostrophe" unicode="&#x149;" horiz-adv-x="1415" 
d="M16 1440h193q21 -84 11.5 -150.5t-48.5 -146.5h-170q22 63 31 103.5t6.5 90.5t-23.5 103zM242 1108h200v-137q58 84 142.5 118.5t197.5 34.5q245 0 363.5 -140t118.5 -388v-596h-199v594q0 83 -12.5 142.5t-43 108.5t-89 74.5t-144.5 26.5q-156 3 -245 -94.5t-89 -249.5
v-602h-200v1108z" />
    <glyph glyph-name="Eng" unicode="&#x14a;" horiz-adv-x="1415" 
d="M383 0h-207v1434h160l698 -1010v1010h205v-1502q0 -172 -119 -266.5t-323 -79.5v168q119 0 181 39t62 139v117l-657 952v-1001z" />
    <glyph glyph-name="eng" unicode="&#x14b;" horiz-adv-x="1327" 
d="M154 1108h200v-137q58 84 142.5 118.5t197.5 34.5q245 0 363.5 -140t118.5 -388v-664q0 -172 -119.5 -266.5t-323.5 -79.5v168q119 0 181.5 39.5t62.5 138.5v662q0 83 -12.5 142.5t-43 108.5t-89 74.5t-144.5 26.5q-156 3 -245 -94.5t-89 -249.5v-602h-200v1108z" />
    <glyph glyph-name="Omacron" unicode="&#x14c;" horiz-adv-x="1617" 
d="M547 1610v182h522v-182h-522zM1323 717q0 -107 -40.5 -202.5t-111.5 -168.5q-73 -73 -169.5 -114.5t-200.5 -41.5t-199.5 41.5t-167.5 114.5q-72 72 -112.5 168t-40.5 203t40.5 202.5t112.5 167.5q72 73 167.5 114.5t199.5 41.5t200.5 -41.5t169.5 -114.5
q152 -155 152 -370zM72 717q0 -148 56.5 -281.5t156.5 -236.5t233.5 -160t282.5 -57q150 0 283 57t235 160q100 103 156.5 236.5t56.5 281.5t-56.5 281.5t-156.5 236.5q-102 102 -235.5 159.5t-282.5 57.5q-148 0 -282 -57.5t-234 -159.5q-100 -103 -156.5 -236.5
t-56.5 -281.5z" />
    <glyph glyph-name="omacron" unicode="&#x14d;" 
d="M1300 553q0 -112 -33.5 -206.5t-91 -161t-134.5 -113.5t-163 -69.5t-178 -22.5q-90 0 -175.5 22.5t-161.5 70t-133 114t-90.5 161t-33.5 205.5q0 112 33.5 206.5t91 161t134.5 113.5t163.5 69.5t178.5 22.5q91 0 176.5 -22.5t161.5 -70t132.5 -114t89.5 -161t33 -205.5z
M307 553q0 -94 33.5 -170t89.5 -123.5t125.5 -73t144.5 -26.5q77 -1 148 24t128 72.5t91.5 124.5t34.5 172t-34 172t-90 124.5t-126 73t-145 25.5q-77 0 -147.5 -25t-127.5 -72.5t-91 -125t-34 -172.5zM451 1348v182h522v-182h-522z" />
    <glyph glyph-name="Obreve" unicode="&#x14e;" horiz-adv-x="1617" 
d="M1323 717q0 -107 -40.5 -202.5t-111.5 -168.5q-73 -73 -169.5 -114.5t-200.5 -41.5t-199.5 41.5t-167.5 114.5q-72 72 -112.5 168t-40.5 203t40.5 202.5t112.5 167.5q72 73 167.5 114.5t199.5 41.5t200.5 -41.5t169.5 -114.5q152 -155 152 -370zM72 717
q0 -148 56.5 -281.5t156.5 -236.5t233.5 -160t282.5 -57q150 0 283 57t235 160q100 103 156.5 236.5t56.5 281.5t-56.5 281.5t-156.5 236.5q-102 102 -235.5 159.5t-282.5 57.5q-148 0 -282 -57.5t-234 -159.5q-100 -103 -156.5 -236.5t-56.5 -281.5zM887 1802h164
q0 -56 -21.5 -99t-58.5 -67.5t-82 -36.5t-98 -12q-111 0 -185 52.5t-74 162.5h154q0 -53 50 -75t100.5 0t50.5 75z" />
    <glyph glyph-name="obreve" unicode="&#x14f;" 
d="M1300 553q0 -112 -33.5 -206.5t-91 -161t-134.5 -113.5t-163 -69.5t-178 -22.5q-90 0 -175.5 22.5t-161.5 70t-133 114t-90.5 161t-33.5 205.5q0 112 33.5 206.5t91 161t134.5 113.5t163.5 69.5t178.5 22.5q91 0 176.5 -22.5t161.5 -70t132.5 -114t89.5 -161t33 -205.5z
M307 553q0 -94 33.5 -170t89.5 -123.5t125.5 -73t144.5 -26.5q77 -1 148 24t128 72.5t91.5 124.5t34.5 172t-34 172t-90 124.5t-126 73t-145 25.5q-77 0 -147.5 -25t-127.5 -72.5t-91 -125t-34 -172.5zM803 1536h164q0 -56 -21.5 -99t-58.5 -67.5t-82 -36.5t-98 -12
q-52 0 -96.5 11.5t-82 36t-58.5 67.5t-21 100h153q0 -53 50 -75t100.5 0t50.5 75z" />
    <glyph glyph-name="Ohungarumlaut" unicode="&#x150;" horiz-adv-x="1617" 
d="M860 1593l139 232h220l-179 -232h-180zM557 1593l129 232h205l-156 -232h-178zM1323 717q0 -107 -40.5 -202.5t-111.5 -168.5q-73 -73 -169.5 -114.5t-200.5 -41.5t-199.5 41.5t-167.5 114.5q-72 72 -112.5 168t-40.5 203t40.5 202.5t112.5 167.5q72 73 167.5 114.5
t199.5 41.5t200.5 -41.5t169.5 -114.5q152 -155 152 -370zM72 717q0 -148 56.5 -281.5t156.5 -236.5t233.5 -160t282.5 -57q150 0 283 57t235 160q100 103 156.5 236.5t56.5 281.5t-56.5 281.5t-156.5 236.5q-102 102 -235.5 159.5t-282.5 57.5q-148 0 -282 -57.5
t-234 -159.5q-100 -103 -156.5 -236.5t-56.5 -281.5z" />
    <glyph glyph-name="ohungarumlaut" unicode="&#x151;" 
d="M1300 553q0 -112 -33.5 -206.5t-91 -161t-134.5 -113.5t-163 -69.5t-178 -22.5q-90 0 -175.5 22.5t-161.5 70t-133 114t-90.5 161t-33.5 205.5q0 112 33.5 206.5t91 161t134.5 113.5t163.5 69.5t178.5 22.5q91 0 176.5 -22.5t161.5 -70t132.5 -114t89.5 -161t33 -205.5z
M307 553q0 -94 33.5 -170t89.5 -123.5t125.5 -73t144.5 -26.5q77 -1 148 24t128 72.5t91.5 124.5t34.5 172t-34 172t-90 124.5t-126 73t-145 25.5q-77 0 -147.5 -25t-127.5 -72.5t-91 -125t-34 -172.5zM760 1303l139 231h219l-178 -231h-180zM457 1303l129 231h205
l-156 -231h-178z" />
    <glyph glyph-name="OE" unicode="&#x152;" horiz-adv-x="1851" 
d="M1100 649v-442h665v-207h-847q-80 -18 -164 -18q-153 0 -286 51t-231.5 144t-155 232.5t-56.5 307.5q0 166 47.5 303.5t137.5 238t229.5 156t314.5 55.5q93 0 172 -20h837v-188h-663v-402h649v-211h-649zM754 1270q-126 0 -226 -41.5t-164 -116t-97.5 -175t-33.5 -220.5
q0 -134 43.5 -240.5t117.5 -172t166 -100t194 -34.5q70 0 137 18v1061q-67 21 -137 21z" />
    <glyph glyph-name="oe" unicode="&#x153;" horiz-adv-x="2281" 
d="M2185 553q0 -30 -4 -80h-934q24 -150 129 -232.5t238 -82.5q107 0 194.5 46.5t135.5 137.5h206q-41 -117 -126 -200.5t-190.5 -122.5t-221.5 -39q-143 0 -267.5 63.5t-199.5 189.5q-51 -77 -124 -132t-155 -83t-171 -32.5t-173 15t-160 66t-132.5 113t-90 163
t-33.5 210.5t34 211.5t91 164.5t134 113.5t161.5 66t174 14.5t171.5 -35t155 -88t122 -138q46 78 116.5 135t151.5 86t170.5 34t174 -13.5t162 -64.5t135 -112.5t92 -163t34.5 -210.5zM307 553q0 -95 32 -172t84.5 -124.5t119 -73t136.5 -25.5t136.5 25.5t119 73t84.5 124.5
t32 172t-32 172t-84.5 124.5t-119 73t-136.5 25.5t-136.5 -25.5t-119 -73t-84.5 -124.5t-32 -172zM1247 641h729q-18 99 -74.5 170t-131 104t-159 33t-159 -33t-131 -104t-74.5 -170z" />
    <glyph glyph-name="Racute" unicode="&#x154;" horiz-adv-x="1220" 
d="M457 629v98h241q123 0 191.5 74t68.5 176q0 47 -16.5 93.5t-47.5 85.5t-82 63t-114 24h-317v-1243h-205v1452h522q112 0 203.5 -42t147.5 -111t86 -152t30 -170q0 -104 -40 -194t-125.5 -156.5t-204.5 -87.5l452 -539h-268zM672 1575h-166l137 205h215z" />
    <glyph glyph-name="racute" unicode="&#x155;" horiz-adv-x="860" 
d="M512 1243h-166l137 205h215zM154 1106h198v-135q52 73 123.5 113t151.5 44.5t170 -14.5v-176q-111 33 -214.5 -3t-167 -127t-63.5 -208v-600h-198v1106z" />
    <glyph glyph-name="Rcommaaccent" unicode="&#x156;" horiz-adv-x="1220" 
d="M457 629v98h241q123 0 191.5 74t68.5 176q0 47 -16.5 93.5t-47.5 85.5t-82 63t-114 24h-317v-1243h-205v1452h522q112 0 203.5 -42t147.5 -111t86 -152t30 -170q0 -104 -40 -194t-125.5 -156.5t-204.5 -87.5l452 -539h-268zM592 -135h194q51 -171 -59 -299l-149 2
q22 63 31 103.5t6.5 90.5t-23.5 103z" />
    <glyph glyph-name="rcommaaccent" unicode="&#x157;" horiz-adv-x="872" 
d="M168 -156h194q51 -171 -59 -299l-149 2q22 63 31 103.5t6.5 90.5t-23.5 103zM166 1106h199v-135q52 73 123.5 113t151 44.5t169.5 -14.5v-176q-69 18 -133.5 14t-121 -34.5t-98.5 -75.5t-66.5 -108.5t-24.5 -133.5v-600h-199v1106z" />
    <glyph glyph-name="Rcaron" unicode="&#x158;" horiz-adv-x="1220" 
d="M457 629v98h241q123 0 191.5 74t68.5 176q0 47 -16.5 93.5t-47.5 85.5t-82 63t-114 24h-317v-1243h-205v1452h522q112 0 203.5 -42t147.5 -111t86 -152t30 -170q0 -104 -40 -194t-125.5 -156.5t-204.5 -87.5l452 -539h-268zM743 1788h220l-242 -217h-170l-238 217h215
l113 -94z" />
    <glyph glyph-name="rcaron" unicode="&#x159;" horiz-adv-x="872" 
d="M590 1513h219l-242 -217h-170l-237 217h215l112 -94zM154 1106h198v-135q52 73 123.5 113t151.5 44.5t170 -14.5v-176q-111 33 -214.5 -3t-167 -127t-63.5 -208v-600h-198v1106z" />
    <glyph glyph-name="Sacute" unicode="&#x15a;" horiz-adv-x="1218" 
d="M1098 1071l-205 -8q-14 61 -61 104t-106.5 61t-125.5 17q-78 -2 -149 -29t-111 -79q-42 -53 -35 -133q2 -36 16 -63.5t40 -46t52 -31t68 -20.5t72 -12t78 -8q57 -7 102 -15.5t101 -23.5t99 -37.5t83.5 -53t68.5 -75.5t41 -100q11 -57 11 -94q0 -100 -47 -184t-123 -138
t-170.5 -84t-192.5 -30q-67 0 -135.5 15.5t-133.5 47.5t-117 77t-87 109t-43 138l-2 39l209 4l2 -31v8q10 -93 104.5 -147.5t204.5 -54.5q124 0 223 64.5t99 168.5q0 22 -6 49q-6 26 -21.5 47t-41 35t-50.5 24t-64 17t-67 10.5t-72 7.5q-56 6 -98 12t-95.5 19t-93.5 30.5
t-81 45.5t-68.5 63.5t-47 87t-24.5 113.5v-2q-13 153 78 272q70 91 187.5 141t246.5 50q85 0 164.5 -22.5t148 -67t115.5 -118.5t60 -169zM668 1595h-179l148 220h262z" />
    <glyph glyph-name="sacute" unicode="&#x15b;" horiz-adv-x="1067" 
d="M592 1313h-178l147 219h262zM293 788q0 -20 5 -37.5t12 -30t20.5 -23t24.5 -17.5t31 -12.5t31.5 -8.5t35 -5.5t33.5 -3t34 -2t31 -1.5q446 -30 446 -332q0 -74 -28.5 -133t-74 -96t-107 -61t-123.5 -33.5t-129 -9.5q-90 0 -167 19.5t-141.5 60.5t-104 112t-44.5 166h201
q6 -90 81 -138t185 -46q42 1 82 8.5t80.5 24.5t65 50t24.5 78q1 44 -26 75t-73 46t-85.5 21t-84.5 8q-65 3 -122 12t-116 31.5t-101 56.5t-68.5 89.5t-26.5 127.5q0 74 25.5 134t68 99t100.5 65t120 37t129 11q85 0 158 -19t132.5 -56.5t96 -101.5t41.5 -148h-199
q-7 70 -73.5 107.5t-162.5 37.5q-101 0 -169 -40.5t-68 -121.5z" />
    <glyph glyph-name="Scircumflex" unicode="&#x15c;" horiz-adv-x="1218" 
d="M1098 1071l-205 -8q-14 61 -61 104t-106.5 61t-125.5 17q-78 -2 -149 -29t-111 -79q-42 -53 -35 -133q2 -36 16 -63.5t40 -46t52 -31t68 -20.5t72 -12t78 -8q57 -7 102 -15.5t101 -23.5t99 -37.5t83.5 -53t68.5 -75.5t41 -100q11 -57 11 -94q0 -100 -47 -184t-123 -138
t-170.5 -84t-192.5 -30q-67 0 -135.5 15.5t-133.5 47.5t-117 77t-87 109t-43 138l-2 39l209 4l2 -31v8q10 -93 104.5 -147.5t204.5 -54.5q124 0 223 64.5t99 168.5q0 22 -6 49q-6 26 -21.5 47t-41 35t-50.5 24t-64 17t-67 10.5t-72 7.5q-56 6 -98 12t-95.5 19t-93.5 30.5
t-81 45.5t-68.5 63.5t-47 87t-24.5 113.5v-2q-13 153 78 272q70 91 187.5 141t246.5 50q85 0 164.5 -22.5t148 -67t115.5 -118.5t60 -169zM535 1581h-226l248 223h176l244 -223h-221l-117 96z" />
    <glyph glyph-name="scircumflex" unicode="&#x15d;" horiz-adv-x="1067" 
d="M455 1307h-226l248 223h176l244 -223h-221l-117 96zM293 788q0 -20 5 -37.5t12 -30t20.5 -23t24.5 -17.5t31 -12.5t31.5 -8.5t35 -5.5t33.5 -3t34 -2t31 -1.5q446 -30 446 -332q0 -74 -28.5 -133t-74 -96t-107 -61t-123.5 -33.5t-129 -9.5q-90 0 -167 19.5t-141.5 60.5
t-104 112t-44.5 166h201q6 -90 81 -138t185 -46q42 1 82 8.5t80.5 24.5t65 50t24.5 78q1 44 -26 75t-73 46t-85.5 21t-84.5 8q-65 3 -122 12t-116 31.5t-101 56.5t-68.5 89.5t-26.5 127.5q0 74 25.5 134t68 99t100.5 65t120 37t129 11q85 0 158 -19t132.5 -56.5t96 -101.5
t41.5 -148h-199q-7 70 -73.5 107.5t-162.5 37.5q-101 0 -169 -40.5t-68 -121.5z" />
    <glyph glyph-name="Scedilla" unicode="&#x15e;" horiz-adv-x="1218" 
d="M1098 1071l-205 -8q-14 61 -61 104t-106.5 61t-125.5 17q-78 -2 -149 -29t-111 -79q-42 -53 -35 -133q2 -36 16 -63.5t40 -46t52 -31t68 -20.5t72 -12t78 -8q57 -7 102 -15.5t101 -23.5t99 -37.5t83.5 -53t68.5 -75.5t41 -100q11 -57 11 -94q0 -89 -37.5 -166
t-100.5 -130t-141.5 -87.5t-165.5 -46.5l-26 -66q88 -4 136 -55.5t40 -118.5q-6 -53 -39 -95.5t-80 -66.5t-104 -31t-109.5 4.5t-97 47t-66.5 90.5l123 57q27 -36 63 -50.5t66 -9t53.5 22t28.5 37.5q3 12 -1.5 25t-17.5 26t-37.5 21t-61 11t-87.5 -3l68 152q-80 8 -155.5 36
t-140 75t-107.5 117.5t-52 154.5l-2 39l209 4l2 -31v8q10 -93 104.5 -147.5t204.5 -54.5q124 0 223 64.5t99 168.5q0 22 -6 49q-6 26 -21.5 47t-41 35t-50.5 24t-64 17t-67 10.5t-72 7.5q-56 6 -98 12t-95.5 19t-93.5 30.5t-81 45.5t-68.5 63.5t-47 87t-24.5 113.5v-2
q-13 153 78 272q70 91 187.5 141t246.5 50q85 0 164.5 -22.5t148 -67t115.5 -118.5t60 -169z" />
    <glyph glyph-name="scedilla" unicode="&#x15f;" horiz-adv-x="1067" 
d="M293 788q0 -20 5 -37.5t12 -30t20.5 -23t24.5 -17.5t31 -12.5t31.5 -8.5t35 -5.5t33.5 -3t34 -2t31 -1.5q446 -30 446 -332q0 -80 -31.5 -142t-86.5 -100t-118.5 -59t-137.5 -28l-27 -101q105 -5 163 -48.5t40 -119.5q-6 -53 -40.5 -95.5t-83.5 -66.5t-109 -31
t-114.5 4.5t-100.5 47t-68 90.5l123 58q27 -36 66.5 -50.5t74 -9t60.5 22t30 37.5q5 28 -16.5 47t-73.5 27.5t-137 -1.5l63 189q-80 5 -147 28t-122 64t-88.5 108t-37.5 154h201q6 -90 81 -138t185 -46q42 1 82 8.5t80.5 24.5t65 50t24.5 78q1 44 -26 75t-73 46t-85.5 21
t-84.5 8q-65 3 -122 12t-116 31.5t-101 56.5t-68.5 89.5t-26.5 127.5q0 74 25.5 134t68 99t100.5 65t120 37t129 11q85 0 158 -19t132.5 -56.5t96 -101.5t41.5 -148h-199q-7 70 -73.5 107.5t-162.5 37.5q-101 0 -169 -40.5t-68 -121.5z" />
    <glyph glyph-name="Scaron" unicode="&#x160;" horiz-adv-x="1175" 
d="M1040 1071l-204 -8q-14 61 -61 104t-106.5 61t-125.5 17q-78 -2 -149 -29t-111 -79q-42 -53 -35 -133q2 -31 13.5 -55.5t27.5 -42t43 -31t51 -21.5t60.5 -14.5t63 -9.5t66.5 -7q57 -7 102 -15.5t101 -23.5t99 -37.5t84 -53t69 -75.5t41 -100q10 -52 10 -94
q0 -100 -46.5 -184t-123 -138t-170.5 -84t-192 -30q-67 0 -135.5 15.5t-133.5 47.5t-117 77t-87 109t-43 138l-2 39l209 4l2 -31v8q10 -93 104.5 -147.5t204.5 -54.5q124 0 222.5 64.5t98.5 168.5q0 22 -6 49q-6 26 -21 47t-40.5 35t-50.5 24t-64 17t-67 10.5t-72 7.5
q-56 6 -98 12t-95.5 19t-93.5 30.5t-81 45.5t-68.5 63.5t-47 87t-24.5 113.5v-2q-13 153 78 272q70 91 187.5 141t246.5 50q85 0 164.5 -22.5t147.5 -67t115 -118.5t60 -169zM674 1792h225l-252 -227h-176l-250 227h221l123 -102z" />
    <glyph glyph-name="scaron" unicode="&#x161;" horiz-adv-x="1058" 
d="M285 788q0 -20 5 -37.5t12 -30t20.5 -23t24.5 -17.5t31 -12.5t31.5 -8.5t35 -5.5t33.5 -3t34 -2t31 -1.5q446 -30 446 -332q0 -74 -28.5 -133t-74 -96t-107.5 -61t-124 -33.5t-129 -9.5q-89 0 -166.5 19.5t-141.5 60.5t-103.5 112t-44.5 166h200q6 -90 81.5 -138
t185.5 -46q42 1 82 8.5t80 24.5t64.5 50t24.5 78q1 44 -26 75t-73 46t-85 21t-84 8q-65 3 -122 12t-116 31.5t-101 56.5t-68.5 89.5t-26.5 127.5q0 74 25.5 134t68 99t100.5 65t119.5 37t128.5 11q85 0 158 -19t132.5 -56.5t96 -101.5t41.5 -148h-198q-7 70 -73.5 107.5
t-162.5 37.5q-101 0 -169 -40.5t-68 -121.5zM649 1442h225l-251 -228h-177l-249 228h221l123 -103z" />
    <glyph glyph-name="Tcommaaccent" unicode="&#x162;" horiz-adv-x="1099" 
d="M395 -219l51 213v1259h-434v199h1073v-199h-432v-1259h-43l-20 -109q93 -5 152 -61.5t44 -128.5q-6 -53 -40 -95.5t-83 -66.5t-108 -31t-113.5 4.5t-100 47t-67.5 90.5l123 57q27 -36 63 -50.5t66 -9t53.5 22t28.5 37.5q3 12 -2 25t-19.5 25.5t-40 21t-63 11.5t-88.5 -3z
" />
    <glyph glyph-name="tcommaaccent" unicode="&#x163;" horiz-adv-x="710" 
d="M215 1315l201 39v-246h243v-160h-243v-624q0 -60 18.5 -96.5t51.5 -50t79 -16t101 4.5v-168q-69 -5 -146 -2l-45 -125q90 -4 144.5 -57.5t46.5 -118.5q-3 -54 -35.5 -97.5t-81 -68t-107 -31.5t-113.5 5.5t-102 49t-71 93.5l123 57q22 -29 50.5 -45.5t56 -18.5t51.5 4.5
t40 22t19 35.5q3 26 -13.5 47t-66 35.5t-140.5 -0.5l93 246q-154 69 -154 297v622h-166v160h166v207z" />
    <glyph glyph-name="Tcaron" unicode="&#x164;" horiz-adv-x="1099" 
d="M653 0h-207v1249h-434v197h1073v-197h-432v-1249zM653 1804h226l-248 -223h-176l-244 223h221l117 -96z" />
    <glyph glyph-name="tcaron" unicode="&#x165;" horiz-adv-x="753" 
d="M215 1315l201 39v-246h243v-160h-243v-610q0 -60 18.5 -98t51.5 -53.5t79 -19.5t101 3v-168q-106 -8 -184.5 3.5t-140.5 47.5t-94 108t-32 179v608h-166v160h166v207zM674 1239h-168q19 56 27 94t4.5 84t-23.5 96h186q37 -137 -26 -274z" />
    <glyph glyph-name="Tbar" unicode="&#x166;" horiz-adv-x="1099" 
d="M653 0h-207v629h-247v176h247v442h-434v199h1073v-199h-432v-442h254v-176h-254v-629z" />
    <glyph glyph-name="tbar" unicode="&#x167;" horiz-adv-x="704" 
d="M215 1315l201 39v-246h243v-160h-243v-260h186v-147h-186v-217q0 -60 18.5 -96.5t51.5 -50t79 -16t101 4.5v-168q-81 -5 -150 -2t-124.5 24t-95 58t-60.5 99.5t-21 148.5v215h-145v147h145v260h-166v160h166v207z" />
    <glyph glyph-name="Utilde" unicode="&#x168;" horiz-adv-x="1374" 
d="M688 -14q-97 0 -189.5 29t-169.5 82.5t-124 140t-47 192.5v1018h209v-1020q0 -75 49.5 -130t120.5 -80t151 -25q79 0 150 25.5t120.5 81t49.5 130.5v1018h209v-1020q0 -105 -47.5 -191t-125 -139.5t-170 -82.5t-186.5 -29zM920 1827l106 -78q-33 -75 -90.5 -115.5
t-126.5 -40.5q-38 1 -76.5 20t-73 38t-63.5 20q-28 0 -61 -18.5t-60 -55.5l-117 72q42 76 104 117t130 41q39 -1 80.5 -20.5t75.5 -39t57 -20.5q63 0 115 80z" />
    <glyph glyph-name="utilde" unicode="&#x169;" horiz-adv-x="1318" 
d="M883 1552l106 -77q-33 -75 -90.5 -115.5t-126.5 -40.5q-38 1 -76.5 20t-73 38t-63.5 20q-28 0 -61 -18.5t-60 -55.5l-116 72q42 76 103.5 116.5t129.5 40.5q39 -1 80.5 -20t75.5 -38.5t57 -20.5q64 0 115 79zM1161 0h-190v145q-109 -161 -350 -161q-124 0 -217 37.5
t-150.5 108t-86 166t-28.5 216.5v596h201v-596q0 -83 12 -142t42.5 -107.5t88.5 -74t144 -26.5q158 -3 246 94t88 250v602h200v-1108z" />
    <glyph glyph-name="Umacron" unicode="&#x16a;" horiz-adv-x="1374" 
d="M688 -14q-97 0 -189.5 29t-169.5 82.5t-124 140t-47 192.5v1018h209v-1020q0 -75 49.5 -130t120.5 -80t151 -25q79 0 150 25.5t120.5 81t49.5 130.5v1018h209v-1020q0 -105 -47.5 -191t-125 -139.5t-170 -82.5t-186.5 -29zM422 1599v160h522v-160h-522z" />
    <glyph glyph-name="umacron" unicode="&#x16b;" horiz-adv-x="1318" 
d="M389 1372v160h522v-160h-522zM1161 0h-190v145q-109 -161 -350 -161q-124 0 -217 37.5t-150.5 108t-86 166t-28.5 216.5v610h201v-610q0 -83 12 -142t42.5 -107.5t88.5 -74t144 -26.5q158 -3 246 94t88 250v616h200v-1122z" />
    <glyph glyph-name="Ubreve" unicode="&#x16c;" horiz-adv-x="1374" 
d="M688 -14q-97 0 -189.5 29t-169.5 82.5t-124 140t-47 192.5v1018h209v-1020q0 -75 49.5 -130t120.5 -80t151 -25q79 0 150 25.5t120.5 81t49.5 130.5v1018h209v-1020q0 -105 -47.5 -191t-125 -139.5t-170 -82.5t-186.5 -29zM778 1796h164q0 -56 -21.5 -99t-58.5 -67.5
t-82 -36.5t-98 -12q-52 0 -96.5 11.5t-82 36t-58.5 67.5t-21 100h154q0 -53 50 -75t100 0t50 75z" />
    <glyph glyph-name="ubreve" unicode="&#x16d;" horiz-adv-x="1318" 
d="M758 1534h164q0 -56 -21.5 -99t-58.5 -67.5t-82 -36.5t-98 -12q-111 0 -185 52.5t-74 162.5h154q0 -53 50.5 -75t100.5 0t50 75zM1161 0h-190v145q-109 -161 -350 -161q-124 0 -217 37.5t-150.5 108t-86 166t-28.5 216.5v596h201v-596q0 -83 12 -142t42.5 -107.5
t88.5 -74t144 -26.5q158 -3 246 94t88 250v602h200v-1108z" />
    <glyph glyph-name="Uring" unicode="&#x16e;" horiz-adv-x="1374" 
d="M688 -14q-97 0 -189.5 29t-169.5 82.5t-124 140t-47 192.5v1018h209v-1020q0 -75 49.5 -130t120.5 -80t151 -25q79 0 150 25.5t120.5 81t49.5 130.5v1018h209v-1020q0 -105 -47.5 -191t-125 -139.5t-170 -82.5t-186.5 -29zM692 1536q-85 0 -145 49.5t-60 130.5
q0 82 60 132t145 50q83 0 144 -50t61 -132q0 -80 -61 -130t-144 -50zM692 1642q32 0 54 21t22 53q0 35 -21.5 56.5t-54.5 21.5q-34 0 -55 -21.5t-21 -56.5q0 -32 21 -53t55 -21z" />
    <glyph glyph-name="uring" unicode="&#x16f;" horiz-adv-x="1318" 
d="M633 1194q-79 0 -136 47t-57 123q0 77 56.5 124.5t136.5 47.5q78 0 135 -47.5t57 -124.5q0 -75 -57 -122.5t-135 -47.5zM633 1288q34 0 56 21t22 55q0 36 -22 58t-56 22q-35 0 -56.5 -21.5t-21.5 -58.5q0 -34 21.5 -55t56.5 -21zM1161 0h-190v145q-109 -161 -350 -161
q-124 0 -217 37.5t-150.5 108t-86 166t-28.5 216.5v596h201v-596q0 -83 12 -142t42.5 -107.5t88.5 -74t144 -26.5q158 -3 246 94t88 250v602h200v-1108z" />
    <glyph glyph-name="Uhungarumlaut" unicode="&#x170;" horiz-adv-x="1374" 
d="M688 -14q-97 0 -189.5 29t-169.5 82.5t-124 140t-47 192.5v1018h209v-1020q0 -75 49.5 -130t120.5 -80t151 -25q79 0 150 25.5t120.5 81t49.5 130.5v1018h209v-1020q0 -105 -47.5 -191t-125 -139.5t-170 -82.5t-186.5 -29zM743 1585l140 232h219l-178 -232h-181z
M440 1585l129 232h205l-156 -232h-178z" />
    <glyph glyph-name="uhungarumlaut" unicode="&#x171;" horiz-adv-x="1318" 
d="M696 1305l140 231h198l-178 -231h-160zM373 1305l129 231h186l-156 -231h-159zM1161 0h-190v145q-109 -161 -350 -161q-124 0 -217 37.5t-150.5 108t-86 166t-28.5 216.5v596h201v-596q0 -83 12 -142t42.5 -107.5t88.5 -74t144 -26.5q158 -3 246 94t88 250v602h200v-1108
z" />
    <glyph glyph-name="Uogonek" unicode="&#x172;" horiz-adv-x="1374" 
d="M688 -14q-97 0 -189.5 29t-169.5 82.5t-124 140t-47 192.5v1018h209v-1020q0 -75 49.5 -130t120.5 -80t151 -25q79 0 150 25.5t120.5 81t49.5 130.5v1018h209v-1020q0 -207 -181 -336q-80 -72 -80 -125q0 -24 14 -46t33.5 -37t39 -27t33.5 -17l14 -6l-119 -121
q-53 5 -99.5 32.5t-73.5 67.5t-32 88t27 95q-58 -10 -105 -10z" />
    <glyph glyph-name="uogonek" unicode="&#x173;" horiz-adv-x="1318" 
d="M1161 0h-12q-48 -36 -53.5 -86t36 -87.5t115.5 -39.5l-114 -119q-75 4 -130 37t-78.5 80t-12.5 105t59 110v145q-109 -161 -350 -161q-124 0 -217 37.5t-150.5 108t-86 166t-28.5 216.5v596h201v-596q0 -83 12 -142t42.5 -107.5t88.5 -74t144 -26.5q158 -3 246 94t88 250
v602h200v-1108z" />
    <glyph glyph-name="Wcircumflex" unicode="&#x174;" horiz-adv-x="1775" 
d="M1106 -8l-252 690q-34 -97 -120.5 -334t-127.5 -356h-145l-481 1442h215l342 -1037l235 670h166l233 -668q44 134 165 493.5t180 541.5h217l-482 -1442h-145zM752 1538h-226l248 223h176l244 -223h-221l-117 96z" />
    <glyph glyph-name="wcircumflex" unicode="&#x175;" horiz-adv-x="1605" 
d="M696 1235h-225l248 223h176l244 -223h-221l-117 96zM1036 -8l-135 434l-96 334l-96 -334l-138 -434h-151l-373 1116h213q17 -50 50.5 -151.5t49.5 -151.5q78 -235 134 -475l221 747h178l223 -747q46 210 131 475q53 150 103 303h213l-373 -1116h-154z" />
    <glyph glyph-name="Ycircumflex" unicode="&#x176;" horiz-adv-x="1234" 
d="M-31 1460h244l403 -657l408 657h246l-549 -876v-584h-209v584zM506 1634h-225l247 224h177l243 -224h-221l-117 97z" />
    <glyph glyph-name="ycircumflex" unicode="&#x177;" horiz-adv-x="1150" 
d="M457 1313h-226l248 223h176l244 -223h-221l-117 96zM580 270l129 361l182 477h213l-569 -1432h-213l151 381l-422 1051h213l191 -475z" />
    <glyph glyph-name="Ydieresis" unicode="&#x178;" horiz-adv-x="1202" 
d="M162 1432h-244l531 -848v-584h208v584l533 848h-246l-391 -629zM350 1808q52 0 84.5 -31.5t32.5 -82.5q0 -43 -33.5 -78t-83.5 -35q-45 0 -77.5 35t-32.5 78q0 50 31.5 82t78.5 32zM770 1808q52 0 84.5 -31.5t32.5 -82.5q0 -43 -33.5 -78t-83.5 -35q-45 0 -78 35.5
t-33 77.5q0 50 32 82t79 32z" />
    <glyph glyph-name="Zacute" unicode="&#x179;" horiz-adv-x="1212" 
d="M1120 1448v-162l-798 -1102h808v-184h-1048v170l795 1094h-795v184h1038zM670 1583h-170l141 209h250z" />
    <glyph glyph-name="zacute" unicode="&#x17a;" horiz-adv-x="960" 
d="M72 938v176h827v-139l-614 -801h608v-88v-86h-846v158l606 780h-581zM553 1346h-170l141 208h250z" />
    <glyph glyph-name="Zdotaccent" unicode="&#x17b;" horiz-adv-x="1212" 
d="M1120 1448v-162l-798 -1102h808v-184h-1048v170l795 1094h-795v184h1038zM500 1704q0 59 37.5 91t91.5 32q51 0 87 -32.5t36 -90.5q0 -57 -38 -89t-89 -32t-88 31.5t-37 89.5z" />
    <glyph glyph-name="zdotaccent" unicode="&#x17c;" horiz-adv-x="960" 
d="M72 938v176h827v-139l-614 -801h608v-88v-86h-846v158l606 780h-581zM371 1434q0 59 37.5 90.5t91.5 31.5q51 0 87 -32t36 -90q0 -57 -38 -89t-89 -32t-88 31.5t-37 89.5z" />
    <glyph glyph-name="Zcaron" unicode="&#x17d;" horiz-adv-x="1163" 
d="M1083 1446v-162l-798 -1100h809v-184h-1049v170l795 1092h-795v184h1038zM702 1806h226l-252 -227h-176l-250 227h221l123 -102z" />
    <glyph glyph-name="zcaron" unicode="&#x17e;" horiz-adv-x="960" 
d="M72 944v176h827v-139l-614 -807h608v-88v-86h-846v158l606 786h-581zM627 1499h225l-252 -227h-176l-250 227h221l123 -102z" />
    <glyph glyph-name="longs" unicode="&#x17f;" horiz-adv-x="978" 
d="M252 1233v-1233h-207v1434h854v-201h-647z" />
    <glyph glyph-name="florin" unicode="&#x192;" horiz-adv-x="1017" 
d="M956 1440l-28 -174q-89 14 -147.5 0t-89.5 -62.5t-41.5 -81t-23.5 -105.5q-1 -2 -1 -3h213l-31 -185h-213l-172 -909q-39 -220 -183.5 -303t-361.5 -25l27 177q133 -35 201 2.5t106 183.5l166 874h-187l31 185h193q2 8 4 18t4 17q16 74 39.5 134t66 115.5t99 89.5
t140.5 49t189 3z" />
    <glyph glyph-name="Scommaaccent" unicode="&#x218;" horiz-adv-x="1218" 
d="M1098 1071l-205 -8q-14 61 -61 104t-106.5 61t-125.5 17q-78 -2 -149 -29t-111 -79q-42 -53 -35 -133q2 -36 16 -63.5t40 -46t52 -31t68 -20.5t72 -12t78 -8q57 -7 102 -15.5t101 -23.5t99 -37.5t83.5 -53t68.5 -75.5t41 -100q11 -57 11 -94q0 -100 -47 -184t-123 -138
t-170.5 -84t-192.5 -30q-67 0 -135.5 15.5t-133.5 47.5t-117 77t-87 109t-43 138l-2 39l209 4l2 -31v8q10 -93 104.5 -147.5t204.5 -54.5q124 0 223 64.5t99 168.5q0 22 -6 49q-6 26 -21.5 47t-41 35t-50.5 24t-64 17t-67 10.5t-72 7.5q-56 6 -98 12t-95.5 19t-93.5 30.5
t-81 45.5t-68.5 63.5t-47 87t-24.5 113.5v-2q-13 153 78 272q70 91 187.5 141t246.5 50q85 0 164.5 -22.5t148 -67t115.5 -118.5t60 -169zM502 -168h207q17 -69 7 -149.5t-44 -145.5h-185q32 57 37 137.5t-22 157.5z" />
    <glyph glyph-name="scommaaccent" unicode="&#x219;" horiz-adv-x="1067" 
d="M436 -158h207q17 -69 7 -149.5t-44 -145.5h-184q34 81 38 146.5t-24 148.5zM293 788q0 -20 5 -37.5t12 -30t20.5 -23t24.5 -17.5t31 -12.5t31.5 -8.5t35 -5.5t33.5 -3t34 -2t31 -1.5q446 -30 446 -332q0 -74 -28.5 -133t-74 -96t-107 -61t-123.5 -33.5t-129 -9.5
q-90 0 -167 19.5t-141.5 60.5t-104 112t-44.5 166h201q6 -90 81 -138t185 -46q42 1 82 8.5t80.5 24.5t65 50t24.5 78q1 44 -26 75t-73 46t-85.5 21t-84.5 8q-65 3 -122 12t-116 31.5t-101 56.5t-68.5 89.5t-26.5 127.5q0 74 25.5 134t68 99t100.5 65t120 37t129 11
q85 0 158 -19t132.5 -56.5t96 -101.5t41.5 -148h-199q-7 70 -73.5 107.5t-162.5 37.5q-101 0 -169 -40.5t-68 -121.5z" />
    <glyph glyph-name="uni021A" unicode="&#x21a;" horiz-adv-x="1099" 
d="M653 0h-207v1249h-434v199h1073v-199h-432v-1249zM453 -158h206q17 -69 7.5 -150t-43.5 -145h-185q34 82 38.5 147t-23.5 148z" />
    <glyph glyph-name="uni021B" unicode="&#x21b;" horiz-adv-x="704" 
d="M334 -139h201q17 -69 7 -149.5t-44 -145.5h-179q34 82 38.5 147t-23.5 148zM215 1315l201 39v-246h243v-160h-243v-624q0 -60 18.5 -96.5t51.5 -50t79 -16t101 4.5v-168q-81 -5 -150 -2t-124.5 24t-95 58t-60.5 99.5t-21 148.5v622h-166v160h166v207z" />
    <glyph glyph-name="circumflex" unicode="&#x2c6;" horiz-adv-x="679" 
d="M217 1278h-225l248 223h176l243 -223h-221l-116 96z" />
    <glyph glyph-name="caron" unicode="&#x2c7;" horiz-adv-x="753" 
d="M475 1556h225l-251 -227h-177l-249 227h221l123 -102z" />
    <glyph glyph-name="breve" unicode="&#x2d8;" horiz-adv-x="724" 
d="M430 1612h164q0 -56 -21.5 -99t-58.5 -67.5t-82 -36.5t-98 -12q-52 0 -96.5 11.5t-82 36t-58.5 67.5t-21 100h153q0 -53 50 -75t100.5 0t50.5 75z" />
    <glyph glyph-name="dotaccent" unicode="&#x2d9;" horiz-adv-x="706" 
d="M203 1649q0 33 14 59.5t36 40.5t49 21t54 0.5t49 -20t36 -40t14 -61.5q0 -45 -26 -76.5t-63 -39t-74 -1t-63 38t-26 78.5z" />
    <glyph glyph-name="ring" unicode="&#x2da;" horiz-adv-x="598" 
d="M266 1503q-79 0 -135.5 47t-56.5 123q0 77 56.5 124.5t135.5 47.5q78 0 135.5 -47.5t57.5 -124.5q0 -75 -57.5 -122.5t-135.5 -47.5zM266 1618q25 0 41.5 15.5t16.5 39.5q0 27 -16.5 43.5t-41.5 16.5q-26 0 -41.5 -16t-15.5 -44q0 -25 15.5 -40t41.5 -15z" />
    <glyph glyph-name="ogonek" unicode="&#x2db;" horiz-adv-x="1062" 
d="M295 -233q-7 45 8.5 89t42 74t54.5 53t48 35l21 11l221 -4q-8 -4 -21.5 -10.5t-47.5 -28t-60 -43.5t-47 -55.5t-20 -65.5q1 -27 20 -46t48.5 -27.5t52.5 -11.5t44 -3l-122 -119q-5 0 -12.5 -0.5t-30.5 1.5t-44.5 6t-48.5 15t-47.5 26.5t-37 42.5t-21.5 61z" />
    <glyph glyph-name="tilde" unicode="&#x2dc;" horiz-adv-x="782" 
d="M606 1710l105 -82q-36 -73 -95.5 -110.5t-128.5 -34.5q-38 2 -76 22.5t-72 41t-63 22.5q-27 2 -60 -15.5t-62 -54.5l-115 78q45 75 108.5 112.5t131.5 34.5q39 -3 79.5 -24t74 -41.5t56.5 -22.5q62 -3 117 74z" />
    <glyph glyph-name="hungarumlaut" unicode="&#x2dd;" horiz-adv-x="872" 
d="M377 1532l139 231h215l-178 -231h-176zM84 1532l139 231h215l-178 -231h-176z" />
    <glyph glyph-name="tonos" unicode="&#x384;" horiz-adv-x="698" 
d="M164 1532l139 231h215l-178 -231h-176z" />
    <glyph glyph-name="dieresistonos" unicode="&#x385;" horiz-adv-x="1062" 
d="M520 1567l164 266h-235l-115 -266h186zM92 1704q0 49 33.5 77.5t74 29t74 -27.5t33.5 -79q0 -48 -33.5 -75.5t-74 -28t-74 27t-33.5 76.5zM698 1704q0 49 33.5 77.5t74 29t74 -27.5t33.5 -79q0 -48 -33.5 -75.5t-74 -28t-74 27t-33.5 76.5z" />
    <glyph glyph-name="Alphatonos" unicode="&#x386;" horiz-adv-x="1323" 
d="M637 1122l-215 -565h430zM1065 0l-137 362h-582l-139 -362h-223l575 1452h152l575 -1452h-221zM403 1454l-153 -283h-180l114 283h219z" />
    <glyph glyph-name="Epsilontonos" unicode="&#x388;" horiz-adv-x="1312" 
d="M547 614v-407h665v-207h-874v1434h872v-207h-663v-404h649v-209h-649zM307 1434l-153 -283h-181l115 283h219z" />
    <glyph glyph-name="Etatonos" unicode="&#x389;" horiz-adv-x="1472" 
d="M537 1434v-607h606v607h209v-1434h-209v623h-606v-623h-207v1434h207zM293 1434l-154 -283h-180l115 283h219z" />
    <glyph glyph-name="Iotatonos" unicode="&#x38a;" horiz-adv-x="1134" 
d="M1055 1434v-197h-267v-1038h267v-199h-740v199h267v1038h-267v197h740zM293 1434l-154 -283h-180l115 283h219z" />
    <glyph glyph-name="Omicrontonos" unicode="&#x38c;" horiz-adv-x="1699" 
d="M1374 717q0 216 -151 370q-73 73 -170 114.5t-201 41.5t-199.5 -41.5t-167.5 -114.5q-72 -72 -112.5 -167.5t-40.5 -202.5t40.5 -203t112.5 -168q72 -73 167.5 -114.5t199.5 -41.5t201 41.5t170 114.5q71 73 111 168t40 203zM123 717q0 148 56.5 281.5t156.5 236.5
q100 102 234 159.5t282 57.5q149 0 282.5 -57.5t235.5 -159.5q100 -103 156.5 -236.5t56.5 -281.5t-56.5 -281.5t-156.5 -236.5q-102 -103 -235 -160t-283 -57q-149 0 -282.5 57t-233.5 160t-156.5 236.5t-56.5 281.5zM309 1434l-153 -283h-181l115 283h219z" />
    <glyph glyph-name="Upsilontonos" unicode="&#x38e;" horiz-adv-x="1615" 
d="M299 1432h244l391 -629l391 629h246l-533 -848v-584h-209v584zM295 1434l-154 -283h-180l115 283h219z" />
    <glyph glyph-name="Omegatonos" unicode="&#x38f;" horiz-adv-x="1683" 
d="M838 1262q-227 0 -375 -153t-148 -380q0 -203 108 -345.5t298 -219.5l-41 -164h-614v180h296q-121 83 -188.5 231.5t-67.5 317.5q0 212 93.5 378t260 257.5t378.5 91.5q160 0 297 -55.5t232 -152t148.5 -231t53.5 -288.5q0 -160 -71.5 -313.5t-186.5 -237.5h301v-178
h-602l-33 168q189 88 287 221.5t98 339.5q0 148 -66.5 270t-186.5 192.5t-271 70.5zM309 1434l-153 -283h-181l115 283h219z" />
    <glyph glyph-name="iotadieresistonos" unicode="&#x390;" horiz-adv-x="837" 
d="M758 1237v197h-740v-197h267v-1038h-267v-199h740v199h-266v1038h266zM440 1503l140 266h-236l-90 -266h186zM12 1640q0 49 33.5 77.5t74 29t74 -27.5t33.5 -79q0 -48 -33.5 -75.5t-74 -28t-74 27t-33.5 76.5zM590 1640q0 49 33.5 77.5t74 29t74 -27.5t33.5 -79
q0 -48 -33.5 -75.5t-74 -28t-74 27t-33.5 76.5z" />
    <glyph glyph-name="Alpha" unicode="&#x391;" horiz-adv-x="1325" 
d="M637 1122l-215 -565h430zM1065 0l-137 362h-582l-139 -362h-223l575 1452h152l575 -1452h-221z" />
    <glyph glyph-name="Beta" unicode="&#x392;" horiz-adv-x="1208" 
d="M258 1237v-375h387q46 0 82.5 20.5t56 54t28.5 73.5t0.5 79.5t-26.5 73t-54.5 54t-82.5 20.5h-391zM53 1434h596q82 0 154 -34t120.5 -88.5t75.5 -125t26.5 -141t-34.5 -139.5t-100 -118q115 -49 170 -146.5t55 -209.5q0 -82 -27 -158.5t-77.5 -138t-131.5 -98.5
t-180 -37h-647v1434zM258 657v-456h442q98 0 153.5 68.5t55.5 160.5t-55.5 159.5t-153.5 67.5h-442z" />
    <glyph glyph-name="Gamma" unicode="&#x393;" horiz-adv-x="1019" 
d="M254 1233v-1233h-209v1434h873v-201h-664z" />
    <glyph glyph-name="Delta" unicode="&#x394;" horiz-adv-x="1329" 
d="M-16 0l575 1452h152l575 -1452h-1302zM637 1122l-361 -942h719z" />
    <glyph glyph-name="Epsilon" unicode="&#x395;" horiz-adv-x="1026" 
d="M260 614v-407h666v-207h-875v1434h873v-207h-664v-404h649v-209h-649z" />
    <glyph glyph-name="Zeta" unicode="&#x396;" horiz-adv-x="1183" 
d="M45 1245v189h991l70 -131l-811 -1119h799v-184h-1006l-84 115l827 1130h-786z" />
    <glyph glyph-name="Eta" unicode="&#x397;" horiz-adv-x="1193" 
d="M258 1434v-607h606v607h209v-1434h-209v623h-606v-623h-207v1434h207z" />
    <glyph glyph-name="Theta" unicode="&#x398;" horiz-adv-x="1624" 
d="M373 618v191h809v-191h-809zM1298 717q0 216 -151 370q-73 73 -170 114.5t-201 41.5t-199 -41.5t-167 -114.5q-72 -72 -113 -168t-41 -202t41 -202.5t113 -168.5q72 -73 167 -114.5t199 -41.5t201 41.5t170 114.5q71 73 111 168t40 203zM47 717q0 148 56.5 281.5
t156.5 236.5q100 102 234 159.5t282 57.5q149 0 282.5 -57.5t235.5 -159.5q100 -103 156.5 -236.5t56.5 -281.5t-56.5 -281.5t-156.5 -236.5q-102 -103 -235 -160t-283 -57q-149 0 -282.5 57t-233.5 160t-156.5 236.5t-56.5 281.5z" />
    <glyph glyph-name="Iota" unicode="&#x399;" horiz-adv-x="835" 
d="M756 1432v-197h-267v-1036h267v-199h-740v199h267v1036h-267v197h740z" />
    <glyph glyph-name="Kappa" unicode="&#x39a;" horiz-adv-x="1136" 
d="M55 1432h205v-1432h-205v1432zM299 664v104l500 664h260l-547 -711l604 -721h-270z" />
    <glyph glyph-name="Lambda" unicode="&#x39b;" horiz-adv-x="1331" 
d="M637 1104l-426 -1104h-227l575 1452h152l575 -1452h-225z" />
    <glyph glyph-name="Mu" unicode="&#x39c;" horiz-adv-x="1472" 
d="M266 1010v-1010h-207v1434h168l473 -697l474 697h163v-1434h-204v1010l-375 -557h-117z" />
    <glyph glyph-name="Nu" unicode="&#x39d;" horiz-adv-x="1273" 
d="M283 0h-207v1436l160 -2l698 -1010v1010h205v-1434h-164l-692 1001v-1001z" />
    <glyph glyph-name="Xi" unicode="&#x39e;" horiz-adv-x="1038" 
d="M936 1229h-893v205h893v-205zM43 203h895v-203h-895v203zM899 616h-827v201h827v-201z" />
    <glyph glyph-name="Omicron" unicode="&#x39f;" horiz-adv-x="1624" 
d="M1298 717q0 216 -151 370q-73 73 -170 114.5t-201 41.5t-199 -41.5t-167 -114.5q-72 -72 -113 -168t-41 -202t41 -202.5t113 -168.5q72 -73 167 -114.5t199 -41.5t201 41.5t170 114.5q71 73 111 168t40 203zM47 717q0 148 56.5 281.5t156.5 236.5q100 102 234 159.5
t282 57.5q149 0 282.5 -57.5t235.5 -159.5q100 -103 156.5 -236.5t56.5 -281.5t-56.5 -281.5t-156.5 -236.5q-102 -103 -235 -160t-283 -57q-149 0 -282.5 57t-233.5 160t-156.5 236.5t-56.5 281.5z" />
    <glyph glyph-name="Pi" unicode="&#x3a0;" horiz-adv-x="1193" 
d="M51 1434h1022v-1434h-209v1231h-606v-1231h-207v1434z" />
    <glyph glyph-name="Rho" unicode="&#x3a1;" horiz-adv-x="1120" 
d="M49 1434h524q112 0 202.5 -41t146.5 -109.5t86 -153t30 -176.5t-30 -176t-86 -152t-146.5 -108.5t-202.5 -40.5h-315v-477h-209v1434zM258 682h315q123 0 192 80t69 190q0 111 -69 192t-192 81h-315v-543z" />
    <glyph glyph-name="Sigma" unicode="&#x3a3;" horiz-adv-x="1198" 
d="M682 782v-61l-377 -539h801v-182h-997l-84 115l444 639l-432 544l69 136h992v-187h-783z" />
    <glyph glyph-name="Tau" unicode="&#x3a4;" horiz-adv-x="1155" 
d="M655 0h-206v1237h-435v197h1073v-197h-432v-1237z" />
    <glyph glyph-name="Upsilon" unicode="&#x3a5;" horiz-adv-x="1290" 
d="M-27 1436h244l391 -633l391 633h246l-532 -852v-584h-209v584z" />
    <glyph glyph-name="Phi" unicode="&#x3a6;" horiz-adv-x="1548" 
d="M639 1305v135h207v-135q118 -5 218 -39.5t171.5 -90t121.5 -128.5t74.5 -155t24.5 -169q0 -110 -40 -211.5t-114.5 -183t-192.5 -134t-263 -59.5v-135h-207v133q-119 5 -220 40t-172 91.5t-121.5 129.5t-74.5 155.5t-24 169.5q0 110 39.5 211t113.5 183t193 133.5
t266 58.5zM842 1124v-813q193 13 300 121.5t107 284.5t-107 285t-300 122zM233 721q0 -173 109.5 -286.5t300.5 -123.5v813q-195 -9 -302.5 -118t-107.5 -285z" />
    <glyph glyph-name="Chi" unicode="&#x3a7;" horiz-adv-x="1314" 
d="M-23 1434h254l390 -527l391 527h252l-519 -705l519 -729h-252l-391 563l-390 -563h-254l519 729z" />
    <glyph glyph-name="Psi" unicode="&#x3a8;" horiz-adv-x="1509" 
d="M618 473v961h209v-963q180 22 267.5 133t89.5 275v555h211v-555q-1 -88 -20.5 -168.5t-63 -155.5t-108 -131.5t-161 -94t-215.5 -46.5v-283h-209v283q-118 10 -214 48t-160.5 94.5t-108.5 130.5t-63.5 154t-20.5 167v557h209v-555q2 -154 93 -267t265 -139z" />
    <glyph glyph-name="Omega" unicode="&#x3a9;" horiz-adv-x="1630" 
d="M784 1262q-150 0 -269.5 -70t-186 -192t-66.5 -271q0 -203 108 -345.5t298 -219.5l-41 -164h-615v180h297q-121 83 -188.5 231.5t-67.5 317.5q0 212 93 378t259.5 257.5t378.5 91.5q160 0 297 -55.5t232 -152t149 -231t54 -288.5q0 -160 -72 -313t-187 -238h302v-178
h-603l-32 168q189 88 287 221.5t98 339.5q0 226 -148.5 379.5t-376.5 153.5z" />
    <glyph glyph-name="Iotadieresis" unicode="&#x3aa;" horiz-adv-x="835" 
d="M756 1235v197h-740v-197h267v-1036h-267v-199h740v199h-267v1036h267zM195 1741q52 0 84 -32t32 -83q0 -44 -33 -78.5t-83 -34.5q-45 0 -78 35.5t-33 77.5q0 50 32 82.5t79 32.5zM584 1741q52 0 84 -32t32 -83q0 -44 -33 -78.5t-83 -34.5q-45 0 -78 35.5t-33 77.5
q0 50 32 82.5t79 32.5z" />
    <glyph glyph-name="Upsilondieresis" unicode="&#x3ab;" horiz-adv-x="1202" 
d="M162 1432h-244l531 -848v-584h208v584l533 848h-246l-391 -629zM354 1737q52 0 84.5 -32t32.5 -83q0 -43 -33.5 -78t-83.5 -35q-45 0 -77.5 35t-32.5 78q0 50 32 82.5t78 32.5zM743 1737q52 0 84.5 -32t32.5 -83q0 -43 -33.5 -78t-83.5 -35q-45 0 -77.5 35t-32.5 78
q0 50 32 82.5t78 32.5z" />
    <glyph glyph-name="alphatonos" unicode="&#x3ac;" horiz-adv-x="1323" 
d="M637 1122l-215 -565h430zM1065 0l-137 362h-582l-139 -362h-223l575 1452h152l575 -1452h-221zM403 1454l-153 -283h-180l114 283h219z" />
    <glyph glyph-name="epsilontonos" unicode="&#x3ad;" horiz-adv-x="1312" 
d="M547 614v-407h665v-207h-874v1434h872v-207h-663v-404h649v-209h-649zM307 1434l-153 -283h-181l115 283h219z" />
    <glyph glyph-name="etatonos" unicode="&#x3ae;" horiz-adv-x="1472" 
d="M537 1434v-607h606v607h209v-1434h-209v623h-606v-623h-207v1434h207zM293 1434l-154 -283h-180l115 283h219z" />
    <glyph glyph-name="iotatonos" unicode="&#x3af;" horiz-adv-x="1134" 
d="M1055 1434v-197h-267v-1038h267v-199h-740v199h267v1038h-267v197h740zM293 1434l-154 -283h-180l115 283h219z" />
    <glyph glyph-name="upsilondieresistonos" unicode="&#x3b0;" horiz-adv-x="1290" 
d="M217 1432h-244l531 -848v-584h209v584l532 848h-246l-391 -629zM674 1503l139 266h-235l-91 -266h187zM246 1640q0 49 33.5 77.5t74 29t74 -27.5t33.5 -79q0 -48 -33.5 -75.5t-74 -28t-74 27t-33.5 76.5zM823 1640q0 49 33.5 77.5t74 29t74 -27.5t33.5 -79
q0 -48 -33.5 -75.5t-74 -28t-74 27t-33.5 76.5z" />
    <glyph glyph-name="alpha" unicode="&#x3b1;" horiz-adv-x="1325" 
d="M637 1122l-215 -565h430zM1065 0l-137 362h-582l-139 -362h-223l575 1452h152l575 -1452h-221z" />
    <glyph glyph-name="beta" unicode="&#x3b2;" horiz-adv-x="1218" 
d="M268 1235v-373h387q46 0 82.5 20.5t56 53.5t28.5 72.5t0.5 79.5t-26.5 73t-54.5 53.5t-82.5 20.5h-391zM63 1432h596q129 0 218 -65t131 -171q29 -73 30.5 -145.5t-32.5 -143t-103 -119.5q78 -33 130 -93.5t72.5 -125.5t20.5 -137q0 -82 -27 -158.5t-77 -138t-131 -98.5
t-180 -37h-648v1432zM268 657v-456h443q98 0 153.5 68.5t55.5 160.5t-55.5 159.5t-153.5 67.5h-443z" />
    <glyph glyph-name="gamma" unicode="&#x3b3;" horiz-adv-x="1036" 
d="M270 1231v-1231h-209v1432h873v-201h-664z" />
    <glyph glyph-name="delta" unicode="&#x3b4;" horiz-adv-x="1329" 
d="M-16 0l575 1452h152l575 -1452h-1302zM637 1122l-361 -942h719z" />
    <glyph glyph-name="epsilon" unicode="&#x3b5;" horiz-adv-x="1019" 
d="M254 614v-407h666v-207h-875v1434h873v-207h-664v-404h649v-209h-649z" />
    <glyph glyph-name="zeta" unicode="&#x3b6;" horiz-adv-x="1214" 
d="M1120 1448v-162l-798 -1102h808v-184h-1048v170l795 1094h-795v184h1038z" />
    <glyph glyph-name="eta" unicode="&#x3b7;" horiz-adv-x="1193" 
d="M258 1434v-607h606v607h209v-1434h-209v623h-606v-623h-207v1434h207z" />
    <glyph glyph-name="theta" unicode="&#x3b8;" horiz-adv-x="1624" 
d="M373 618v191h809v-191h-809zM1298 717q0 216 -151 370q-73 73 -170 114.5t-201 41.5t-199 -41.5t-167 -114.5q-72 -72 -113 -168t-41 -202t41 -202.5t113 -168.5q72 -73 167 -114.5t199 -41.5t201 41.5t170 114.5q71 73 111 168t40 203zM47 717q0 148 56.5 281.5
t156.5 236.5q100 102 234 159.5t282 57.5q149 0 282.5 -57.5t235.5 -159.5q100 -103 156.5 -236.5t56.5 -281.5t-56.5 -281.5t-156.5 -236.5q-102 -103 -235 -160t-283 -57q-149 0 -282.5 57t-233.5 160t-156.5 236.5t-56.5 281.5z" />
    <glyph glyph-name="iota" unicode="&#x3b9;" horiz-adv-x="835" 
d="M756 1432v-197h-267v-1036h267v-199h-740v199h267v1036h-267v197h740z" />
    <glyph glyph-name="kappa" unicode="&#x3ba;" horiz-adv-x="1136" 
d="M55 1432h205v-1432h-205v1432zM299 664v104l500 664h260l-547 -711l604 -721h-270z" />
    <glyph glyph-name="lambda" unicode="&#x3bb;" horiz-adv-x="1331" 
d="M637 1122l-430 -1122h-223l575 1452h152l575 -1452h-221z" />
    <glyph glyph-name="mu" unicode="&#x3bc;" horiz-adv-x="1472" 
d="M266 1010v-1010h-207v1434h168l473 -697l474 697h163v-1434h-204v1010l-375 -557h-117z" />
    <glyph glyph-name="nu" unicode="&#x3bd;" horiz-adv-x="1273" 
d="M283 0h-207v1436l160 -2l698 -1010v1010h205v-1434h-164l-692 1001v-1001z" />
    <glyph glyph-name="xi" unicode="&#x3be;" horiz-adv-x="1038" 
d="M936 1229h-893v205h893v-205zM43 203h895v-203h-895v203zM899 616h-827v201h827v-201z" />
    <glyph glyph-name="omicron" unicode="&#x3bf;" horiz-adv-x="1624" 
d="M1298 717q0 216 -151 370q-73 73 -170 114.5t-201 41.5t-199 -41.5t-167 -114.5q-72 -72 -113 -168t-41 -202t41 -202.5t113 -168.5q72 -73 167 -114.5t199 -41.5t201 41.5t170 114.5q71 73 111 168t40 203zM47 717q0 148 56.5 281.5t156.5 236.5q100 102 234 159.5
t282 57.5q149 0 282.5 -57.5t235.5 -159.5q100 -103 156.5 -236.5t56.5 -281.5t-56.5 -281.5t-156.5 -236.5q-102 -103 -235 -160t-283 -57q-149 0 -282.5 57t-233.5 160t-156.5 236.5t-56.5 281.5z" />
    <glyph glyph-name="pi" unicode="&#x3c0;" horiz-adv-x="1193" 
d="M51 1434h1022v-1434h-209v1231h-606v-1231h-207v1434z" />
    <glyph glyph-name="rho" unicode="&#x3c1;" horiz-adv-x="1120" 
d="M49 1434h524q112 0 202.5 -41t146.5 -109.5t86 -153t30 -176.5t-30 -176t-86 -152t-146.5 -108.5t-202.5 -40.5h-315v-477h-209v1434zM258 682h315q123 0 192 80t69 190q0 111 -69 192t-192 81h-315v-543z" />
    <glyph glyph-name="sigma1" unicode="&#x3c2;" horiz-adv-x="1495" 
d="M27 713q0 148 54.5 280t149.5 234q96 99 224.5 156t271.5 57q246 0 426 -143t242 -386h-205q-56 158 -178.5 241t-284.5 83q-101 0 -192 -41t-160 -113q-148 -155 -148 -368q0 -210 148 -365q69 -72 160 -112.5t192 -40.5q165 0 292.5 90.5t182.5 251.5h203
q-62 -247 -246 -397t-432 -150q-144 0 -272 56.5t-224 156.5q-95 101 -149.5 233t-54.5 277z" />
    <glyph glyph-name="sigma" unicode="&#x3c3;" horiz-adv-x="1198" 
d="M682 782v-61l-377 -539h801v-182h-997l-84 115l444 639l-432 544l69 136h992v-187h-783z" />
    <glyph glyph-name="tau" unicode="&#x3c4;" horiz-adv-x="1155" 
d="M655 0h-206v1237h-435v197h1073v-197h-432v-1237z" />
    <glyph glyph-name="upsilon" unicode="&#x3c5;" horiz-adv-x="1290" 
d="M-27 1432h244l391 -629l391 629h246l-532 -848v-584h-209v584z" />
    <glyph glyph-name="phi" unicode="&#x3c6;" horiz-adv-x="1548" 
d="M639 1305v135h207v-135q118 -5 218 -39.5t171.5 -90t121.5 -128.5t74.5 -155t24.5 -169q0 -110 -40 -211.5t-114.5 -183t-192.5 -134t-263 -59.5v-135h-207v133q-119 5 -220 40t-172 91.5t-121.5 129.5t-74.5 155.5t-24 169.5q0 110 39.5 211t113.5 183t193 133.5
t266 58.5zM842 1124v-813q193 13 300 121.5t107 284.5t-107 285t-300 122zM233 721q0 -173 109.5 -286.5t300.5 -123.5v813q-195 -9 -302.5 -118t-107.5 -285z" />
    <glyph glyph-name="chi" unicode="&#x3c7;" horiz-adv-x="1314" 
d="M-23 1434h254l390 -527l391 527h252l-519 -705l519 -729h-252l-391 563l-390 -563h-254l519 729z" />
    <glyph glyph-name="psi" unicode="&#x3c8;" horiz-adv-x="1509" 
d="M618 473v961h209v-963q180 22 267.5 133t89.5 275v555h211v-555q-1 -88 -20.5 -168.5t-63 -155.5t-108 -131.5t-161 -94t-215.5 -46.5v-283h-209v283q-118 10 -214 48t-160.5 94.5t-108.5 130.5t-63.5 154t-20.5 167v557h209v-555q2 -154 93 -267t265 -139z" />
    <glyph glyph-name="omega" unicode="&#x3c9;" horiz-adv-x="1630" 
d="M784 1262q-150 0 -269.5 -70t-186 -192t-66.5 -271q0 -203 108 -345.5t298 -219.5l-41 -164h-615v180h297q-121 83 -188.5 231.5t-67.5 317.5q0 212 93 378t259.5 257.5t378.5 91.5q160 0 297 -55.5t232 -152t149 -231t54 -288.5q0 -160 -72 -313t-187 -238h302v-178
h-603l-32 168q189 88 287 221.5t98 339.5q0 226 -148.5 379.5t-376.5 153.5z" />
    <glyph glyph-name="iotadieresis" unicode="&#x3ca;" horiz-adv-x="835" 
d="M756 1237v197h-740v-197h267v-1038h-267v-199h740v199h-267v1038h267zM190 1745q52 0 84.5 -32t32.5 -83q0 -43 -33.5 -77.5t-83.5 -34.5q-45 0 -77.5 35t-32.5 77q0 50 32 82.5t78 32.5zM580 1745q52 0 84 -32t32 -83q0 -44 -33 -78t-83 -34q-45 0 -78 35t-33 77
q0 50 32 82.5t79 32.5z" />
    <glyph glyph-name="upsilondieresis" unicode="&#x3cb;" horiz-adv-x="1202" 
d="M162 1432h-244l531 -848v-584h208v584l533 848h-246l-391 -629zM354 1737q52 0 84.5 -32t32.5 -83q0 -43 -33.5 -78t-83.5 -35q-45 0 -77.5 35t-32.5 78q0 50 32 82.5t78 32.5zM743 1737q52 0 84.5 -32t32.5 -83q0 -43 -33.5 -78t-83.5 -35q-45 0 -77.5 35t-32.5 78
q0 50 32 82.5t78 32.5z" />
    <glyph glyph-name="omicrontonos" unicode="&#x3cc;" horiz-adv-x="1624" 
d="M1298 717q0 216 -151 370q-73 73 -170 114.5t-201 41.5t-199 -41.5t-167 -114.5q-72 -72 -113 -168t-41 -202t41 -202.5t113 -168.5q72 -73 167 -114.5t199 -41.5t201 41.5t170 114.5q71 73 111 168t40 203zM47 717q0 148 56.5 281.5t156.5 236.5q100 102 234 159.5
t282 57.5q149 0 282.5 -57.5t235.5 -159.5q100 -103 156.5 -236.5t56.5 -281.5t-56.5 -281.5t-156.5 -236.5q-102 -103 -235 -160t-283 -57q-149 0 -282.5 57t-233.5 160t-156.5 236.5t-56.5 281.5zM846 1542h-178l147 219h262z" />
    <glyph glyph-name="upsilontonos" unicode="&#x3cd;" horiz-adv-x="1290" 
d="M-27 1434h244l391 -631l391 631h246l-532 -850v-584h-209v584zM670 1532h-178l147 219h262z" />
    <glyph glyph-name="omegatonos" unicode="&#x3ce;" horiz-adv-x="1630" 
d="M784 1262q-150 0 -269.5 -70t-186 -192t-66.5 -271q0 -203 108 -345.5t298 -219.5l-41 -164h-615v180h297q-121 83 -188.5 231.5t-67.5 317.5q0 212 93 378t259.5 257.5t378.5 91.5q160 0 297 -55.5t232 -152t149 -231t54 -288.5q0 -160 -72 -313t-187 -238h302v-178
h-603l-32 168q189 88 287 221.5t98 339.5q0 226 -148.5 379.5t-376.5 153.5zM862 1534h-178l147 219h263z" />
    <glyph glyph-name="afii10023" unicode="&#x401;" horiz-adv-x="1019" 
d="M254 207v405h649v209h-649v404h664v207h-873v-1432h875v207h-666zM307 1745q52 0 84.5 -32t32.5 -83q0 -43 -33.5 -77.5t-83.5 -34.5q-45 0 -77.5 35t-32.5 77q0 50 32 82.5t78 32.5zM696 1745q52 0 84.5 -32t32.5 -83q0 -43 -33.5 -77.5t-83.5 -34.5q-45 0 -77.5 35
t-32.5 77q0 50 32 82.5t78 32.5z" />
    <glyph glyph-name="afii10051" unicode="&#x402;" horiz-adv-x="1456" 
d="M639 0h-207v1239h-434v195h1073v-195h-432v-256q105 43 205 43q95 0 182.5 -28t159 -81.5t114.5 -140.5t43 -196v-162q2 -227 -102.5 -323.5t-351.5 -96.5v186q64 0 106.5 9.5t76 34.5t48.5 71.5t15 118.5v164q0 68 -28 120.5t-74.5 82.5t-100 44.5t-111.5 14.5
q-104 0 -182 -64v-780z" />
    <glyph glyph-name="afii10052" unicode="&#x403;" horiz-adv-x="1019" 
d="M254 1233v-1233h-209v1434h873v-201h-664zM557 1534h-178l147 219h262z" />
    <glyph glyph-name="afii10053" unicode="&#x404;" horiz-adv-x="1505" 
d="M981 819v-192h-735q24 -160 139 -279q69 -72 160 -112.5t192 -40.5q165 0 292.5 90.5t182.5 251.5h203q-62 -247 -246 -397t-432 -150q-143 0 -271 56.5t-224 156.5q-95 102 -150 233.5t-55 276.5q0 148 54.5 280t150.5 234q96 100 224 156.5t271 56.5q246 0 426 -143
t242 -386h-205q-56 158 -178.5 241t-284.5 83q-101 0 -192 -41t-160 -113q-108 -114 -137 -262h733z" />
    <glyph glyph-name="afii10054" unicode="&#x405;" horiz-adv-x="1175" 
d="M1040 1071l-204 -8q-14 61 -61 104t-106.5 61t-125.5 17q-78 -2 -149 -29t-111 -79q-42 -53 -35 -133q2 -31 13.5 -55.5t27.5 -42t43 -31t51 -21.5t60.5 -14.5t63 -9.5t66.5 -7q57 -7 102 -15.5t101 -23.5t99 -37.5t84 -53t69 -75.5t41 -100q10 -52 10 -94
q0 -100 -46.5 -184t-123 -138t-170.5 -84t-192 -30q-67 0 -135.5 15.5t-133.5 47.5t-117 77t-87 109t-43 138l-2 39l209 4l2 -31v8q10 -93 104.5 -147.5t204.5 -54.5q124 0 222.5 64.5t98.5 168.5q0 22 -6 49q-6 26 -21 47t-40.5 35t-50.5 24t-64 17t-67 10.5t-72 7.5
q-56 6 -98 12t-95.5 19t-93.5 30.5t-81 45.5t-68.5 63.5t-47 87t-24.5 113.5v-2q-13 153 78 272q70 91 187.5 141t246.5 50q85 0 164.5 -22.5t147.5 -67t115 -118.5t60 -169z" />
    <glyph glyph-name="afii10055" unicode="&#x406;" horiz-adv-x="835" 
d="M756 1432v-197h-267v-1036h267v-199h-740v199h267v1036h-267v197h740z" />
    <glyph glyph-name="afii10056" unicode="&#x407;" horiz-adv-x="835" 
d="M756 1235v197h-740v-197h267v-1036h-267v-199h740v199h-267v1036h267zM190 1745q52 0 84.5 -32t32.5 -83q0 -43 -33.5 -77.5t-83.5 -34.5q-45 0 -77.5 35t-32.5 77q0 50 32 82.5t78 32.5zM580 1745q52 0 84 -32t32 -83q0 -44 -33 -78t-83 -34q-45 0 -78 35t-33 77
q0 50 32 82.5t79 32.5z" />
    <glyph glyph-name="afii10057" unicode="&#x408;" horiz-adv-x="884" 
d="M778 1432v-811q0 -217 -74.5 -351.5t-241.5 -202t-442 -67.5v195q158 0 265 26t170 81t89.5 131.5t26.5 187.5v622h-387v189h594z" />
    <glyph glyph-name="afii10058" unicode="&#x409;" horiz-adv-x="1816" 
d="M1274 0h-477v1210h-19l-561 -1210h-229l671 1434h347v-549h268q111 0 200 -38t143.5 -100.5t84 -142t29 -162t-30.5 -162t-84.5 -142t-143.5 -100.5t-198 -38zM1274 680h-268v-475h268q59 0 107 20.5t77 54t45 76t16.5 87t-15.5 87t-45.5 76t-77.5 54t-107 20.5z" />
    <glyph glyph-name="afii10059" unicode="&#x40a;" horiz-adv-x="1806" 
d="M1264 0h-478v680h-524v-680h-207v1434h207v-549h524v549h209v-549h269q111 0 200 -38t143.5 -100.5t84 -142t29 -162t-30.5 -162t-84.5 -142t-143.5 -100.5t-198 -38zM1264 680h-269v-475h269q59 0 107 20.5t77 54t45 76t16.5 87t-15.5 87t-45.5 76t-77.5 54t-107 20.5z
" />
    <glyph glyph-name="afii10060" unicode="&#x40b;" horiz-adv-x="1460" 
d="M1343 0h-208v571q0 68 -28 120.5t-74.5 82.5t-100 45t-111.5 15q-104 0 -182 -64v-770h-207v1239h-434v195h1073v-195h-432v-266q105 43 205 43q75 0 146.5 -17t135.5 -53.5t112 -88.5t76.5 -126t28.5 -162v-569z" />
    <glyph glyph-name="afii10061" unicode="&#x40c;" horiz-adv-x="1140" 
d="M51 1434h209v-1434h-209v1434zM299 664v104l506 666h254l-547 -713l604 -721h-270zM590 1534h-178l147 219h262z" />
    <glyph glyph-name="afii10062" unicode="&#x40e;" horiz-adv-x="1171" 
d="M475 -2h-225l203 461l-476 975h234l254 -514l106 -230l93 228l221 516h235zM293 1708h530v-180h-530v180z" />
    <glyph glyph-name="afii10145" unicode="&#x40f;" horiz-adv-x="1193" 
d="M463 -236v236h-412v1434h209v-1231h602v1231h211v-1434h-407v-236h-203z" />
    <glyph glyph-name="bgA" unicode="&#x410;" horiz-adv-x="1325" 
d="M637 1122l-215 -565h430zM1065 0l-137 362h-582l-139 -362h-223l575 1452h152l575 -1452h-221z" />
    <glyph glyph-name="afii10018" unicode="&#x411;" horiz-adv-x="1216" 
d="M1012 1434v-201h-746v-371h443q125 0 221 -60t145 -157t49 -213q0 -82 -27 -158.5t-77 -138t-131 -98.5t-180 -37h-648v1434h951zM266 664v-463h443q98 0 153.5 68.5t55.5 160.5q0 93 -55.5 163.5t-153.5 70.5h-443z" />
    <glyph glyph-name="afii10019" unicode="&#x412;" horiz-adv-x="1216" 
d="M266 1237v-375h387q46 0 82.5 20.5t56 54t28.5 73.5t0.5 79.5t-26.5 73t-54.5 54t-82.5 20.5h-391zM61 1434h596q82 0 154 -34t120.5 -88.5t75.5 -125t26.5 -141t-34.5 -139.5t-100 -118q115 -49 170 -146.5t55 -209.5q0 -82 -27 -158.5t-77 -138t-131 -98.5t-180 -37
h-648v1434zM266 657v-456h443q98 0 153.5 68.5t55.5 160.5t-55.5 159.5t-153.5 67.5h-443z" />
    <glyph glyph-name="afii10020" unicode="&#x413;" horiz-adv-x="1036" 
d="M270 1233v-1233h-209v1434h873v-201h-664z" />
    <glyph glyph-name="afii10021" unicode="&#x414;" horiz-adv-x="1372" 
d="M1161 203h117v-432h-203v229h-852v-229h-207v395l115 22q95 100 123 402l55 844h852v-1231zM365 203h583v1032h-442l-31 -510q-5 -108 -9 -162.5t-15 -131t-32 -130t-54 -98.5z" />
    <glyph glyph-name="afii10022" unicode="&#x415;" horiz-adv-x="1036" 
d="M270 614v-407h666v-207h-875v1434h873v-207h-664v-404h650v-209h-650z" />
    <glyph glyph-name="afii10024" unicode="&#x416;" horiz-adv-x="1839" 
d="M788 1434h209v-1434h-209v1434zM1036 664v104l463 666h244l-500 -713l553 -721h-258zM748 768v-104l-502 -664h-258l553 721l-500 713h244z" />
    <glyph glyph-name="afii10025" unicode="&#x417;" horiz-adv-x="1140" 
d="M356 639v190h215q98 0 147.5 64.5t49.5 146.5q0 56 -23 98t-63 65.5t-86.5 34.5t-99.5 11q-86 0 -156.5 -46t-89.5 -126l-187 45q37 155 159.5 240.5t273.5 85.5q96 0 179 -23.5t150.5 -71t107 -128t40.5 -185.5q0 -211 -131 -299q195 -115 192 -344q-1 -79 -35.5 -152.5
t-98.5 -132.5t-166 -94.5t-226 -35.5q-111 0 -200 30t-146 83.5t-91.5 118.5t-47.5 142l192 35q15 -93 90 -155t203 -62q82 0 145.5 21t100.5 56.5t56 78t19 88.5q0 40 -14.5 78t-44 70.5t-81 52.5t-118.5 20h-215z" />
    <glyph glyph-name="afii10026" unicode="&#x418;" horiz-adv-x="1267" 
d="M1139 0h-207v1001l-692 -1001h-164v1434h205v-1010l698 1010h160v-1434z" />
    <glyph glyph-name="afii10027" unicode="&#x419;" horiz-adv-x="1267" 
d="M1139 0h-207v1001l-692 -1001h-164v1434h205v-1010l698 1010h160v-1434zM348 1708h567v-180h-567v180z" />
    <glyph glyph-name="afii10028" unicode="&#x41a;" horiz-adv-x="1155" 
d="M51 1434h209v-1434h-209v1434zM299 664v104l506 666h254l-547 -713l604 -721h-270z" />
    <glyph glyph-name="afii10029" unicode="&#x41b;" horiz-adv-x="1341" 
d="M637 1094l-428 -1094h-225l575 1452h152l575 -1452h-225z" />
    <glyph glyph-name="afii10030" unicode="&#x41c;" horiz-adv-x="1472" 
d="M266 1010v-1010h-207v1434h168l473 -697l474 697h163v-1434h-204v1010l-375 -557h-117z" />
    <glyph glyph-name="afii10031" unicode="&#x41d;" horiz-adv-x="1193" 
d="M258 1434v-607h606v607h209v-1434h-209v623h-606v-623h-207v1434h207z" />
    <glyph glyph-name="afii10032" unicode="&#x41e;" horiz-adv-x="1624" 
d="M1298 717q0 216 -151 370q-73 73 -170 114.5t-201 41.5t-199 -41.5t-167 -114.5q-72 -72 -113 -168t-41 -202t41 -202.5t113 -168.5q72 -73 167 -114.5t199 -41.5t201 41.5t170 114.5q71 73 111 168t40 203zM47 717q0 148 56.5 281.5t156.5 236.5q100 102 234 159.5
t282 57.5q149 0 282.5 -57.5t235.5 -159.5q100 -103 156.5 -236.5t56.5 -281.5t-56.5 -281.5t-156.5 -236.5q-102 -103 -235 -160t-283 -57q-149 0 -282.5 57t-233.5 160t-156.5 236.5t-56.5 281.5z" />
    <glyph glyph-name="afii10033" unicode="&#x41f;" horiz-adv-x="1193" 
d="M51 1434h1022v-1434h-211v1231h-602v-1231h-209v1434z" />
    <glyph glyph-name="afii10034" unicode="&#x420;" horiz-adv-x="1120" 
d="M49 1434h524q112 0 202.5 -41t146.5 -109.5t86 -153t30 -176.5t-30 -176t-86 -152t-146.5 -108.5t-202.5 -40.5h-315v-477h-209v1434zM258 682h315q123 0 192 80t69 190q0 111 -69 192t-192 81h-315v-543z" />
    <glyph glyph-name="afii10035" unicode="&#x421;" horiz-adv-x="1517" 
d="M49 713q0 153 56.5 290.5t151 234.5t223.5 153.5t270 56.5q246 0 425.5 -142.5t241.5 -385.5h-205q-56 158 -178 240.5t-284 82.5q-115 0 -212 -46.5t-158.5 -122t-95.5 -169.5t-34 -192q0 -116 37.5 -203t109.5 -162q69 -72 160.5 -112.5t192.5 -40.5q165 0 292.5 90.5
t182.5 251.5h202q-62 -247 -245.5 -397t-431.5 -150q-144 0 -272 56.5t-224 156.5q-205 218 -205 510z" />
    <glyph glyph-name="afii10036" unicode="&#x422;" horiz-adv-x="1155" 
d="M655 0h-206v1237h-435v197h1073v-197h-432v-1237z" />
    <glyph glyph-name="afii10037" unicode="&#x423;" horiz-adv-x="1171" 
d="M475 -2h-225l203 461l-476 975h234l254 -514l106 -230l93 228l221 516h235z" />
    <glyph glyph-name="afii10038" unicode="&#x424;" horiz-adv-x="1607" 
d="M678 1305v135h207v-135q147 -6 265.5 -55.5t194 -129.5t116 -182t40.5 -215q0 -249 -162 -411t-454 -177v-135h-207v133q-150 7 -269 54.5t-195.5 126.5t-116.5 182t-40 223q0 118 40.5 220.5t117 182t196 128t267.5 55.5zM881 1124v-813q193 13 300 121.5t107 284.5
t-107 285t-300 122zM272 721q0 -173 109.5 -286.5t300.5 -123.5v813q-195 -9 -302.5 -118t-107.5 -285z" />
    <glyph glyph-name="afii10039" unicode="&#x425;" horiz-adv-x="1304" 
d="M-23 1434h254l390 -527l391 527h252l-519 -705l519 -729h-252l-391 563l-390 -563h-254l519 729z" />
    <glyph glyph-name="afii10040" unicode="&#x426;" horiz-adv-x="1210" 
d="M1012 190h116v-481h-202v291h-869v1434h211v-1244h531v1244h213v-1244z" />
    <glyph glyph-name="afii10041" unicode="&#x427;" horiz-adv-x="1148" 
d="M1018 1434v-1434h-215v516q-99 -27 -199 -27q-86 0 -164.5 16.5t-148.5 52t-121 88t-81 129.5t-30 171v488h217v-488q0 -86 49 -148.5t123 -91t162 -28.5q86 0 193 29v727h215z" />
    <glyph glyph-name="afii10042" unicode="&#x428;" horiz-adv-x="1783" 
d="M55 1434h219v-1246h476v1246h217v-1246h475v1246h219v-1434h-1606v1434z" />
    <glyph glyph-name="afii10043" unicode="&#x429;" horiz-adv-x="1867" 
d="M55 1434h217v-1246h473v1246h220v-1246h475v1246h219v-1246h125v-479h-211v291h-1518v1434z" />
    <glyph glyph-name="afii10044" unicode="&#x42a;" horiz-adv-x="1271" 
d="M2 1231v203h404v-478h315q112 0 202.5 -40.5t146.5 -108.5t86 -152t30 -176t-30 -176.5t-86 -152.5t-146.5 -109t-202.5 -41h-524v1231h-195zM721 752h-315v-547h315q123 0 191.5 82t68.5 194q0 110 -68.5 190.5t-191.5 80.5z" />
    <glyph glyph-name="afii10045" unicode="&#x42b;" horiz-adv-x="1482" 
d="M573 0h-524v1434h209v-478h315q112 0 202.5 -40.5t146.5 -108.5t86 -152t30 -176t-30 -176.5t-86 -152.5t-146.5 -109t-202.5 -41zM573 752h-315v-547h315q123 0 192 82t69 194q0 110 -69 190.5t-192 80.5zM1149 0v1434h211v-1434h-211z" />
    <glyph glyph-name="afii10046" unicode="&#x42c;" horiz-adv-x="1136" 
d="M573 0h-524v1434h209v-478h315q112 0 202.5 -40.5t146.5 -108.5t86 -152t30 -176t-30 -176.5t-86 -152.5t-146.5 -109t-202.5 -41zM573 752h-315v-547h315q123 0 192 82t69 194q0 110 -69 190.5t-192 80.5z" />
    <glyph glyph-name="afii10047" unicode="&#x42d;" horiz-adv-x="1488" 
d="M446 627v192h734q-29 146 -138 262q-69 72 -160 113t-192 41q-162 0 -284.5 -83t-178.5 -241h-204q62 243 241.5 386t425.5 143q143 0 271.5 -57t224.5 -156q96 -102 150.5 -234t54.5 -280q0 -145 -55 -276.5t-150 -233.5q-96 -100 -224 -156.5t-272 -56.5
q-248 0 -432 150t-246 397h203q55 -161 182.5 -251.5t292.5 -90.5q101 0 192 40.5t160 112.5q117 120 140 279h-736z" />
    <glyph glyph-name="afii10048" unicode="&#x42e;" horiz-adv-x="2048" 
d="M690 1235q100 102 234 159.5t282 57.5q149 0 282.5 -57.5t235.5 -159.5q100 -103 156.5 -236.5t56.5 -281.5t-56.5 -281.5t-156.5 -236.5q-102 -103 -235 -160t-283 -57q-149 0 -282.5 57t-233.5 160q-178 185 -207 424h-202v-623h-207v1434h207v-607h204q37 236 205 408
zM1729 717q0 215 -152 370q-73 73 -170 114.5t-201 41.5t-199 -41.5t-167 -114.5q-72 -72 -113 -168t-41 -202t41 -202.5t113 -168.5q72 -73 167 -114.5t199 -41.5t201 41.5t170 114.5q71 73 111.5 168.5t40.5 202.5z" />
    <glyph glyph-name="bgQ" unicode="&#x42f;" horiz-adv-x="1169" 
d="M766 727v-98l-522 -629h-269l453 539q-177 31 -274 154t-97 284q0 69 18.5 134.5t57 124t92.5 103t131.5 70t167.5 25.5h523v-1434h-205v1225h-318q-123 0 -191.5 -74t-68.5 -174q0 -102 68.5 -176t191.5 -74h242z" />
    <glyph glyph-name="bga" unicode="&#x430;" horiz-adv-x="1325" 
d="M637 1122l-215 -565h430zM1065 0l-137 362h-582l-139 -362h-223l575 1452h152l575 -1452h-221z" />
    <glyph glyph-name="afii10066" unicode="&#x431;" horiz-adv-x="1208" 
d="M1004 1434v-201h-746v-371h442q94 0 173.5 -35t132 -94t81.5 -137t29 -164q0 -82 -27 -158.5t-77.5 -138t-131.5 -98.5t-180 -37h-647v1434h951zM258 664v-463h442q98 0 153.5 68.5t55.5 160.5q0 93 -55.5 163.5t-153.5 70.5h-442z" />
    <glyph glyph-name="afii10067" unicode="&#x432;" horiz-adv-x="1208" 
d="M258 1237v-375h387q46 0 82.5 20.5t56 54t28.5 73.5t0.5 79.5t-26.5 73t-54.5 54t-82.5 20.5h-391zM53 1434h596q82 0 154 -34t120.5 -88.5t75.5 -125t26.5 -141t-34.5 -139.5t-100 -118q115 -49 170 -146.5t55 -209.5q0 -82 -27 -158.5t-77.5 -138t-131.5 -98.5
t-180 -37h-647v1434zM258 657v-456h442q98 0 153.5 68.5t55.5 160.5t-55.5 159.5t-153.5 67.5h-442z" />
    <glyph glyph-name="afii10068" unicode="&#x433;" horiz-adv-x="1036" 
d="M270 1233v-1233h-209v1434h873v-201h-664z" />
    <glyph glyph-name="afii10069" unicode="&#x434;" horiz-adv-x="1349" 
d="M1157 203h117v-432h-203v229h-852v-229h-207v395l115 22q95 100 123 402l55 844h852v-1231zM360 203h584v1032h-442l-31 -510q-5 -106 -9 -162t-15 -131.5t-32.5 -129.5t-54.5 -99z" />
    <glyph glyph-name="afii10070" unicode="&#x435;" horiz-adv-x="1019" 
d="M254 614v-407h666v-207h-875v1434h873v-207h-664v-404h649v-209h-649z" />
    <glyph glyph-name="afii10072" unicode="&#x436;" horiz-adv-x="1802" 
d="M770 1434h209v-1434h-209v1434zM1018 664v104l463 666h243l-499 -713l553 -721h-258zM729 768v-104l-502 -664h-258l553 721l-499 713h243z" />
    <glyph glyph-name="afii10073" unicode="&#x437;" horiz-adv-x="1134" 
d="M352 639v190h215q98 0 147.5 64.5t49.5 146.5q0 56 -23 98t-63 65.5t-86.5 34.5t-99.5 11q-86 0 -156.5 -46t-89.5 -126l-187 45q37 155 159.5 240.5t273.5 85.5q96 0 179 -23.5t150.5 -71t107 -128t40.5 -185.5q0 -211 -131 -299q195 -115 192 -344q-1 -79 -35.5 -152.5
t-98.5 -132.5t-166 -94.5t-226 -35.5q-111 0 -200 30.5t-146.5 83.5t-92 118t-47.5 142l193 35q15 -93 90 -155t203 -62q82 0 145.5 21t100.5 56.5t56 78t19 88.5q0 40 -14.5 78t-44 70.5t-81 52.5t-118.5 20h-215z" />
    <glyph glyph-name="afii10074" unicode="&#x438;" horiz-adv-x="1267" 
d="M1139 0h-207v1001l-692 -1001h-164v1434h205v-1010l698 1010h160v-1434z" />
    <glyph glyph-name="afii10075" unicode="&#x439;" horiz-adv-x="1267" 
d="M1139 0h-207v1001l-692 -1001h-164v1434h205v-1010l698 1010h160v-1434zM348 1708h567v-180h-567v180z" />
    <glyph glyph-name="afii10076" unicode="&#x43a;" horiz-adv-x="1153" 
d="M63 1434h209v-1434h-209v1434zM311 664v104l506 666h254l-547 -713l604 -721h-270z" />
    <glyph glyph-name="afii10077" unicode="&#x43b;" horiz-adv-x="1331" 
d="M637 1094l-428 -1094h-225l575 1452h152l575 -1452h-225z" />
    <glyph glyph-name="afii10078" unicode="&#x43c;" horiz-adv-x="1472" 
d="M266 1010v-1010h-207v1434h168l473 -697l474 697h163v-1434h-204v1010l-375 -557h-117z" />
    <glyph glyph-name="afii10079" unicode="&#x43d;" horiz-adv-x="1193" 
d="M258 1434v-607h606v607h209v-1434h-209v623h-606v-623h-207v1434h207z" />
    <glyph glyph-name="afii10080" unicode="&#x43e;" horiz-adv-x="1624" 
d="M1298 717q0 216 -151 370q-73 73 -170 114.5t-201 41.5t-199 -41.5t-167 -114.5q-72 -72 -113 -168t-41 -202t41 -202.5t113 -168.5q72 -73 167 -114.5t199 -41.5t201 41.5t170 114.5q71 73 111 168t40 203zM47 717q0 148 56.5 281.5t156.5 236.5q100 102 234 159.5
t282 57.5q149 0 282.5 -57.5t235.5 -159.5q100 -103 156.5 -236.5t56.5 -281.5t-56.5 -281.5t-156.5 -236.5q-102 -103 -235 -160t-283 -57q-149 0 -282.5 57t-233.5 160t-156.5 236.5t-56.5 281.5z" />
    <glyph glyph-name="afii10081" unicode="&#x43f;" horiz-adv-x="1193" 
d="M51 1434h1022v-1434h-211v1231h-602v-1231h-209v1434z" />
    <glyph glyph-name="afii10082" unicode="&#x440;" horiz-adv-x="1146" 
d="M61 1434h525q112 0 202.5 -41t146.5 -109.5t86 -153t30 -176.5t-30 -176t-86 -152t-146.5 -108.5t-202.5 -40.5h-316v-477h-209v1434zM270 682h316q123 0 191.5 80t68.5 190q0 111 -68.5 192t-191.5 81h-316v-543z" />
    <glyph glyph-name="afii10083" unicode="&#x441;" horiz-adv-x="1495" 
d="M27 713q0 148 54.5 280t149.5 234q96 99 224.5 156t271.5 57q246 0 426 -143t242 -386h-205q-56 158 -178.5 241t-284.5 83q-101 0 -192 -41t-160 -113q-148 -155 -148 -368q0 -210 148 -365q69 -72 160 -112.5t192 -40.5q165 0 292.5 90.5t182.5 251.5h203
q-62 -247 -246 -397t-432 -150q-144 0 -272 56.5t-224 156.5q-95 101 -149.5 233t-54.5 277z" />
    <glyph glyph-name="afii10084" unicode="&#x442;" horiz-adv-x="1155" 
d="M655 0h-206v1237h-435v197h1073v-197h-432v-1237z" />
    <glyph glyph-name="afii10085" unicode="&#x443;" horiz-adv-x="1171" 
d="M473 -6h-225l205 465l-476 983h234l254 -522l106 -230l93 228l221 524h235z" />
    <glyph glyph-name="afii10086" unicode="&#x444;" horiz-adv-x="1564" 
d="M655 1305v135h207v-135q146 -6 264.5 -57t193 -132.5t114 -182.5t39.5 -210q0 -110 -40 -211.5t-115 -183t-193 -134t-263 -59.5v-135h-207v133q-119 5 -220 40t-172 91.5t-121.5 129.5t-74.5 155.5t-24 169.5q0 110 39.5 211t113.5 183t193 133.5t266 58.5zM858 1124
v-813q193 13 300.5 121.5t107.5 284.5t-107.5 285t-300.5 122zM250 721q0 -173 109 -286.5t300 -123.5v813q-195 -9 -302 -118t-107 -285z" />
    <glyph glyph-name="afii10087" unicode="&#x445;" horiz-adv-x="1304" 
d="M-23 1434h254l390 -527l391 527h252l-519 -705l519 -729h-252l-391 563l-390 -563h-254l519 729z" />
    <glyph glyph-name="afii10088" unicode="&#x446;" horiz-adv-x="1214" 
d="M1016 190h117v-481h-203v291h-869v1434h211v-1244h531v1244h213v-1244z" />
    <glyph glyph-name="afii10089" unicode="&#x447;" horiz-adv-x="1128" 
d="M997 1434v-1434h-206v516q-99 -27 -199 -27q-86 0 -164.5 16.5t-148.5 52t-121 88t-81 129.5t-30 171v488h213v-488q0 -127 100 -197.5t238 -70.5q86 0 193 29v727h206z" />
    <glyph glyph-name="afii10090" unicode="&#x448;" horiz-adv-x="1783" 
d="M55 1434h219v-1246h476v1246h217v-1246h475v1246h219v-1434h-1606v1434z" />
    <glyph glyph-name="afii10091" unicode="&#x449;" horiz-adv-x="1867" 
d="M55 1434h217v-1246h473v1246h220v-1246h475v1246h219v-1246h125v-479h-211v291h-1518v1434z" />
    <glyph glyph-name="afii10092" unicode="&#x44a;" horiz-adv-x="1271" 
d="M2 1231v203h404v-478h315q112 0 202.5 -40.5t146.5 -108.5t86 -152t30 -176t-30 -176.5t-86 -152.5t-146.5 -109t-202.5 -41h-524v1231h-195zM721 752h-315v-547h315q123 0 191.5 82t68.5 194q0 110 -68.5 190.5t-191.5 80.5z" />
    <glyph glyph-name="afii10093" unicode="&#x44b;" horiz-adv-x="1482" 
d="M573 0h-524v1434h209v-478h315q112 0 202.5 -40.5t146.5 -108.5t86 -152t30 -176t-30 -176.5t-86 -152.5t-146.5 -109t-202.5 -41zM573 752h-315v-547h315q123 0 192 82t69 194q0 110 -69 190.5t-192 80.5zM1149 0v1434h211v-1434h-211z" />
    <glyph glyph-name="afii10094" unicode="&#x44c;" horiz-adv-x="1124" 
d="M573 0h-524v1434h209v-478h315q112 0 202.5 -40.5t146.5 -108.5t86 -152t30 -176t-30 -176.5t-86 -152.5t-146.5 -109t-202.5 -41zM573 752h-315v-547h315q123 0 192 82t69 194q0 110 -69 190.5t-192 80.5z" />
    <glyph glyph-name="afii10095" unicode="&#x44d;" horiz-adv-x="1488" 
d="M446 627v192h734q-29 146 -138 262q-69 72 -160 113t-192 41q-162 0 -284.5 -83t-178.5 -241h-204q62 243 241.5 386t425.5 143q143 0 271.5 -57t224.5 -156q96 -102 150.5 -234t54.5 -280q0 -145 -55 -276.5t-150 -233.5q-96 -100 -224 -156.5t-272 -56.5
q-248 0 -432 150t-246 397h203q55 -161 182.5 -251.5t292.5 -90.5q101 0 192 40.5t160 112.5q117 120 140 279h-736z" />
    <glyph glyph-name="afii10096" unicode="&#x44e;" horiz-adv-x="2031" 
d="M674 1235q100 102 234 159.5t282 57.5q149 0 282.5 -57.5t235.5 -159.5q100 -103 156.5 -236.5t56.5 -281.5t-56.5 -281.5t-156.5 -236.5q-102 -103 -235 -160t-283 -57q-149 0 -282.5 57t-233.5 160q-178 185 -207 424h-203v-623h-207v1434h207v-607h205q37 236 205 408
zM1712 717q0 216 -151 370q-73 73 -170 114.5t-201 41.5t-199.5 -41.5t-167.5 -114.5q-72 -72 -112.5 -167.5t-40.5 -202.5t40.5 -203t112.5 -168q72 -73 167.5 -114.5t199.5 -41.5t201 41.5t170 114.5q71 73 111 168t40 203z" />
    <glyph glyph-name="bgq" unicode="&#x44f;" horiz-adv-x="1169" 
d="M766 727v-98l-522 -629h-269l453 539q-177 31 -274 154t-97 284q0 69 18.5 134.5t57 124t92.5 103t131.5 70t167.5 25.5h523v-1434h-207v1225h-316q-123 0 -191.5 -74t-68.5 -174q0 -102 68.5 -176t191.5 -74h242z" />
    <glyph glyph-name="afii10071" unicode="&#x451;" horiz-adv-x="1019" 
d="M254 207v405h649v209h-649v404h664v207h-873v-1432h875v207h-666zM311 1745q52 0 84.5 -32t32.5 -83q0 -43 -33.5 -77.5t-83.5 -34.5q-45 0 -77.5 35t-32.5 77q0 50 32 82.5t78 32.5zM700 1745q52 0 84.5 -32t32.5 -83q0 -43 -33.5 -77.5t-83.5 -34.5q-45 0 -77.5 35
t-32.5 77q0 50 32 82.5t78 32.5z" />
    <glyph glyph-name="afii10099" unicode="&#x452;" horiz-adv-x="1456" 
d="M639 0h-207v1239h-434v195h1073v-195h-432v-256q105 43 205 43q95 0 182.5 -28t159 -81.5t114.5 -140.5t43 -196v-162q2 -227 -102.5 -323.5t-351.5 -96.5v186q64 0 106.5 9.5t76 34.5t48.5 71.5t15 118.5v164q0 68 -28 120.5t-74.5 82.5t-100 44.5t-111.5 14.5
q-104 0 -182 -64v-780z" />
    <glyph glyph-name="afii10100" unicode="&#x453;" horiz-adv-x="1019" 
d="M254 1233v-1233h-209v1434h873v-201h-664zM557 1534h-178l147 219h262z" />
    <glyph glyph-name="afii10101" unicode="&#x454;" horiz-adv-x="1505" 
d="M981 819v-192h-735q24 -160 139 -279q69 -72 160 -112.5t192 -40.5q165 0 292.5 90.5t182.5 251.5h203q-62 -247 -246 -397t-432 -150q-143 0 -271 56.5t-224 156.5q-95 102 -150 233.5t-55 276.5q0 148 54.5 280t150.5 234q96 100 224 156.5t271 56.5q246 0 426 -143
t242 -386h-205q-56 158 -178.5 241t-284.5 83q-101 0 -192 -41t-160 -113q-108 -114 -137 -262h733z" />
    <glyph glyph-name="afii10102" unicode="&#x455;" horiz-adv-x="1175" 
d="M1040 1071l-204 -8q-14 61 -61 104t-106.5 61t-125.5 17q-78 -2 -149 -29t-111 -79q-42 -53 -35 -133q2 -31 13.5 -55.5t27.5 -42t43 -31t51 -21.5t60.5 -14.5t63 -9.5t66.5 -7q57 -7 102 -15.5t101 -23.5t99 -37.5t84 -53t69 -75.5t41 -100q10 -52 10 -94
q0 -100 -46.5 -184t-123 -138t-170.5 -84t-192 -30q-67 0 -135.5 15.5t-133.5 47.5t-117 77t-87 109t-43 138l-2 39l209 4l2 -31v8q10 -93 104.5 -147.5t204.5 -54.5q124 0 222.5 64.5t98.5 168.5q0 22 -6 49q-6 26 -21 47t-40.5 35t-50.5 24t-64 17t-67 10.5t-72 7.5
q-56 6 -98 12t-95.5 19t-93.5 30.5t-81 45.5t-68.5 63.5t-47 87t-24.5 113.5v-2q-13 153 78 272q70 91 187.5 141t246.5 50q85 0 164.5 -22.5t147.5 -67t115 -118.5t60 -169z" />
    <glyph glyph-name="afii10103" unicode="&#x456;" horiz-adv-x="835" 
d="M756 1432v-197h-267v-1036h267v-199h-740v199h267v1036h-267v197h740z" />
    <glyph glyph-name="afii10104" unicode="&#x457;" horiz-adv-x="835" 
d="M756 1237v197h-740v-197h267v-1038h-267v-199h740v199h-267v1038h267zM190 1745q52 0 84.5 -32t32.5 -83q0 -43 -33.5 -77.5t-83.5 -34.5q-45 0 -77.5 35t-32.5 77q0 50 32 82.5t78 32.5zM580 1745q52 0 84 -32t32 -83q0 -44 -33 -78t-83 -34q-45 0 -78 35t-33 77
q0 50 32 82.5t79 32.5z" />
    <glyph glyph-name="afii10105" unicode="&#x458;" horiz-adv-x="884" 
d="M778 1434v-813q0 -217 -74.5 -351.5t-241.5 -202t-442 -67.5v195q158 0 265 26t170 81t89.5 131.5t26.5 187.5v624h-387v189h594z" />
    <glyph glyph-name="afii10106" unicode="&#x459;" horiz-adv-x="1816" 
d="M1274 0h-477v1210h-19l-561 -1210h-229l671 1434h347v-549h268q111 0 200 -38t143.5 -100.5t84 -142t29 -162t-30.5 -162t-84.5 -142t-143.5 -100.5t-198 -38zM1274 680h-268v-475h268q59 0 107 20.5t77 54t45 76t16.5 87t-15.5 87t-45.5 76t-77.5 54t-107 20.5z" />
    <glyph glyph-name="afii10107" unicode="&#x45a;" horiz-adv-x="1806" 
d="M1264 0h-478v680h-524v-680h-207v1434h207v-549h524v549h209v-549h269q111 0 200 -38t143.5 -100.5t84 -142t29 -162t-30.5 -162t-84.5 -142t-143.5 -100.5t-198 -38zM1264 680h-269v-475h269q59 0 107 20.5t77 54t45 76t16.5 87t-15.5 87t-45.5 76t-77.5 54t-107 20.5z
" />
    <glyph glyph-name="afii10108" unicode="&#x45b;" horiz-adv-x="1460" 
d="M1343 0h-208v571q0 68 -28 120.5t-74.5 82.5t-100 45t-111.5 15q-104 0 -182 -64v-770h-207v1239h-434v195h1073v-195h-432v-266q105 43 205 43q75 0 146.5 -17t135.5 -53.5t112 -88.5t76.5 -126t28.5 -162v-569z" />
    <glyph glyph-name="afii10109" unicode="&#x45c;" horiz-adv-x="1140" 
d="M51 1434h209v-1434h-209v1434zM299 664v104l506 666h254l-547 -713l604 -721h-270zM590 1534h-178l147 219h262z" />
    <glyph glyph-name="afii10110" unicode="&#x45e;" horiz-adv-x="1171" 
d="M475 -2h-225l203 461l-476 975h234l254 -514l106 -230l93 228l221 516h235zM293 1708h530v-180h-530v180z" />
    <glyph glyph-name="afii10193" unicode="&#x45f;" horiz-adv-x="1193" 
d="M463 -236v236h-412v1434h209v-1231h602v1231h211v-1434h-407v-236h-203z" />
    <glyph glyph-name="afii10050" unicode="&#x490;" horiz-adv-x="1019" 
d="M729 1434v157h189v-358h-664v-1233h-209v1434h684z" />
    <glyph glyph-name="afii10098" unicode="&#x491;" horiz-adv-x="1019" 
d="M729 1434v157h189v-358h-664v-1233h-209v1434h684z" />
    <glyph glyph-name="uni1E9E" unicode="&#x1e9e;" horiz-adv-x="1167" 
d="M297 1055v-1055h-221v1055q0 87 37.5 159.5t100 120.5t144 74.5t170.5 26.5q120 0 220 -43t162.5 -129.5t62.5 -200.5q0 -81 -39 -156.5t-117 -130.5q122 -52 186 -149.5t62 -210.5q2 -105 -38 -189t-109.5 -135.5t-158 -78.5t-188.5 -27q-105 0 -233 41v200
q109 -61 205 -61q141 0 222 74.5t81 175.5q0 102 -81 176t-222 74h-150v190h150q104 0 163.5 63.5t53.5 145.5q-6 83 -74 132.5t-160 49.5q-90 0 -159.5 -54t-69.5 -138z" />
    <glyph glyph-name="thinspace" unicode="&#x2009;" horiz-adv-x="28" 
 />
    <glyph glyph-name="endash" unicode="&#x2013;" horiz-adv-x="1239" 
d="M61 612v197h1049v-197h-1049z" />
    <glyph glyph-name="emdash" unicode="&#x2014;" horiz-adv-x="1544" 
d="M39 612v193h1403v-193h-1403z" />
    <glyph glyph-name="quoteleft" unicode="&#x2018;" horiz-adv-x="446" 
d="M360 1444l-106 -408h-213l154 408h165z" />
    <glyph glyph-name="quoteright" unicode="&#x2019;" horiz-adv-x="434" 
d="M41 1034l106 408h213l-153 -408h-166z" />
    <glyph glyph-name="quotesinglbase" unicode="&#x201a;" horiz-adv-x="425" 
d="M158 -205h-189l150 377h229z" />
    <glyph glyph-name="quotedblleft" unicode="&#x201c;" horiz-adv-x="698" 
d="M340 1444l-107 -408h-213l154 408h166zM627 1444l-107 -408h-213l154 408h166z" />
    <glyph glyph-name="quotedblright" unicode="&#x201d;" horiz-adv-x="727" 
d="M315 1034l107 408h213l-154 -408h-166zM29 1034l106 408h213l-153 -408h-166z" />
    <glyph glyph-name="quotedblbase" unicode="&#x201e;" horiz-adv-x="727" 
d="M158 -205h-189l150 377h229zM461 -205h-189l150 377h229z" />
    <glyph glyph-name="dagger" unicode="&#x2020;" horiz-adv-x="978" 
d="M367 -98v956h-349v178h349v394h190v-394h352v-178h-352v-956h-190z" />
    <glyph glyph-name="daggerdbl" unicode="&#x2021;" horiz-adv-x="995" 
d="M27 338v168h350v356h-350v174h350v394h188v-394h350v-174h-350v-356h350v-168h-350v-436h-188v436h-350z" />
    <glyph glyph-name="bullet" unicode="&#x2022;" horiz-adv-x="694" 
d="M342 502q-97 0 -164 67.5t-67 165.5q0 97 67 164.5t164 67.5t164 -67.5t67 -164.5q0 -98 -67 -165.5t-164 -67.5z" />
    <glyph glyph-name="ellipsis" unicode="&#x2026;" horiz-adv-x="1067" 
d="M152 246q57 0 93 -35t36 -92q0 -48 -37 -86.5t-92 -38.5q-50 0 -86.5 39t-36.5 86q0 56 35.5 91.5t87.5 35.5zM504 246q57 0 93 -35t36 -92q0 -48 -37 -86.5t-92 -38.5q-50 0 -86.5 39t-36.5 86q0 56 35.5 91.5t87.5 35.5zM852 246q57 0 93 -35t36 -92q0 -48 -37 -86.5
t-92 -38.5q-50 0 -86.5 39t-36.5 86q0 56 35.5 91.5t87.5 35.5z" />
    <glyph glyph-name="perthousand" unicode="&#x2030;" horiz-adv-x="2328" 
d="M741 1079q0 -144 -103.5 -245t-248.5 -101q-143 0 -246.5 101t-103.5 245q0 145 103 246.5t247 101.5q145 0 248.5 -101t103.5 -247zM1110 1417h236l-934 -1435h-234zM551 1079q0 71 -47 121.5t-115 50.5q-67 0 -113.5 -50.5t-46.5 -121.5t46.5 -120.5t113.5 -49.5
q69 0 115.5 49.5t46.5 120.5zM1489 336q0 -144 -103.5 -245t-248.5 -101t-248 101t-103 245q0 146 103 247t248 101t248.5 -101t103.5 -247zM1298 336q0 71 -46.5 121.5t-114.5 50.5q-67 0 -114.5 -50.5t-47.5 -121.5t47.5 -120.5t114.5 -49.5q68 0 114.5 49.5t46.5 120.5z
M2251 336q0 -144 -104 -245t-249 -101t-247.5 101t-102.5 245q0 146 102.5 247t247.5 101q146 0 249.5 -101.5t103.5 -246.5zM2060 336q0 71 -47 121.5t-115 50.5q-67 0 -114 -50.5t-47 -121.5t47 -120.5t114 -49.5q69 0 115.5 49.5t46.5 120.5z" />
    <glyph glyph-name="guilsinglleft" unicode="&#x2039;" horiz-adv-x="679" 
d="M354 201l-340 424l340 426h240l-338 -426q50 -64 168 -210.5t170 -213.5h-240z" />
    <glyph glyph-name="guilsinglright" unicode="&#x203a;" horiz-adv-x="673" 
d="M33 274l334 424l-338 426h239l338 -426l-338 -424h-235z" />
    <glyph glyph-name="fraction" unicode="&#x2044;" horiz-adv-x="450" 
d="M-70 -96h-202l743 1558h203z" />
    <glyph glyph-name="zerosuperior" unicode="&#x2070;" horiz-adv-x="1171" 
d="M539 1176q-80 0 -144 -42t-103.5 -112t-60 -157t-20.5 -181t20.5 -180.5t60 -156t103.5 -111t144 -41.5q105 0 181 72t111 180.5t35 236.5t-35 237t-111 182t-181 73zM539 -4q-102 0 -188.5 38.5t-147.5 104.5t-104.5 154t-64 187t-20.5 204t20.5 204t64 187.5t104.5 155
t147.5 105t188.5 38.5q101 0 187.5 -38.5t147.5 -105t104.5 -155t64 -187.5t20.5 -204t-20.5 -204t-64 -187t-104.5 -154t-147.5 -104.5t-187.5 -38.5z" />
    <glyph glyph-name="foursuperior" unicode="&#x2074;" horiz-adv-x="1124" 
d="M-6 469l760 965h159v-910h117v-200h-117v-324h-204v324h-715v145zM264 520h449v555z" />
    <glyph glyph-name="fivesuperior" unicode="&#x2075;" horiz-adv-x="1134" 
d="M18 326l191 77q44 -91 120 -142.5t179 -51.5q151 0 234 86t81 205q0 78 -43.5 148t-122.5 104q-249 102 -503 -47l-117 53v682h913v-201h-704v-287q257 83 485 -8q145 -60 222 -179.5t79 -264.5q1 -76 -19.5 -148t-64 -136t-104.5 -112t-148 -76t-188 -28
q-361 0 -490 326z" />
    <glyph glyph-name="sixsuperior" unicode="&#x2076;" horiz-adv-x="1150" 
d="M528 778q-149 0 -232 -85t-83 -201q0 -55 20 -105t58 -90t99.5 -64t137.5 -24q151 0 233.5 83.5t82.5 199.5q0 74 -33.5 137.5t-107 106t-175.5 42.5zM94 778l467 656h254l-350 -494q78 28 176 22t172 -47q115 -65 176.5 -179.5t61.5 -243.5q0 -94 -33.5 -181t-96.5 -157
t-165 -112t-228 -42q-125 0 -226.5 42t-165 112t-97 157t-33.5 181q0 152 88 286z" />
    <glyph glyph-name="sevensuperior" unicode="&#x2077;" horiz-adv-x="1079" 
d="M6 1434h1010v-142l-707 -1292h-237l671 1231h-737v203z" />
    <glyph glyph-name="eightsuperior" unicode="&#x2078;" horiz-adv-x="1132" 
d="M524 178q148 0 231 72t83 164t-82.5 160.5t-231.5 68.5q-146 0 -228.5 -68.5t-82.5 -160.5t83 -164t228 -72zM524 1264q-98 0 -175 -60t-77 -157q0 -82 66.5 -147.5t185.5 -65.5q120 0 187 65.5t67 149.5q0 97 -78 156t-176 59zM983 1042q0 -84 -48.5 -169t-131.5 -123
q118 -45 179.5 -137.5t61.5 -196.5q0 -82 -33.5 -158t-96 -137.5t-164 -98t-226.5 -36.5q-124 0 -224 35t-163 95t-96 137t-33 163q0 99 65.5 191t182.5 143q-55 22 -94.5 59.5t-58.5 80.5t-27 80.5t-8 73.5q1 79 27.5 146t71 113.5t103 79t123 48t131.5 15.5
q110 0 199.5 -34.5t145 -92t85 -128.5t29.5 -149z" />
    <glyph glyph-name="ninesuperior" unicode="&#x2079;" horiz-adv-x="1163" 
d="M543 662q102 0 176 43t107.5 107t33.5 138q0 118 -83 202.5t-234 84.5t-234.5 -84.5t-83.5 -202.5q0 -74 34 -138t108 -107t176 -43zM983 662l-471 -662h-256l352 500q-81 -30 -179.5 -24.5t-170.5 46.5q-117 67 -179.5 182.5t-62.5 245.5q0 96 34 184t97.5 158.5
t166 113t229.5 42.5t229.5 -42.5t166.5 -113t98 -158.5t34 -184q0 -150 -88 -288z" />
    <glyph glyph-name="zeroinferior" unicode="&#x2080;" horiz-adv-x="1171" 
d="M539 1176q-80 0 -144 -42t-103.5 -112t-60 -157t-20.5 -181t20.5 -180.5t60 -156t103.5 -111t144 -41.5q105 0 181 72t111 180.5t35 236.5t-35 237t-111 182t-181 73zM539 -4q-102 0 -188.5 38.5t-147.5 104.5t-104.5 154t-64 187t-20.5 204t20.5 204t64 187.5t104.5 155
t147.5 105t188.5 38.5q101 0 187.5 -38.5t147.5 -105t104.5 -155t64 -187.5t20.5 -204t-20.5 -204t-64 -187t-104.5 -154t-147.5 -104.5t-187.5 -38.5z" />
    <glyph glyph-name="oneinferior" unicode="&#x2081;" horiz-adv-x="591" 
d="M465 0h-205v1044l-192 -262l-156 113l387 545h166v-1440z" />
    <glyph glyph-name="twoinferior" unicode="&#x2082;" horiz-adv-x="1128" 
d="M233 961l-206 16q14 98 52 181t98.5 147t150 100.5t198.5 36.5q131 0 237 -45.5t169.5 -119t93 -168t18.5 -189.5t-66 -187t-149 -158q-98 -81 -226.5 -184t-235.5 -192h657v-199h-1006v160l674 573h-2q55 39 89 93t43.5 109t-5 109.5t-50 96.5t-98 68t-143.5 26
q-127 0 -200 -74t-93 -200z" />
    <glyph glyph-name="threeinferior" unicode="&#x2083;" horiz-adv-x="1103" 
d="M334 623v194h215q67 0 113.5 34.5t64.5 81t18 97.5q0 68 -40.5 117t-100.5 70.5t-131 21.5q-86 0 -156.5 -46t-89.5 -126l-186 45q19 79 62 142t102 102t127.5 59.5t140.5 20.5q89 0 172 -25t152 -73t110.5 -127.5t42.5 -180.5q0 -211 -131 -299q188 -111 185 -334
q-1 -79 -34.5 -152.5t-96 -132.5t-163.5 -94.5t-225 -35.5q-111 0 -200 30t-146 83.5t-91.5 118.5t-47.5 142l193 35q15 -93 89.5 -155t202.5 -62q160 0 246 73.5t78 170.5q-3 34 -18.5 67.5t-44 66t-80 52t-117.5 19.5h-215z" />
    <glyph glyph-name="fourinferior" unicode="&#x2084;" horiz-adv-x="1124" 
d="M-6 469l760 965h159v-910h117v-200h-117v-324h-204v324h-715v145zM264 520h449v555z" />
    <glyph glyph-name="fiveinferior" unicode="&#x2085;" horiz-adv-x="1134" 
d="M18 326l191 77q44 -91 120 -142.5t179 -51.5q151 0 234 86t81 205q0 78 -43.5 148t-122.5 104q-249 102 -503 -47l-117 53v682h913v-201h-704v-287q257 83 485 -8q145 -60 222 -179.5t79 -264.5q1 -76 -19.5 -148t-64 -136t-104.5 -112t-148 -76t-188 -28
q-361 0 -490 326z" />
    <glyph glyph-name="sixinferior" unicode="&#x2086;" horiz-adv-x="1150" 
d="M528 778q-149 0 -232 -85t-83 -201q0 -55 20 -105t58 -90t99.5 -64t137.5 -24q151 0 233.5 83.5t82.5 199.5q0 74 -33.5 137.5t-107 106t-175.5 42.5zM94 778l467 656h254l-350 -494q78 28 176 22t172 -47q115 -65 176.5 -179.5t61.5 -243.5q0 -94 -33.5 -181t-96.5 -157
t-165 -112t-228 -42q-125 0 -226.5 42t-165 112t-97 157t-33.5 181q0 152 88 286z" />
    <glyph glyph-name="seveninferior" unicode="&#x2087;" horiz-adv-x="1079" 
d="M6 1434h1010v-142l-707 -1292h-237l671 1231h-737v203z" />
    <glyph glyph-name="eightinferior" unicode="&#x2088;" horiz-adv-x="1132" 
d="M524 178q148 0 231 72t83 164t-82.5 160.5t-231.5 68.5q-146 0 -228.5 -68.5t-82.5 -160.5t83 -164t228 -72zM524 1264q-98 0 -175 -60t-77 -157q0 -82 66.5 -147.5t185.5 -65.5q120 0 187 65.5t67 149.5q0 97 -78 156t-176 59zM983 1042q0 -84 -48.5 -169t-131.5 -123
q118 -45 179.5 -137.5t61.5 -196.5q0 -82 -33.5 -158t-96 -137.5t-164 -98t-226.5 -36.5q-124 0 -224 35t-163 95t-96 137t-33 163q0 99 65.5 191t182.5 143q-55 22 -94.5 59.5t-58.5 80.5t-27 80.5t-8 73.5q1 79 27.5 146t71 113.5t103 79t123 48t131.5 15.5
q110 0 199.5 -34.5t145 -92t85 -128.5t29.5 -149z" />
    <glyph glyph-name="nineinferior" unicode="&#x2089;" horiz-adv-x="1163" 
d="M543 662q102 0 176 43t107.5 107t33.5 138q0 118 -83 202.5t-234 84.5t-234.5 -84.5t-83.5 -202.5q0 -74 34 -138t108 -107t176 -43zM983 662l-471 -662h-256l352 500q-81 -30 -179.5 -24.5t-170.5 46.5q-117 67 -179.5 182.5t-62.5 245.5q0 96 34 184t97.5 158.5
t166 113t229.5 42.5t229.5 -42.5t166.5 -113t98 -158.5t34 -184q0 -150 -88 -288z" />
    <glyph glyph-name="Euro" unicode="&#x20ac;" horiz-adv-x="1552" 
d="M84 664v49l2 57h-98l39 172h94q45 163 168 295q96 100 224 156.5t271 56.5q247 0 427 -141t241 -383h-205q-56 157 -178 238t-285 81q-102 0 -194 -40t-160 -111q-63 -66 -100 -152h620l-39 -172h-624l-2 -57q0 -33 2 -49h590l-35 -166h-512q41 -93 100 -152
q68 -71 160 -111t194 -40q165 0 293 90.5t183 251.5h202q-62 -247 -246 -397t-432 -150q-143 0 -271 56.5t-224 156.5q-120 126 -172 295h-142l39 166h70z" />
    <glyph glyph-name="afii61352" unicode="&#x2116;" horiz-adv-x="2377" 
d="M1432 518q0 -85 26.5 -153t71.5 -110t101 -63.5t118 -21.5q133 0 226 90.5t93 257.5t-93 255.5t-226 88.5q-62 0 -118 -21t-101 -62t-71.5 -108.5t-26.5 -152.5zM2277 518q0 -151 -66 -274.5t-187.5 -196t-274.5 -72.5q-230 0 -378 156.5t-148 386.5t148 385.5t378 155.5
q153 0 274.5 -72t187.5 -195t66 -274zM283 0h-207v1434h160l698 -1010v1010h205v-1434h-164l-692 1001v-1001z" />
    <glyph glyph-name="trademark" unicode="&#x2122;" horiz-adv-x="1773" 
d="M668 1274h-219v-625h-183v625h-219v160h621v-160zM1126 743l-198 365q0 -77 2 -231.5t2 -227.5h-182v783h184l260 -459q142 240 266 459h180v-783h-184l4 453l-194 -359h-140z" />
    <glyph glyph-name="minus" unicode="&#x2212;" horiz-adv-x="1048" 
d="M33 625v204h923v-204h-923z" />
    <glyph glyph-name="infinity" unicode="&#x221e;" horiz-adv-x="970" 
d="M498 377q-140 0 -239 99.5t-99 238.5q0 140 99 238t239 98q141 0 239.5 -97.5t98.5 -238.5q0 -140 -98.5 -239t-239.5 -99z" />
    <glyph glyph-name="approxequal" unicode="&#x2248;" horiz-adv-x="1114" 
d="M121 653l-117 140q67 70 155 119t177 49q48 0 95.5 -14t71.5 -26.5t70 -39.5q3 -1 17.5 -10t18.5 -11t17 -9t19 -9.5t18 -7t20 -6.5t18 -3.5t20 -1.5q55 0 113.5 29t103.5 80l98 -127q-78 -81 -153 -127.5t-162 -46.5q-48 0 -97.5 14.5t-70.5 25.5t-70 38
q-64 35 -120.5 43.5t-117.5 -15.5t-124 -84zM121 311l-117 142q67 69 155 117t177 48q48 0 95 -13.5t72 -26.5t70 -39q34 -20 49.5 -28t44.5 -18t54 -10q55 0 113.5 28.5t103.5 78.5l115 -144q-66 -67 -154 -112t-178 -45q-48 0 -95.5 13.5t-74 26.5t-68.5 38
q-33 19 -49.5 28t-44 18t-53.5 9q-53 0 -110.5 -30.5t-104.5 -80.5z" />
    <glyph glyph-name="notequal" unicode="&#x2260;" horiz-adv-x="1030" 
d="M104 201l97 137h-181v184h304l151 203h-455v186h580l162 226l127 -93l-96 -133h157v-186h-280l-152 -203h432v-184h-555l-159 -229z" />
    <glyph glyph-name="lessequal" unicode="&#x2264;" horiz-adv-x="985" 
d="M43 201h848v-199h-848v199zM868 1282v-227l-579 -287l579 -291v-217l-835 434v142z" />
    <glyph glyph-name="greaterequal" unicode="&#x2265;" horiz-adv-x="980" 
d="M31 201h848v-199h-848v199zM53 1055v227l836 -446v-142l-836 -434v217l580 291z" />
    <glyph glyph-name="fontfabric" horiz-adv-x="3584" 
d="M2726 1432h717v-361h-29q-45 163 -130 248.5t-239 85.5h-120v-1380h225v-27h-424v1434zM1505 25h480v-27h-480v27zM2408 1432h252v-27v-1407h-65l-877 1407h-213v27h441l675 -1100h13v1073h-226v27zM1599 1006q54 -130 54 -289q0 -138 -54 -268q-29 -58 -41.5 -82
t-42 -68t-61.5 -76q-119 -119 -232.5 -172t-271.5 -53h-12v27h12q259 0 373 172q57 78 78 213q26 204 26 307q0 317 -92 475q-87 213 -385 213h-12v27h12q207 0 385.5 -117.5t263.5 -308.5zM487 899q4 14 22.5 60t29.5 88h14v-625h-14q-7 60 -25 112.5t-48.5 98t-80 71.5
t-111.5 25h-133v27h117q93 -2 146 30t83 113zM141 1432h688v-347h-12q-19 72 -45.5 126t-69.5 100t-107.5 70t-150.5 24h-303v27z" />
    <glyph glyph-name="zero.tnum" horiz-adv-x="1171" 
d="M539 1176q-80 0 -144 -42t-103.5 -112t-60 -157t-20.5 -181t20.5 -180.5t60 -156t103.5 -111t144 -41.5q105 0 181 72t111 180.5t35 236.5t-35 237t-111 182t-181 73zM539 -4q-102 0 -188.5 38.5t-147.5 104.5t-104.5 154t-64 187t-20.5 204t20.5 204t64 187.5t104.5 155
t147.5 105t188.5 38.5q101 0 187.5 -38.5t147.5 -105t104.5 -155t64 -187.5t20.5 -204t-20.5 -204t-64 -187t-104.5 -154t-147.5 -104.5t-187.5 -38.5z" />
    <glyph glyph-name="one.tnum" horiz-adv-x="591" 
d="M465 0h-205v1044l-192 -262l-156 113l387 545h166v-1440z" />
    <glyph glyph-name="two.tnum" horiz-adv-x="1128" 
d="M233 961l-206 16q14 98 52 181t98.5 147t150 100.5t198.5 36.5q131 0 237 -45.5t169.5 -119t93 -168t18.5 -189.5t-66 -187t-149 -158q-98 -81 -226.5 -184t-235.5 -192h657v-199h-1006v160l674 573h-2q55 39 89 93t43.5 109t-5 109.5t-50 96.5t-98 68t-143.5 26
q-127 0 -200 -74t-93 -200z" />
    <glyph glyph-name="three.tnum" horiz-adv-x="1103" 
d="M334 623v194h215q67 0 113.5 34.5t64.5 81t18 97.5q0 68 -40.5 117t-100.5 70.5t-131 21.5q-86 0 -156.5 -46t-89.5 -126l-186 45q19 79 62 142t102 102t127.5 59.5t140.5 20.5q89 0 172 -25t152 -73t110.5 -127.5t42.5 -180.5q0 -211 -131 -299q188 -111 185 -334
q-1 -79 -34.5 -152.5t-96 -132.5t-163.5 -94.5t-225 -35.5q-111 0 -200 30t-146 83.5t-91.5 118.5t-47.5 142l193 35q15 -93 89.5 -155t202.5 -62q160 0 246 73.5t78 170.5q-3 34 -18.5 67.5t-44 66t-80 52t-117.5 19.5h-215z" />
    <glyph glyph-name="four.tnum" horiz-adv-x="1124" 
d="M-6 469l760 965h159v-910h117v-200h-117v-324h-204v324h-715v145zM264 520h449v555z" />
    <glyph glyph-name="five.tnum" horiz-adv-x="1134" 
d="M18 326l191 77q44 -91 120 -142.5t179 -51.5q151 0 234 86t81 205q0 78 -43.5 148t-122.5 104q-249 102 -503 -47l-117 53v682h913v-201h-704v-287q257 83 485 -8q145 -60 222 -179.5t79 -264.5q1 -76 -19.5 -148t-64 -136t-104.5 -112t-148 -76t-188 -28
q-361 0 -490 326z" />
    <glyph glyph-name="six.tnum" horiz-adv-x="1150" 
d="M528 778q-149 0 -232 -85t-83 -201q0 -55 20 -105t58 -90t99.5 -64t137.5 -24q151 0 233.5 83.5t82.5 199.5q0 74 -33.5 137.5t-107 106t-175.5 42.5zM94 778l467 656h254l-350 -494q78 28 176 22t172 -47q115 -65 176.5 -179.5t61.5 -243.5q0 -94 -33.5 -181t-96.5 -157
t-165 -112t-228 -42q-125 0 -226.5 42t-165 112t-97 157t-33.5 181q0 152 88 286z" />
    <glyph glyph-name="seven.tnum" horiz-adv-x="1079" 
d="M6 1434h1010v-142l-707 -1292h-237l671 1231h-737v203z" />
    <glyph glyph-name="eight.tnum" horiz-adv-x="1132" 
d="M524 178q148 0 231 72t83 164t-82.5 160.5t-231.5 68.5q-146 0 -228.5 -68.5t-82.5 -160.5t83 -164t228 -72zM524 1264q-98 0 -175 -60t-77 -157q0 -82 66.5 -147.5t185.5 -65.5q120 0 187 65.5t67 149.5q0 97 -78 156t-176 59zM983 1042q0 -84 -48.5 -169t-131.5 -123
q118 -45 179.5 -137.5t61.5 -196.5q0 -82 -33.5 -158t-96 -137.5t-164 -98t-226.5 -36.5q-124 0 -224 35t-163 95t-96 137t-33 163q0 99 65.5 191t182.5 143q-55 22 -94.5 59.5t-58.5 80.5t-27 80.5t-8 73.5q1 79 27.5 146t71 113.5t103 79t123 48t131.5 15.5
q110 0 199.5 -34.5t145 -92t85 -128.5t29.5 -149z" />
    <glyph glyph-name="nine.tnum" horiz-adv-x="1163" 
d="M543 662q102 0 176 43t107.5 107t33.5 138q0 118 -83 202.5t-234 84.5t-234.5 -84.5t-83.5 -202.5q0 -74 34 -138t108 -107t176 -43zM983 662l-471 -662h-256l352 500q-81 -30 -179.5 -24.5t-170.5 46.5q-117 67 -179.5 182.5t-62.5 245.5q0 96 34 184t97.5 158.5
t166 113t229.5 42.5t229.5 -42.5t166.5 -113t98 -158.5t34 -184q0 -150 -88 -288z" />
    <glyph glyph-name="zero.p_osf" horiz-adv-x="1171" 
d="M539 1176q-80 0 -144 -42t-103.5 -112t-60 -157t-20.5 -181t20.5 -180.5t60 -156t103.5 -111t144 -41.5q105 0 181 72t111 180.5t35 236.5t-35 237t-111 182t-181 73zM539 -4q-102 0 -188.5 38.5t-147.5 104.5t-104.5 154t-64 187t-20.5 204t20.5 204t64 187.5t104.5 155
t147.5 105t188.5 38.5q101 0 187.5 -38.5t147.5 -105t104.5 -155t64 -187.5t20.5 -204t-20.5 -204t-64 -187t-104.5 -154t-147.5 -104.5t-187.5 -38.5z" />
    <glyph glyph-name="one.p_osf" horiz-adv-x="591" 
d="M465 0h-205v1044l-192 -262l-156 113l387 545h166v-1440z" />
    <glyph glyph-name="two.p_osf" horiz-adv-x="1128" 
d="M233 961l-206 16q14 98 52 181t98.5 147t150 100.5t198.5 36.5q131 0 237 -45.5t169.5 -119t93 -168t18.5 -189.5t-66 -187t-149 -158q-98 -81 -226.5 -184t-235.5 -192h657v-199h-1006v160l674 573h-2q55 39 89 93t43.5 109t-5 109.5t-50 96.5t-98 68t-143.5 26
q-127 0 -200 -74t-93 -200z" />
    <glyph glyph-name="three.p_osf" horiz-adv-x="1103" 
d="M334 623v194h215q67 0 113.5 34.5t64.5 81t18 97.5q0 68 -40.5 117t-100.5 70.5t-131 21.5q-86 0 -156.5 -46t-89.5 -126l-186 45q19 79 62 142t102 102t127.5 59.5t140.5 20.5q89 0 172 -25t152 -73t110.5 -127.5t42.5 -180.5q0 -211 -131 -299q188 -111 185 -334
q-1 -79 -34.5 -152.5t-96 -132.5t-163.5 -94.5t-225 -35.5q-111 0 -200 30t-146 83.5t-91.5 118.5t-47.5 142l193 35q15 -93 89.5 -155t202.5 -62q160 0 246 73.5t78 170.5q-3 34 -18.5 67.5t-44 66t-80 52t-117.5 19.5h-215z" />
    <glyph glyph-name="four.p_osf" horiz-adv-x="1124" 
d="M-6 469l760 965h159v-910h117v-200h-117v-324h-204v324h-715v145zM264 520h449v555z" />
    <glyph glyph-name="five.p_osf" horiz-adv-x="1134" 
d="M18 326l191 77q44 -91 120 -142.5t179 -51.5q151 0 234 86t81 205q0 78 -43.5 148t-122.5 104q-249 102 -503 -47l-117 53v682h913v-201h-704v-287q257 83 485 -8q145 -60 222 -179.5t79 -264.5q1 -76 -19.5 -148t-64 -136t-104.5 -112t-148 -76t-188 -28
q-361 0 -490 326z" />
    <glyph glyph-name="six.p_osf" horiz-adv-x="1150" 
d="M528 778q-149 0 -232 -85t-83 -201q0 -55 20 -105t58 -90t99.5 -64t137.5 -24q151 0 233.5 83.5t82.5 199.5q0 74 -33.5 137.5t-107 106t-175.5 42.5zM94 778l467 656h254l-350 -494q78 28 176 22t172 -47q115 -65 176.5 -179.5t61.5 -243.5q0 -94 -33.5 -181t-96.5 -157
t-165 -112t-228 -42q-125 0 -226.5 42t-165 112t-97 157t-33.5 181q0 152 88 286z" />
    <glyph glyph-name="seven.p_osf" horiz-adv-x="1079" 
d="M6 1434h1010v-142l-707 -1292h-237l671 1231h-737v203z" />
    <glyph glyph-name="eight.p_osf" horiz-adv-x="1132" 
d="M524 178q148 0 231 72t83 164t-82.5 160.5t-231.5 68.5q-146 0 -228.5 -68.5t-82.5 -160.5t83 -164t228 -72zM524 1264q-98 0 -175 -60t-77 -157q0 -82 66.5 -147.5t185.5 -65.5q120 0 187 65.5t67 149.5q0 97 -78 156t-176 59zM983 1042q0 -84 -48.5 -169t-131.5 -123
q118 -45 179.5 -137.5t61.5 -196.5q0 -82 -33.5 -158t-96 -137.5t-164 -98t-226.5 -36.5q-124 0 -224 35t-163 95t-96 137t-33 163q0 99 65.5 191t182.5 143q-55 22 -94.5 59.5t-58.5 80.5t-27 80.5t-8 73.5q1 79 27.5 146t71 113.5t103 79t123 48t131.5 15.5
q110 0 199.5 -34.5t145 -92t85 -128.5t29.5 -149z" />
    <glyph glyph-name="nine.p_osf" horiz-adv-x="1163" 
d="M543 662q102 0 176 43t107.5 107t33.5 138q0 118 -83 202.5t-234 84.5t-234.5 -84.5t-83.5 -202.5q0 -74 34 -138t108 -107t176 -43zM983 662l-471 -662h-256l352 500q-81 -30 -179.5 -24.5t-170.5 46.5q-117 67 -179.5 182.5t-62.5 245.5q0 96 34 184t97.5 158.5
t166 113t229.5 42.5t229.5 -42.5t166.5 -113t98 -158.5t34 -184q0 -150 -88 -288z" />
    <glyph glyph-name="zero.t_osf" horiz-adv-x="1171" 
d="M539 1176q-80 0 -144 -42t-103.5 -112t-60 -157t-20.5 -181t20.5 -180.5t60 -156t103.5 -111t144 -41.5q105 0 181 72t111 180.5t35 236.5t-35 237t-111 182t-181 73zM539 -4q-102 0 -188.5 38.5t-147.5 104.5t-104.5 154t-64 187t-20.5 204t20.5 204t64 187.5t104.5 155
t147.5 105t188.5 38.5q101 0 187.5 -38.5t147.5 -105t104.5 -155t64 -187.5t20.5 -204t-20.5 -204t-64 -187t-104.5 -154t-147.5 -104.5t-187.5 -38.5z" />
    <glyph glyph-name="one.t_osf" horiz-adv-x="591" 
d="M465 0h-205v1044l-192 -262l-156 113l387 545h166v-1440z" />
    <glyph glyph-name="two.t_osf" horiz-adv-x="1128" 
d="M233 961l-206 16q14 98 52 181t98.5 147t150 100.5t198.5 36.5q131 0 237 -45.5t169.5 -119t93 -168t18.5 -189.5t-66 -187t-149 -158q-98 -81 -226.5 -184t-235.5 -192h657v-199h-1006v160l674 573h-2q55 39 89 93t43.5 109t-5 109.5t-50 96.5t-98 68t-143.5 26
q-127 0 -200 -74t-93 -200z" />
    <glyph glyph-name="three.t_osf" horiz-adv-x="1103" 
d="M334 623v194h215q67 0 113.5 34.5t64.5 81t18 97.5q0 68 -40.5 117t-100.5 70.5t-131 21.5q-86 0 -156.5 -46t-89.5 -126l-186 45q19 79 62 142t102 102t127.5 59.5t140.5 20.5q89 0 172 -25t152 -73t110.5 -127.5t42.5 -180.5q0 -211 -131 -299q188 -111 185 -334
q-1 -79 -34.5 -152.5t-96 -132.5t-163.5 -94.5t-225 -35.5q-111 0 -200 30t-146 83.5t-91.5 118.5t-47.5 142l193 35q15 -93 89.5 -155t202.5 -62q160 0 246 73.5t78 170.5q-3 34 -18.5 67.5t-44 66t-80 52t-117.5 19.5h-215z" />
    <glyph glyph-name="four.t_osf" horiz-adv-x="1124" 
d="M-6 469l760 965h159v-910h117v-200h-117v-324h-204v324h-715v145zM264 520h449v555z" />
    <glyph glyph-name="five.t_osf" horiz-adv-x="1134" 
d="M18 326l191 77q44 -91 120 -142.5t179 -51.5q151 0 234 86t81 205q0 78 -43.5 148t-122.5 104q-249 102 -503 -47l-117 53v682h913v-201h-704v-287q257 83 485 -8q145 -60 222 -179.5t79 -264.5q1 -76 -19.5 -148t-64 -136t-104.5 -112t-148 -76t-188 -28
q-361 0 -490 326z" />
    <glyph glyph-name="six.t_osf" horiz-adv-x="1150" 
d="M528 778q-149 0 -232 -85t-83 -201q0 -55 20 -105t58 -90t99.5 -64t137.5 -24q151 0 233.5 83.5t82.5 199.5q0 74 -33.5 137.5t-107 106t-175.5 42.5zM94 778l467 656h254l-350 -494q78 28 176 22t172 -47q115 -65 176.5 -179.5t61.5 -243.5q0 -94 -33.5 -181t-96.5 -157
t-165 -112t-228 -42q-125 0 -226.5 42t-165 112t-97 157t-33.5 181q0 152 88 286z" />
    <glyph glyph-name="seven.t_osf" horiz-adv-x="1079" 
d="M6 1434h1010v-142l-707 -1292h-237l671 1231h-737v203z" />
    <glyph glyph-name="eight.t_osf" horiz-adv-x="1132" 
d="M524 178q148 0 231 72t83 164t-82.5 160.5t-231.5 68.5q-146 0 -228.5 -68.5t-82.5 -160.5t83 -164t228 -72zM524 1264q-98 0 -175 -60t-77 -157q0 -82 66.5 -147.5t185.5 -65.5q120 0 187 65.5t67 149.5q0 97 -78 156t-176 59zM983 1042q0 -84 -48.5 -169t-131.5 -123
q118 -45 179.5 -137.5t61.5 -196.5q0 -82 -33.5 -158t-96 -137.5t-164 -98t-226.5 -36.5q-124 0 -224 35t-163 95t-96 137t-33 163q0 99 65.5 191t182.5 143q-55 22 -94.5 59.5t-58.5 80.5t-27 80.5t-8 73.5q1 79 27.5 146t71 113.5t103 79t123 48t131.5 15.5
q110 0 199.5 -34.5t145 -92t85 -128.5t29.5 -149z" />
    <glyph glyph-name="nine.t_osf" horiz-adv-x="1163" 
d="M543 662q102 0 176 43t107.5 107t33.5 138q0 118 -83 202.5t-234 84.5t-234.5 -84.5t-83.5 -202.5q0 -74 34 -138t108 -107t176 -43zM983 662l-471 -662h-256l352 500q-81 -30 -179.5 -24.5t-170.5 46.5q-117 67 -179.5 182.5t-62.5 245.5q0 96 34 184t97.5 158.5
t166 113t229.5 42.5t229.5 -42.5t166.5 -113t98 -158.5t34 -184q0 -150 -88 -288z" />
    <glyph glyph-name="dollar.osf" horiz-adv-x="1167" 
d="M440 1442v110h205v-110q72 -12 134.5 -38t116.5 -67.5t90 -105t46 -141.5l-203 -21q-15 64 -67 109.5t-117 54.5v-418q86 -3 160 -27t134.5 -69t95 -119t34.5 -170q0 -84 -23.5 -151.5t-62 -112.5t-95.5 -79t-114.5 -53t-128.5 -32v-125h-205v125q-158 27 -277.5 125.5
t-137.5 251.5v14l206 2l2 -2q15 -63 75.5 -119t131.5 -75v432q-80 -8 -152.5 16.5t-124 71t-85.5 112t-43 137t10 148.5t68 144q117 150 327 182zM645 608v-409q127 -4 188.5 103t9 211t-197.5 95zM274 1141h-2q-31 -49 -32 -103.5t22.5 -98t70.5 -72t107 -27.5v395
q-116 -28 -166 -94z" />
    <glyph glyph-name="cent.osf" horiz-adv-x="1495" 
d="M635 1434v188h194v-190q209 -28 360 -166.5t206 -354.5h-205q-46 131 -140.5 211.5t-220.5 102.5v-1022q130 25 229 112.5t144 221.5h203q-56 -221 -209.5 -365.5t-366.5 -173.5v-205h-194v203q-238 30 -404 207q-95 101 -149.5 233t-54.5 277q0 148 54.5 280t149.5 234
q164 172 404 207zM375 1081q-148 -155 -148 -368q0 -210 148 -365q109 -115 260 -145v1022q-149 -30 -260 -144z" />
    <glyph glyph-name="sterling.osf" horiz-adv-x="1150" 
d="M1049 1079h-195q0 112 -97 167q-87 50 -196 28q-115 -24 -170 -114q-32 -53 -35 -120v-231h435v-168h-435v-461h688v-180h-1007v147l113 31v463h-117v168h117v231q0 157 92.5 264t224.5 132.5t264.5 4t225 -120t92.5 -241.5z" />
    <glyph glyph-name="yen.osf" horiz-adv-x="1277" 
d="M193 330v168h303v86l-7 10h-296v168h190l-418 670h244l391 -648l391 648h246l-422 -670h193v-168h-297l-6 -10v-86h303v-168h-303v-330h-209v330h-303z" />
    <glyph glyph-name="florin.osf" horiz-adv-x="1017" 
d="M956 1440l-28 -174q-89 14 -147.5 0t-89.5 -62.5t-41.5 -81t-23.5 -105.5q-1 -2 -1 -3h213l-31 -185h-213l-172 -909q-39 -220 -183.5 -303t-361.5 -25l27 177q133 -35 201 2.5t106 183.5l166 874h-187l31 185h193q2 8 4 18t4 17q16 74 39.5 134t66 115.5t99 89.5
t140.5 49t189 3z" />
    <glyph glyph-name="Euro.osf" horiz-adv-x="1552" 
d="M84 664v49v30h-98l32 172h95q49 175 176 312q96 100 224 156.5t271 56.5q246 0 426 -143t242 -386h-205q-56 158 -178.5 241t-284.5 83q-101 0 -193 -40t-161 -112q-65 -68 -108 -168h620l-33 -172h-624v-30q0 -33 2 -49h590l-35 -166h-512q41 -93 100 -152
q68 -71 160 -111t194 -40q165 0 293 90.5t183 251.5h202q-62 -247 -246 -397t-432 -150q-143 0 -271 56.5t-224 156.5q-120 126 -172 295h-142l39 166h70z" />
    <glyph glyph-name="zero.numerator" horiz-adv-x="1171" 
d="M539 1176q-80 0 -144 -42t-103.5 -112t-60 -157t-20.5 -181t20.5 -180.5t60 -156t103.5 -111t144 -41.5q105 0 181 72t111 180.5t35 236.5t-35 237t-111 182t-181 73zM539 -4q-102 0 -188.5 38.5t-147.5 104.5t-104.5 154t-64 187t-20.5 204t20.5 204t64 187.5t104.5 155
t147.5 105t188.5 38.5q101 0 187.5 -38.5t147.5 -105t104.5 -155t64 -187.5t20.5 -204t-20.5 -204t-64 -187t-104.5 -154t-147.5 -104.5t-187.5 -38.5z" />
    <glyph glyph-name="one.numerator" horiz-adv-x="591" 
d="M465 0h-205v1044l-192 -262l-156 113l387 545h166v-1440z" />
    <glyph glyph-name="two.numerator" horiz-adv-x="1128" 
d="M233 961l-206 16q14 98 52 181t98.5 147t150 100.5t198.5 36.5q131 0 237 -45.5t169.5 -119t93 -168t18.5 -189.5t-66 -187t-149 -158q-98 -81 -226.5 -184t-235.5 -192h657v-199h-1006v160l674 573h-2q55 39 89 93t43.5 109t-5 109.5t-50 96.5t-98 68t-143.5 26
q-127 0 -200 -74t-93 -200z" />
    <glyph glyph-name="three.numerator" horiz-adv-x="1103" 
d="M334 623v194h215q67 0 113.5 34.5t64.5 81t18 97.5q0 68 -40.5 117t-100.5 70.5t-131 21.5q-86 0 -156.5 -46t-89.5 -126l-186 45q19 79 62 142t102 102t127.5 59.5t140.5 20.5q89 0 172 -25t152 -73t110.5 -127.5t42.5 -180.5q0 -211 -131 -299q188 -111 185 -334
q-1 -79 -34.5 -152.5t-96 -132.5t-163.5 -94.5t-225 -35.5q-111 0 -200 30t-146 83.5t-91.5 118.5t-47.5 142l193 35q15 -93 89.5 -155t202.5 -62q160 0 246 73.5t78 170.5q-3 34 -18.5 67.5t-44 66t-80 52t-117.5 19.5h-215z" />
    <glyph glyph-name="four.numerator" horiz-adv-x="1124" 
d="M-6 469l760 965h159v-910h117v-200h-117v-324h-204v324h-715v145zM264 520h449v555z" />
    <glyph glyph-name="five.numerator" horiz-adv-x="1134" 
d="M18 326l191 77q44 -91 120 -142.5t179 -51.5q151 0 234 86t81 205q0 78 -43.5 148t-122.5 104q-249 102 -503 -47l-117 53v682h913v-201h-704v-287q257 83 485 -8q145 -60 222 -179.5t79 -264.5q1 -76 -19.5 -148t-64 -136t-104.5 -112t-148 -76t-188 -28
q-361 0 -490 326z" />
    <glyph glyph-name="six.numerator" horiz-adv-x="1150" 
d="M528 778q-149 0 -232 -85t-83 -201q0 -55 20 -105t58 -90t99.5 -64t137.5 -24q151 0 233.5 83.5t82.5 199.5q0 74 -33.5 137.5t-107 106t-175.5 42.5zM94 778l467 656h254l-350 -494q78 28 176 22t172 -47q115 -65 176.5 -179.5t61.5 -243.5q0 -94 -33.5 -181t-96.5 -157
t-165 -112t-228 -42q-125 0 -226.5 42t-165 112t-97 157t-33.5 181q0 152 88 286z" />
    <glyph glyph-name="seven.numerator" horiz-adv-x="1079" 
d="M6 1434h1010v-142l-707 -1292h-237l671 1231h-737v203z" />
    <glyph glyph-name="eight.numerator" horiz-adv-x="1132" 
d="M524 178q148 0 231 72t83 164t-82.5 160.5t-231.5 68.5q-146 0 -228.5 -68.5t-82.5 -160.5t83 -164t228 -72zM524 1264q-98 0 -175 -60t-77 -157q0 -82 66.5 -147.5t185.5 -65.5q120 0 187 65.5t67 149.5q0 97 -78 156t-176 59zM983 1042q0 -84 -48.5 -169t-131.5 -123
q118 -45 179.5 -137.5t61.5 -196.5q0 -82 -33.5 -158t-96 -137.5t-164 -98t-226.5 -36.5q-124 0 -224 35t-163 95t-96 137t-33 163q0 99 65.5 191t182.5 143q-55 22 -94.5 59.5t-58.5 80.5t-27 80.5t-8 73.5q1 79 27.5 146t71 113.5t103 79t123 48t131.5 15.5
q110 0 199.5 -34.5t145 -92t85 -128.5t29.5 -149z" />
    <glyph glyph-name="nine.numerator" horiz-adv-x="1163" 
d="M543 662q102 0 176 43t107.5 107t33.5 138q0 118 -83 202.5t-234 84.5t-234.5 -84.5t-83.5 -202.5q0 -74 34 -138t108 -107t176 -43zM983 662l-471 -662h-256l352 500q-81 -30 -179.5 -24.5t-170.5 46.5q-117 67 -179.5 182.5t-62.5 245.5q0 96 34 184t97.5 158.5
t166 113t229.5 42.5t229.5 -42.5t166.5 -113t98 -158.5t34 -184q0 -150 -88 -288z" />
    <glyph glyph-name="zero.denominator" horiz-adv-x="1171" 
d="M539 1176q-80 0 -144 -42t-103.5 -112t-60 -157t-20.5 -181t20.5 -180.5t60 -156t103.5 -111t144 -41.5q105 0 181 72t111 180.5t35 236.5t-35 237t-111 182t-181 73zM539 -4q-102 0 -188.5 38.5t-147.5 104.5t-104.5 154t-64 187t-20.5 204t20.5 204t64 187.5t104.5 155
t147.5 105t188.5 38.5q101 0 187.5 -38.5t147.5 -105t104.5 -155t64 -187.5t20.5 -204t-20.5 -204t-64 -187t-104.5 -154t-147.5 -104.5t-187.5 -38.5z" />
    <glyph glyph-name="one.denominator" horiz-adv-x="591" 
d="M465 0h-205v1044l-192 -262l-156 113l387 545h166v-1440z" />
    <glyph glyph-name="two.denominator" horiz-adv-x="1128" 
d="M233 961l-206 16q14 98 52 181t98.5 147t150 100.5t198.5 36.5q131 0 237 -45.5t169.5 -119t93 -168t18.5 -189.5t-66 -187t-149 -158q-98 -81 -226.5 -184t-235.5 -192h657v-199h-1006v160l674 573h-2q55 39 89 93t43.5 109t-5 109.5t-50 96.5t-98 68t-143.5 26
q-127 0 -200 -74t-93 -200z" />
    <glyph glyph-name="three.denominator" horiz-adv-x="1103" 
d="M334 623v194h215q67 0 113.5 34.5t64.5 81t18 97.5q0 68 -40.5 117t-100.5 70.5t-131 21.5q-86 0 -156.5 -46t-89.5 -126l-186 45q19 79 62 142t102 102t127.5 59.5t140.5 20.5q89 0 172 -25t152 -73t110.5 -127.5t42.5 -180.5q0 -211 -131 -299q188 -111 185 -334
q-1 -79 -34.5 -152.5t-96 -132.5t-163.5 -94.5t-225 -35.5q-111 0 -200 30t-146 83.5t-91.5 118.5t-47.5 142l193 35q15 -93 89.5 -155t202.5 -62q160 0 246 73.5t78 170.5q-3 34 -18.5 67.5t-44 66t-80 52t-117.5 19.5h-215z" />
    <glyph glyph-name="four.denominator" horiz-adv-x="1124" 
d="M-6 469l760 965h159v-910h117v-200h-117v-324h-204v324h-715v145zM264 520h449v555z" />
    <glyph glyph-name="five.denominator" horiz-adv-x="1134" 
d="M18 326l191 77q44 -91 120 -142.5t179 -51.5q151 0 234 86t81 205q0 78 -43.5 148t-122.5 104q-249 102 -503 -47l-117 53v682h913v-201h-704v-287q257 83 485 -8q145 -60 222 -179.5t79 -264.5q1 -76 -19.5 -148t-64 -136t-104.5 -112t-148 -76t-188 -28
q-361 0 -490 326z" />
    <glyph glyph-name="six.denominator" horiz-adv-x="1150" 
d="M528 778q-149 0 -232 -85t-83 -201q0 -55 20 -105t58 -90t99.5 -64t137.5 -24q151 0 233.5 83.5t82.5 199.5q0 74 -33.5 137.5t-107 106t-175.5 42.5zM94 778l467 656h254l-350 -494q78 28 176 22t172 -47q115 -65 176.5 -179.5t61.5 -243.5q0 -94 -33.5 -181t-96.5 -157
t-165 -112t-228 -42q-125 0 -226.5 42t-165 112t-97 157t-33.5 181q0 152 88 286z" />
    <glyph glyph-name="seven.denominator" horiz-adv-x="1079" 
d="M6 1434h1010v-142l-707 -1292h-237l671 1231h-737v203z" />
    <glyph glyph-name="eight.denominator" horiz-adv-x="1132" 
d="M524 178q148 0 231 72t83 164t-82.5 160.5t-231.5 68.5q-146 0 -228.5 -68.5t-82.5 -160.5t83 -164t228 -72zM524 1264q-98 0 -175 -60t-77 -157q0 -82 66.5 -147.5t185.5 -65.5q120 0 187 65.5t67 149.5q0 97 -78 156t-176 59zM983 1042q0 -84 -48.5 -169t-131.5 -123
q118 -45 179.5 -137.5t61.5 -196.5q0 -82 -33.5 -158t-96 -137.5t-164 -98t-226.5 -36.5q-124 0 -224 35t-163 95t-96 137t-33 163q0 99 65.5 191t182.5 143q-55 22 -94.5 59.5t-58.5 80.5t-27 80.5t-8 73.5q1 79 27.5 146t71 113.5t103 79t123 48t131.5 15.5
q110 0 199.5 -34.5t145 -92t85 -128.5t29.5 -149z" />
    <glyph glyph-name="nine.denominator" horiz-adv-x="1163" 
d="M543 662q102 0 176 43t107.5 107t33.5 138q0 118 -83 202.5t-234 84.5t-234.5 -84.5t-83.5 -202.5q0 -74 34 -138t108 -107t176 -43zM983 662l-471 -662h-256l352 500q-81 -30 -179.5 -24.5t-170.5 46.5q-117 67 -179.5 182.5t-62.5 245.5q0 96 34 184t97.5 158.5
t166 113t229.5 42.5t229.5 -42.5t166.5 -113t98 -158.5t34 -184q0 -150 -88 -288z" />
    </font>
</defs>
</svg>
